SplineFontDB: 3.2
FontName: Gontserrat-MediumItalic
FullName: Gontserrat Medium Italic
FamilyName: Gontserrat
Weight: Medium
Copyright: Gontserrat is a derivative work of Montserrat under the Open Font License, version 1.1. Copyright 2020 Gabriel Classon (gabeclasson.com). Montserrat copyright 2011 The Montserrat Project Authors (https://github.com/JulietaUla/Montserrat). 
Version: 6.002
ItalicAngle: -11.3
UnderlinePosition: -100
UnderlineWidth: 50
Ascent: 800
Descent: 200
InvalidEm: 0
sfntRevision: 0x00010000
LayerCount: 2
Layer: 0 1 "Back" 1
Layer: 1 1 "Fore" 0
XUID: [1021 930 -1503615855 3953]
StyleMap: 0x0001
FSType: 0
OS2Version: 4
OS2_WeightWidthSlopeOnly: 0
OS2_UseTypoMetrics: 1
CreationTime: 1485852814
ModificationTime: 1642920959
PfmFamily: 81
TTFWeight: 500
TTFWidth: 5
LineGap: 0
VLineGap: 0
Panose: 0 0 6 0 0 0 0 0 0 0
OS2TypoAscent: 968
OS2TypoAOffset: 0
OS2TypoDescent: -251
OS2TypoDOffset: 0
OS2TypoLinegap: 0
OS2WinAscent: 1177
OS2WinAOffset: 0
OS2WinDescent: 496
OS2WinDOffset: 0
HheadAscent: 968
HheadAOffset: 0
HheadDescent: -251
HheadDOffset: 0
OS2SubXSize: 650
OS2SubYSize: 600
OS2SubXOff: -15
OS2SubYOff: 75
OS2SupXSize: 650
OS2SupYSize: 600
OS2SupXOff: 70
OS2SupYOff: 350
OS2StrikeYSize: 50
OS2StrikeYPos: 321
OS2CapHeight: 700
OS2XHeight: 535
OS2Vendor: 'ULA '
OS2CodePages: 20000193.00000000
OS2UnicodeRanges: 20000007.00000001.00000000.00000000
Lookup: 1 0 0 "'rtla' Right to Left Alternates lookup 0" { "'rtla' Right to Left Alternates lookup 0 subtable"  } ['rtla' ('DFLT' <'dflt' > ) ]
Lookup: 1 0 0 "<10,2> Inferiors lookup 1" { "<10,2> Inferiors lookup 1 subtable" ("inferior") } [<10,2> ('DFLT' <'dflt' > ) 'subs' ('DFLT' <'dflt' > ) ]
Lookup: 1 0 0 "<10,1> Superiors lookup 2" { "<10,1> Superiors lookup 2 subtable" ("superior") } [<10,1> ('DFLT' <'dflt' > ) 'sups' ('DFLT' <'dflt' > ) ]
Lookup: 1 0 0 "<11,2> Diagonal Fractions lookup 3" { "<11,2> Diagonal Fractions lookup 3 subtable"  } [<11,2> ('DFLT' <'dflt' > ) 'frac' ('DFLT' <'dflt' > ) ]

StartChar: .notdef
Encoding: 65536 -1 0
Width: 587
Flags: W
LayerCount: 2
Fore
SplineSet
40 0 m 1,0,-1
 40 700 l 1,1,-1
 547 700 l 1,2,-1
 547 0 l 1,3,-1
 40 0 l 1,0,-1
120 70 m 1,4,-1
 467 70 l 1,5,-1
 467 630 l 1,6,-1
 120 630 l 1,7,-1
 120 70 l 1,4,-1
EndSplineSet
EndChar

StartChar: exclam
Encoding: 33 33 5
Width: 225
Flags: W
LayerCount: 2
Fore
SplineSet
269 693 m 1,0,-1
 234 519 l 1,1,-1
 155 228 l 1,2,-1
 73 228 l 1,3,-1
 110 519 l 1,4,-1
 145 693 l 1,5,-1
 269 693 l 1,0,-1
136 117.5 m 128,-1,7
 153 100 153 100 153 71 c 0,8,9
 153 37 153 37 131.5 14 c 128,-1,10
 110 -9 110 -9 78 -9 c 0,11,12
 50 -9 50 -9 33 9.5 c 128,-1,13
 16 28 16 28 16 57 c 0,14,15
 16 91 16 91 37.5 113 c 128,-1,16
 59 135 59 135 91 135 c 0,17,6
 119 135 119 135 136 117.5 c 128,-1,7
EndSplineSet
Substitution2: "<3,3> Small Caps in Latin lookup 11 subtable" exclam.sc
EndChar

StartChar: numbersign
Encoding: 35 35 7
Width: 690
Flags: W
LayerCount: 2
Fore
SplineSet
698 429 m 1,0,-1
 556 429 l 1,1,-1
 521 264 l 1,2,-1
 659 264 l 1,3,-1
 641 168 l 1,4,-1
 501 168 l 1,5,-1
 466 0 l 1,6,-1
 370 0 l 1,7,-1
 406 168 l 1,8,-1
 239 168 l 1,9,-1
 203 0 l 1,10,-1
 108 0 l 1,11,-1
 143 168 l 1,12,-1
 4 168 l 1,13,-1
 23 264 l 1,14,-1
 163 264 l 1,15,-1
 198 429 l 1,16,-1
 61 429 l 1,17,-1
 78 526 l 1,18,-1
 218 526 l 1,19,-1
 255 700 l 1,20,-1
 351 700 l 1,21,-1
 314 526 l 1,22,-1
 482 526 l 1,23,-1
 519 700 l 1,24,-1
 613 700 l 1,25,-1
 576 526 l 1,26,-1
 715 526 l 1,27,-1
 698 429 l 1,0,-1
426 264 m 1,28,-1
 461 429 l 1,29,-1
 294 429 l 1,30,-1
 259 264 l 1,31,-1
 426 264 l 1,28,-1
EndSplineSet
EndChar

StartChar: dollar
Encoding: 36 36 8
Width: 619
Flags: W
LayerCount: 2
Fore
SplineSet
244 467 m 128,-1,1
 262 449 262 449 289 438 c 128,-1,2
 316 427 316 427 363 413 c 0,3,4
 427 393 427 393 467.5 374.5 c 128,-1,5
 508 356 508 356 536.5 320.5 c 128,-1,6
 565 285 565 285 565 228 c 0,7,8
 565 158 565 158 530 106.5 c 128,-1,9
 495 55 495 55 433.5 26.5 c 128,-1,10
 372 -2 372 -2 294 -5 c 1,11,-1
 266 -145 l 1,12,-1
 168 -145 l 1,13,-1
 196 3 l 1,14,15
 137 14 137 14 84 41 c 128,-1,16
 31 68 31 68 -9 106 c 1,17,-1
 58 220 l 1,18,19
 106 173 106 173 169.5 145 c 128,-1,20
 233 117 233 117 289 117 c 0,21,22
 349 117 349 117 383 139.5 c 128,-1,23
 417 162 417 162 417 203 c 0,24,25
 417 229 417 229 399 246.5 c 128,-1,26
 381 264 381 264 354 274.5 c 128,-1,27
 327 285 327 285 279 300 c 0,28,29
 214 319 214 319 173.5 337 c 128,-1,30
 133 355 133 355 104.5 390 c 128,-1,31
 76 425 76 425 76 481 c 0,32,33
 76 545 76 545 109 594.5 c 128,-1,34
 142 644 142 644 201 673 c 128,-1,35
 260 702 260 702 337 705 c 1,36,-1
 362 838 l 1,37,-1
 461 838 l 1,38,-1
 434 700 l 1,39,40
 534 682 534 682 605 632 c 1,41,-1
 540 516 l 1,42,43
 489 549 489 549 434 566.5 c 128,-1,44
 379 584 379 584 337 584 c 0,45,46
 286 584 286 584 256 565 c 128,-1,47
 226 546 226 546 226 511 c 0,48,0
 226 485 226 485 244 467 c 128,-1,1
EndSplineSet
EndChar

StartChar: ampersand
Encoding: 38 38 10
Width: 678
Flags: W
LayerCount: 2
Fore
SplineSet
554 -20 m 1,0,-1
 464 82 l 1,1,2
 414 39 414 39 358.5 16.5 c 128,-1,3
 303 -6 303 -6 247 -6 c 0,4,5
 188 -6 188 -6 141 17 c 128,-1,6
 94 40 94 40 67.5 80.5 c 128,-1,7
 41 121 41 121 41 172 c 0,8,9
 41 248 41 248 88 297.5 c 128,-1,10
 135 347 135 347 217 390 c 1,11,12
 175 462 175 462 175 518 c 0,13,14
 175 526 175 526 177 544 c 0,15,16
 185 617 185 617 240.5 661.5 c 128,-1,17
 296 706 296 706 380 706 c 0,18,19
 456 706 456 706 501.5 669 c 128,-1,20
 547 632 547 632 547 572 c 0,21,22
 547 520 547 520 520.5 481 c 128,-1,23
 494 442 494 442 453.5 415.5 c 128,-1,24
 413 389 413 389 351 359 c 1,25,26
 398 297 398 297 464 223 c 1,27,28
 511 285 511 285 542 350 c 1,29,-1
 621 279 l 1,30,31
 581 204 581 204 531 147 c 1,32,-1
 625 43 l 1,33,-1
 554 -20 l 1,0,-1
303 432 m 1,35,36
 368 463 368 463 403.5 492.5 c 128,-1,37
 439 522 439 522 444 562 c 2,38,-1
 445 572 l 2,39,40
 445 597 445 597 428 611.5 c 128,-1,41
 411 626 411 626 381 626 c 0,42,43
 336 626 336 626 306 595 c 128,-1,44
 276 564 276 564 276 521 c 0,45,34
 276 483 276 483 303 432 c 1,35,36
399 156 m 1,47,48
 315 253 315 253 266 317 c 1,49,50
 210 287 210 287 180 255 c 128,-1,51
 150 223 150 223 150 179 c 0,52,53
 150 140 150 140 178.5 116.5 c 128,-1,54
 207 93 207 93 252 93 c 0,55,46
 325 93 325 93 399 156 c 1,47,48
EndSplineSet
Substitution2: "<3,3> Small Caps in Latin lookup 11 subtable" ampersand.sc
EndChar

StartChar: quotesingle
Encoding: 39 39 11
Width: 220
Flags: W
LayerCount: 2
Fore
SplineSet
246 700 m 1,0,-1
 196 445 l 1,1,-1
 97 445 l 1,2,-1
 147 700 l 1,3,-1
 246 700 l 1,0,-1
EndSplineSet
Substitution2: "<3,3> Small Caps in Latin lookup 11 subtable" quotesingle.sc
EndChar

StartChar: parenleft
Encoding: 40 40 12
Width: 327
Flags: W
LayerCount: 2
Fore
SplineSet
281 534.5 m 128,-1,1
 227 421 227 421 202 298 c 0,2,3
 184 208 184 208 184 124 c 0,4,5
 184 -17 184 -17 232 -124 c 1,6,-1
 122 -124 l 1,7,8
 65 -4 65 -4 65 148 c 0,9,10
 65 230 65 230 83 320 c 0,11,12
 107 441 107 441 160.5 550.5 c 128,-1,13
 214 660 214 660 290 742 c 1,14,-1
 409 742 l 1,15,0
 335 648 335 648 281 534.5 c 128,-1,1
EndSplineSet
Substitution2: "'rtla' Right to Left Alternates lookup 0 subtable" parenright
EndChar

StartChar: parenright
Encoding: 41 41 13
Width: 349
Flags: W
LayerCount: 2
Fore
SplineSet
150 82.5 m 128,-1,1
 204 196 204 196 229 319 c 0,2,3
 247 409 247 409 247 493 c 0,4,5
 247 634 247 634 199 741 c 1,6,-1
 309 741 l 1,7,8
 366 621 366 621 366 469 c 0,9,10
 366 387 366 387 348 297 c 0,11,12
 324 176 324 176 270.5 66.5 c 128,-1,13
 217 -43 217 -43 141 -125 c 1,14,-1
 22 -125 l 1,15,0
 96 -31 96 -31 150 82.5 c 128,-1,1
EndSplineSet
Substitution2: "'rtla' Right to Left Alternates lookup 0 subtable" parenleft
EndChar

StartChar: asterisk
Encoding: 42 42 14
Width: 375
Flags: W
LayerCount: 2
Fore
SplineSet
366 448 m 1,0,-1
 279 500 l 1,1,-1
 280 400 l 1,2,-1
 212 400 l 1,3,-1
 215 501 l 1,4,-1
 127 450 l 1,5,-1
 93 511 l 1,6,-1
 181 560 l 1,7,-1
 93 609 l 1,8,-1
 127 672 l 1,9,-1
 214 620 l 1,10,-1
 212 720 l 1,11,-1
 280 720 l 1,12,-1
 279 620 l 1,13,-1
 366 671 l 1,14,-1
 400 609 l 1,15,-1
 311 560 l 1,16,-1
 400 511 l 1,17,-1
 366 448 l 1,0,-1
EndSplineSet
EndChar

StartChar: plus
Encoding: 43 43 15
Width: 501
Flags: W
LayerCount: 2
Fore
SplineSet
487 370 m 1,0,-1
 470 280 l 1,1,-1
 296 280 l 1,2,-1
 262 108 l 1,3,-1
 176 108 l 1,4,-1
 210 280 l 1,5,-1
 37 280 l 1,6,-1
 54 370 l 1,7,-1
 228 370 l 1,8,-1
 263 543 l 1,9,-1
 348 543 l 1,10,-1
 314 370 l 1,11,-1
 487 370 l 1,0,-1
EndSplineSet
EndChar

StartChar: comma
Encoding: 44 44 16
Width: 212
Flags: W
LayerCount: 2
Fore
SplineSet
110.5 116.5 m 128,-1,1
 128 100 128 100 128 71 c 0,2,3
 128 54 128 54 122 39 c 128,-1,4
 116 24 116 24 105 7 c 2,5,-1
 32 -114 l 1,6,-1
 -34 -114 l 1,7,-1
 19 5 l 1,8,9
 -6 22 -6 22 -6 56 c 0,10,11
 -6 89 -6 89 15 111 c 128,-1,12
 36 133 36 133 67 133 c 0,13,0
 93 133 93 133 110.5 116.5 c 128,-1,1
EndSplineSet
EndChar

StartChar: hyphen
Encoding: 45 45 17
Width: 371
Flags: W
LayerCount: 2
Fore
SplineSet
327 350 m 1,0,-1
 309 260 l 1,1,-1
 58 260 l 1,2,-1
 76 350 l 1,3,-1
 327 350 l 1,0,-1
EndSplineSet
EndChar

StartChar: period
Encoding: 46 46 18
Width: 228
Flags: W
LayerCount: 2
Fore
SplineSet
124 117.5 m 128,-1,1
 141 100 141 100 141 71 c 0,2,3
 141 37 141 37 119.5 14 c 128,-1,4
 98 -9 98 -9 66 -9 c 0,5,6
 38 -9 38 -9 21 9.5 c 128,-1,7
 4 28 4 28 4 57 c 0,8,9
 4 91 4 91 25.5 113 c 128,-1,10
 47 135 47 135 79 135 c 0,11,0
 107 135 107 135 124 117.5 c 128,-1,1
EndSplineSet
Substitution2: "<3,3> Small Caps in Latin lookup 11 subtable" period.sc
EndChar

StartChar: slash
Encoding: 47 47 19
Width: 334
Flags: W
LayerCount: 2
Fore
SplineSet
425 815 m 1,0,-1
 52 -115 l 1,1,-1
 -59 -115 l 1,2,-1
 314 815 l 1,3,-1
 425 815 l 1,0,-1
EndSplineSet
Substitution2: "<11,2> Diagonal Fractions lookup 3 subtable" fraction
EndChar

StartChar: zero
Encoding: 48 48 20
Width: 750
Flags: W
LayerCount: 2
Fore
SplineSet
641.5 637 m 128,-1,1
 704 568 704 568 704 441 c 0,2,3
 704 308 704 308 658.5 207 c 128,-1,4
 613 106 613 106 527 50.5 c 128,-1,5
 441 -5 441 -5 323 -5 c 0,6,7
 204 -5 204 -5 141.5 63.5 c 128,-1,8
 79 132 79 132 79 259 c 0,9,10
 79 393 79 393 124.5 494 c 128,-1,11
 170 595 170 595 256 650.5 c 128,-1,12
 342 706 342 706 461 706 c 0,13,0
 579 706 579 706 641.5 637 c 128,-1,1
272.5 510.5 m 128,-1,15
 216 421 216 421 216 261 c 0,16,17
 216 100 216 100 342 100 c 0,18,19
 453 100 453 100 510 190 c 128,-1,20
 567 280 567 280 567 440 c 256,21,22
 567 600 567 600 442 600 c 0,23,14
 329 600 329 600 272.5 510.5 c 128,-1,15
EndSplineSet
Substitution2: "<21,0> Lower Case Numbers lookup 10 subtable" zero.osf
Substitution2: "<6,0> Monospaced Numbers lookup 9 subtable" zero.tf
Substitution2: "<11,2> Diagonal Fractions lookup 4 subtable" zero.numr
Substitution2: "<10,1> Superiors lookup 2 subtable" uni2070
Substitution2: "<10,2> Inferiors lookup 1 subtable" uni2080
EndChar

StartChar: one
Encoding: 49 49 21
Width: 424
Flags: W
LayerCount: 2
Fore
SplineSet
117 700 m 1,0,-1
 398 700 l 1,1,-1
 262 0 l 1,2,-1
 128 0 l 1,3,-1
 242 582 l 1,4,-1
 96 582 l 1,5,-1
 117 700 l 1,0,-1
EndSplineSet
Substitution2: "<21,0> Lower Case Numbers lookup 10 subtable" one.osf
Substitution2: "<6,0> Monospaced Numbers lookup 9 subtable" one.tf
Substitution2: "<11,2> Diagonal Fractions lookup 4 subtable" one.numr
Substitution2: "<10,1> Superiors lookup 2 subtable" uni00B9
Substitution2: "<10,2> Inferiors lookup 1 subtable" uni2081
EndChar

StartChar: two
Encoding: 50 50 22
Width: 629
Flags: W
LayerCount: 2
Fore
SplineSet
545 422.5 m 128,-1,1
 499 364 499 364 421 297 c 2,2,-1
 207 117 l 1,3,-1
 547 117 l 1,4,-1
 526 0 l 1,5,-1
 8 0 l 1,6,-1
 25 97 l 1,7,-1
 342 369 l 2,8,9
 389 408 389 408 419.5 445 c 128,-1,10
 450 482 450 482 455 510 c 0,11,12
 456 515 456 515 456 524 c 0,13,14
 456 555 456 555 430.5 572 c 128,-1,15
 405 589 405 589 359 589 c 256,16,17
 313 589 313 589 256 566 c 128,-1,18
 199 543 199 543 145 502 c 1,19,-1
 111 605 l 1,20,21
 182 653 182 653 255.5 679.5 c 128,-1,22
 329 706 329 706 399 706 c 0,23,24
 491 706 491 706 546 667 c 128,-1,25
 601 628 601 628 601 562 c 0,26,27
 601 544 601 544 599 534 c 0,28,0
 591 481 591 481 545 422.5 c 128,-1,1
EndSplineSet
Substitution2: "<21,0> Lower Case Numbers lookup 10 subtable" two.osf
Substitution2: "<6,0> Monospaced Numbers lookup 9 subtable" two.tf
Substitution2: "<11,2> Diagonal Fractions lookup 4 subtable" two.numr
Substitution2: "<10,1> Superiors lookup 2 subtable" uni00B2
Substitution2: "<10,2> Inferiors lookup 1 subtable" uni2082
EndChar

StartChar: three
Encoding: 51 51 23
Width: 632
Flags: W
LayerCount: 2
Fore
SplineSet
610 617 m 1,0,-1
 357 412 l 1,1,-1
 392 408 l 2,2,3
 476 400 476 400 523.5 358 c 128,-1,4
 571 316 571 316 571 249 c 0,5,6
 571 177 571 177 529.5 119 c 128,-1,7
 488 61 488 61 414 27.5 c 128,-1,8
 340 -6 340 -6 246 -6 c 0,9,10
 175 -6 175 -6 109.5 15.5 c 128,-1,11
 44 37 44 37 2 73 c 1,12,-1
 74 177 l 1,13,14
 109 142 109 142 156.5 123.5 c 128,-1,15
 204 105 204 105 257 105 c 0,16,17
 340 105 340 105 389 140.5 c 128,-1,18
 438 176 438 176 438 234 c 0,19,20
 438 277 438 277 402 300 c 128,-1,21
 366 323 366 323 300 323 c 2,22,-1
 193 323 l 1,23,-1
 208 404 l 1,24,-1
 432 586 l 1,25,-1
 138 586 l 1,26,-1
 158 700 l 1,27,-1
 626 700 l 1,28,-1
 610 617 l 1,0,-1
EndSplineSet
Substitution2: "<21,0> Lower Case Numbers lookup 10 subtable" three.osf
Substitution2: "<6,0> Monospaced Numbers lookup 9 subtable" three.tf
Substitution2: "<11,2> Diagonal Fractions lookup 4 subtable" three.numr
Substitution2: "<10,1> Superiors lookup 2 subtable" uni00B3
Substitution2: "<10,2> Inferiors lookup 1 subtable" uni2083
EndChar

StartChar: four
Encoding: 52 52 24
Width: 641
Flags: W
LayerCount: 2
Fore
SplineSet
605 280 m 1,0,-1
 584 165 l 1,1,-1
 483 165 l 1,2,-1
 451 0 l 1,3,-1
 326 0 l 1,4,-1
 358 165 l 1,5,-1
 24 165 l 1,6,-1
 42 264 l 1,7,-1
 356 700 l 1,8,-1
 484 700 l 1,9,-1
 188 280 l 1,10,-1
 380 280 l 1,11,-1
 412 442 l 1,12,-1
 537 442 l 1,13,-1
 505 280 l 1,14,-1
 605 280 l 1,0,-1
EndSplineSet
Substitution2: "<21,0> Lower Case Numbers lookup 10 subtable" four.osf
Substitution2: "<6,0> Monospaced Numbers lookup 9 subtable" four.tf
Substitution2: "<11,2> Diagonal Fractions lookup 4 subtable" four.numr
Substitution2: "<10,1> Superiors lookup 2 subtable" uni2074
Substitution2: "<10,2> Inferiors lookup 1 subtable" uni2084
EndChar

StartChar: five
Encoding: 53 53 25
Width: 654
Flags: W
LayerCount: 2
Fore
SplineSet
297 583 m 1,0,-1
 269 444 l 1,1,-1
 361 444 l 2,2,3
 467 444 467 444 527.5 394.5 c 128,-1,4
 588 345 588 345 588 264 c 0,5,6
 588 187 588 187 546.5 125.5 c 128,-1,7
 505 64 505 64 431 29 c 128,-1,8
 357 -6 357 -6 264 -6 c 0,9,10
 198 -6 198 -6 131 16.5 c 128,-1,11
 64 39 64 39 17 77 c 1,12,-1
 89 182 l 1,13,14
 126 147 126 147 173.5 127.5 c 128,-1,15
 221 108 221 108 272 108 c 0,16,17
 348 108 348 108 394.5 144.5 c 128,-1,18
 441 181 441 181 441 241 c 0,19,20
 441 283 441 283 408 306 c 128,-1,21
 375 329 375 329 309 329 c 0,22,23
 273 329 273 329 214 326.5 c 128,-1,24
 155 324 155 324 121 321 c 1,25,-1
 194 700 l 1,26,-1
 645 700 l 1,27,-1
 623 583 l 1,28,-1
 297 583 l 1,0,-1
EndSplineSet
Substitution2: "<21,0> Lower Case Numbers lookup 10 subtable" five.osf
Substitution2: "<6,0> Monospaced Numbers lookup 9 subtable" five.tf
Substitution2: "<11,2> Diagonal Fractions lookup 4 subtable" five.numr
Substitution2: "<10,1> Superiors lookup 2 subtable" uni2075
Substitution2: "<10,2> Inferiors lookup 1 subtable" uni2085
EndChar

StartChar: six
Encoding: 54 54 26
Width: 673
Flags: W
LayerCount: 2
Fore
SplineSet
135.5 63 m 128,-1,1
 75 132 75 132 75 254 c 0,2,3
 75 382 75 382 125 485 c 128,-1,4
 175 588 175 588 264 647 c 128,-1,5
 353 706 353 706 463 706 c 0,6,7
 517 706 517 706 572 691.5 c 128,-1,8
 627 677 627 677 665 652 c 1,9,-1
 595 552 l 1,10,11
 568 573 568 573 530 585 c 128,-1,12
 492 597 492 597 452 597 c 0,13,14
 357 597 357 597 296.5 534 c 128,-1,15
 236 471 236 471 218 362 c 1,16,17
 254 408 254 408 305.5 431.5 c 128,-1,18
 357 455 357 455 421 455 c 0,19,20
 509 455 509 455 558.5 406.5 c 128,-1,21
 608 358 608 358 608 276 c 0,22,23
 608 193 608 193 569 129 c 128,-1,24
 530 65 530 65 461.5 29.5 c 128,-1,25
 393 -6 393 -6 307 -6 c 0,26,0
 196 -6 196 -6 135.5 63 c 128,-1,1
437 148 m 128,-1,28
 482 189 482 189 482 256 c 0,29,30
 482 301 482 301 454 326.5 c 128,-1,31
 426 352 426 352 376 352 c 0,32,33
 328 352 328 352 290 331 c 128,-1,34
 252 310 252 310 230.5 275.5 c 128,-1,35
 209 241 209 241 209 202 c 0,36,37
 209 162 209 162 237.5 134.5 c 128,-1,38
 266 107 266 107 322 107 c 0,39,27
 392 107 392 107 437 148 c 128,-1,28
EndSplineSet
Substitution2: "<21,0> Lower Case Numbers lookup 10 subtable" six.osf
Substitution2: "<6,0> Monospaced Numbers lookup 9 subtable" six.tf
Substitution2: "<11,2> Diagonal Fractions lookup 4 subtable" six.numr
Substitution2: "<10,1> Superiors lookup 2 subtable" uni2076
Substitution2: "<10,2> Inferiors lookup 1 subtable" uni2086
EndChar

StartChar: seven
Encoding: 55 55 27
Width: 622
Flags: W
LayerCount: 2
Fore
SplineSet
131 700 m 1,0,-1
 671 700 l 1,1,-1
 653 600 l 1,2,-1
 248 0 l 1,3,-1
 106 0 l 1,4,-1
 498 583 l 1,5,-1
 230 583 l 1,6,-1
 210 484 l 1,7,-1
 90 484 l 1,8,-1
 131 700 l 1,0,-1
EndSplineSet
Substitution2: "<21,0> Lower Case Numbers lookup 10 subtable" seven.osf
Substitution2: "<6,0> Monospaced Numbers lookup 9 subtable" seven.tf
Substitution2: "<11,2> Diagonal Fractions lookup 4 subtable" seven.numr
Substitution2: "<10,1> Superiors lookup 2 subtable" uni2077
Substitution2: "<10,2> Inferiors lookup 1 subtable" uni2087
EndChar

StartChar: eight
Encoding: 56 56 28
Width: 666
Flags: W
LayerCount: 2
Fore
SplineSet
568.5 665 m 128,-1,1
 623 624 623 624 623 552 c 0,2,3
 623 494 623 494 587 447 c 128,-1,4
 551 400 551 400 492 374 c 1,5,6
 540 354 540 354 567 315 c 128,-1,7
 594 276 594 276 594 226 c 0,8,9
 594 157 594 157 554.5 104.5 c 128,-1,10
 515 52 515 52 443.5 23 c 128,-1,11
 372 -6 372 -6 280 -6 c 0,12,13
 170 -6 170 -6 107.5 39.5 c 128,-1,14
 45 85 45 85 45 163 c 0,15,16
 45 235 45 235 93.5 291 c 128,-1,17
 142 347 142 347 222 374 c 1,18,19
 185 393 185 393 164.5 427 c 128,-1,20
 144 461 144 461 144 502 c 0,21,22
 144 562 144 562 178.5 608.5 c 128,-1,23
 213 655 213 655 275 680.5 c 128,-1,24
 337 706 337 706 417 706 c 0,25,0
 514 706 514 706 568.5 665 c 128,-1,1
295 580 m 128,-1,27
 256 550 256 550 256 497 c 0,28,29
 256 460 256 460 283.5 440 c 128,-1,30
 311 420 311 420 362 420 c 0,31,32
 430 420 430 420 468 450 c 128,-1,33
 506 480 506 480 506 532 c 0,34,35
 506 570 506 570 479 590 c 128,-1,36
 452 610 452 610 401 610 c 0,37,26
 334 610 334 610 295 580 c 128,-1,27
219.5 281.5 m 128,-1,39
 174 247 174 247 174 189 c 0,40,41
 174 146 174 146 206.5 122.5 c 128,-1,42
 239 99 239 99 299 99 c 0,43,44
 378 99 378 99 423 133.5 c 128,-1,45
 468 168 468 168 468 227 c 0,46,47
 468 269 468 269 435.5 292.5 c 128,-1,48
 403 316 403 316 342 316 c 0,49,38
 265 316 265 316 219.5 281.5 c 128,-1,39
EndSplineSet
Substitution2: "<21,0> Lower Case Numbers lookup 10 subtable" eight.osf
Substitution2: "<6,0> Monospaced Numbers lookup 9 subtable" eight.tf
Substitution2: "<11,2> Diagonal Fractions lookup 4 subtable" eight.numr
Substitution2: "<10,1> Superiors lookup 2 subtable" uni2078
Substitution2: "<10,2> Inferiors lookup 1 subtable" uni2088
EndChar

StartChar: nine
Encoding: 57 57 29
Width: 669
Flags: W
LayerCount: 2
Fore
SplineSet
174 115.5 m 128,-1,1
 212 104 212 104 252 104 c 0,2,3
 346 104 346 104 406 166.5 c 128,-1,4
 466 229 466 229 485 338 c 1,5,6
 449 293 449 293 397.5 269 c 128,-1,7
 346 245 346 245 283 245 c 0,8,9
 195 245 195 245 146 293.5 c 128,-1,10
 97 342 97 342 97 425 c 0,11,12
 97 507 97 507 135.5 571 c 128,-1,13
 174 635 174 635 242.5 670.5 c 128,-1,14
 311 706 311 706 397 706 c 0,15,16
 507 706 507 706 567.5 637 c 128,-1,17
 628 568 628 568 628 446 c 0,18,19
 628 319 628 319 577.5 215.5 c 128,-1,20
 527 112 527 112 438.5 53 c 128,-1,21
 350 -6 350 -6 240 -6 c 0,22,23
 187 -6 187 -6 132 9 c 128,-1,24
 77 24 77 24 39 49 c 1,25,-1
 109 148 l 1,26,0
 136 127 136 127 174 115.5 c 128,-1,1
268 552 m 128,-1,28
 223 511 223 511 223 444 c 0,29,30
 223 400 223 400 250.5 374.5 c 128,-1,31
 278 349 278 349 328 349 c 0,32,33
 393 349 393 349 437.5 386 c 128,-1,34
 482 423 482 423 491 477 c 0,35,36
 493 491 493 491 493 499 c 0,37,38
 493 539 493 539 465.5 566 c 128,-1,39
 438 593 438 593 382 593 c 0,40,27
 313 593 313 593 268 552 c 128,-1,28
EndSplineSet
Substitution2: "<21,0> Lower Case Numbers lookup 10 subtable" nine.osf
Substitution2: "<6,0> Monospaced Numbers lookup 9 subtable" nine.tf
Substitution2: "<11,2> Diagonal Fractions lookup 4 subtable" nine.numr
Substitution2: "<10,1> Superiors lookup 2 subtable" uni2079
Substitution2: "<10,2> Inferiors lookup 1 subtable" uni2089
EndChar

StartChar: less
Encoding: 60 60 32
Width: 503
Flags: W
LayerCount: 2
Fore
SplineSet
527 567 m 1,0,-1
 509 462 l 1,1,-1
 133 321 l 1,2,-1
 450 177 l 1,3,-1
 433 83 l 1,4,-1
 38 268 l 1,5,-1
 58 382 l 1,6,-1
 527 567 l 1,0,-1
EndSplineSet
Substitution2: "'rtla' Right to Left Alternates lookup 0 subtable" greater
EndChar

StartChar: equal
Encoding: 61 61 33
Width: 502
Flags: W
LayerCount: 2
Fore
SplineSet
509 475 m 1,0,-1
 492 386 l 1,1,-1
 59 386 l 1,2,-1
 76 475 l 1,3,-1
 509 475 l 1,0,-1
466 264 m 1,4,-1
 450 175 l 1,5,-1
 17 175 l 1,6,-1
 34 264 l 1,7,-1
 466 264 l 1,4,-1
EndSplineSet
EndChar

StartChar: greater
Encoding: 62 62 34
Width: 503
Flags: W
LayerCount: 2
Fore
SplineSet
2 89 m 1,0,-1
 20 194 l 1,1,-1
 396 335 l 1,2,-1
 79 479 l 1,3,-1
 96 573 l 1,4,-1
 491 388 l 1,5,-1
 471 274 l 1,6,-1
 2 89 l 1,0,-1
EndSplineSet
Substitution2: "'rtla' Right to Left Alternates lookup 0 subtable" less
EndChar

StartChar: question
Encoding: 63 63 35
Width: 451
Flags: W
LayerCount: 2
Fore
SplineSet
125 642.5 m 128,-1,1
 187 698 187 698 284 698 c 0,2,3
 371 698 371 698 421.5 655.5 c 128,-1,4
 472 613 472 613 472 539 c 0,5,6
 472 499 472 499 457.5 467 c 128,-1,7
 443 435 443 435 422.5 411.5 c 128,-1,8
 402 388 402 388 368 356 c 0,9,10
 327 318 327 318 307 291.5 c 128,-1,11
 287 265 287 265 283 231 c 1,12,-1
 183 231 l 1,13,14
 190 287 190 287 214 323.5 c 128,-1,15
 238 360 238 360 280 401 c 0,16,17
 315 434 315 434 332 459 c 128,-1,18
 349 484 349 484 349 518 c 0,19,20
 349 586 349 586 265 586 c 0,21,22
 168 586 168 586 152 489 c 1,23,-1
 50 489 l 1,24,0
 63 587 63 587 125 642.5 c 128,-1,1
277 117.5 m 128,-1,26
 294 100 294 100 294 71 c 0,27,28
 294 37 294 37 272.5 14 c 128,-1,29
 251 -9 251 -9 219 -9 c 0,30,31
 191 -9 191 -9 174 9.5 c 128,-1,32
 157 28 157 28 157 57 c 0,33,34
 157 91 157 91 178.5 113 c 128,-1,35
 200 135 200 135 232 135 c 0,36,25
 260 135 260 135 277 117.5 c 128,-1,26
EndSplineSet
Substitution2: "<3,3> Small Caps in Latin lookup 11 subtable" question.sc
EndChar

StartChar: at
Encoding: 64 64 36
Width: 964
Flags: W
LayerCount: 2
Fore
SplineSet
751 653 m 128,-1,1
 839 605 839 605 887.5 520 c 128,-1,2
 936 435 936 435 936 327 c 0,3,4
 936 238 936 238 905.5 169 c 128,-1,5
 875 100 875 100 822 62 c 128,-1,6
 769 24 769 24 705 24 c 0,7,8
 658 24 658 24 630.5 44.5 c 128,-1,9
 603 65 603 65 600 105 c 2,10,-1
 600 123 l 1,11,12
 565 80 565 80 519 58 c 128,-1,13
 473 36 473 36 422 36 c 0,14,15
 368 36 368 36 323 61.5 c 128,-1,16
 278 87 278 87 251.5 133.5 c 128,-1,17
 225 180 225 180 225 239 c 0,18,19
 225 310 225 310 258 371.5 c 128,-1,20
 291 433 291 433 348.5 470 c 128,-1,21
 406 507 406 507 477 507 c 0,22,23
 516 507 516 507 547 494 c 128,-1,24
 578 481 578 481 596.5 464 c 128,-1,25
 615 447 615 447 619 436 c 1,26,-1
 627 496 l 1,27,-1
 739 496 l 1,28,-1
 691 152 l 2,29,30
 690 147 690 147 690 137 c 0,31,32
 690 99 690 99 727 99 c 0,33,34
 754 99 754 99 782 127.5 c 128,-1,35
 810 156 810 156 828 206 c 128,-1,36
 846 256 846 256 846 317 c 0,37,38
 846 403 846 403 809.5 471.5 c 128,-1,39
 773 540 773 540 703.5 579 c 128,-1,40
 634 618 634 618 538 618 c 0,41,42
 429 618 429 618 332.5 564.5 c 128,-1,43
 236 511 236 511 178 421 c 128,-1,44
 120 331 120 331 120 226 c 0,45,46
 120 142 120 142 159 75.5 c 128,-1,47
 198 9 198 9 268.5 -28.5 c 128,-1,48
 339 -66 339 -66 429 -66 c 0,49,50
 476 -66 476 -66 530 -50.5 c 128,-1,51
 584 -35 584 -35 628 -6 c 1,52,-1
 661 -81 l 1,53,54
 614 -113 614 -113 545 -132.5 c 128,-1,55
 476 -152 476 -152 416 -152 c 0,56,57
 303 -152 303 -152 215.5 -104.5 c 128,-1,58
 128 -57 128 -57 79 27 c 128,-1,59
 30 111 30 111 30 217 c 0,60,61
 30 349 30 349 101.5 460 c 128,-1,62
 173 571 173 571 292.5 636 c 128,-1,63
 412 701 412 701 549 701 c 0,64,0
 663 701 663 701 751 653 c 128,-1,1
415 383 m 128,-1,66
 384 363 384 363 366 328.5 c 128,-1,67
 348 294 348 294 348 254 c 0,68,69
 348 204 348 204 375 171 c 128,-1,70
 402 138 402 138 448 138 c 0,71,72
 489 138 489 138 521.5 159.5 c 128,-1,73
 554 181 554 181 572 216 c 128,-1,74
 590 251 590 251 590 292 c 0,75,76
 590 340 590 340 561.5 371.5 c 128,-1,77
 533 403 533 403 484 403 c 0,78,65
 446 403 446 403 415 383 c 128,-1,66
EndSplineSet
EndChar

StartChar: A
Encoding: 65 65 37
Width: 747
Flags: W
LayerCount: 2
Fore
SplineSet
550 0 m 1,0,-1
 513 148 l 1,1,-1
 170 148 l 1,2,-1
 84 0 l 1,3,-1
 -54 0 l 1,4,-1
 368 700 l 1,5,-1
 506 700 l 1,6,-1
 694 0 l 1,7,-1
 550 0 l 1,0,-1
237 263 m 1,8,-1
 485 263 l 1,9,-1
 411 561 l 1,10,-1
 237 263 l 1,8,-1
EndSplineSet
Substitution2: "<11,2> Diagonal Fractions lookup 7 nested-substitutions 0 subtable" ordfeminine
Substitution2: "<11,2> Diagonal Fractions lookup 5 nested-substitutions 0 subtable" ordfeminine
EndChar

StartChar: B
Encoding: 66 66 38
Width: 710
Flags: W
LayerCount: 2
Fore
SplineSet
623 321.5 m 128,-1,1
 654 283 654 283 654 227 c 0,2,3
 654 158 654 158 616.5 107 c 128,-1,4
 579 56 579 56 510.5 28 c 128,-1,5
 442 0 442 0 352 0 c 2,6,-1
 33 0 l 1,7,-1
 173 700 l 1,8,-1
 484 700 l 2,9,10
 583 700 583 700 638 661 c 128,-1,11
 693 622 693 622 693 553 c 0,12,13
 693 487 693 487 650 437 c 128,-1,14
 607 387 607 387 536 370 c 1,15,0
 592 360 592 360 623 321.5 c 128,-1,1
514.5 442 m 128,-1,17
 550 470 550 470 550 516 c 0,18,19
 550 549 550 549 525.5 566.5 c 128,-1,20
 501 584 501 584 455 584 c 2,21,-1
 283 584 l 1,22,-1
 249 414 l 1,23,-1
 420 414 l 2,24,16
 479 414 479 414 514.5 442 c 128,-1,17
474.5 145 m 128,-1,26
 517 174 517 174 517 225 c 0,27,28
 517 261 517 261 486 281 c 128,-1,29
 455 301 455 301 398 301 c 2,30,-1
 227 301 l 1,31,-1
 190 116 l 1,32,-1
 359 116 l 2,33,25
 432 116 432 116 474.5 145 c 128,-1,26
EndSplineSet
EndChar

StartChar: C
Encoding: 67 67 39
Width: 723
Flags: W
LayerCount: 2
Fore
SplineSet
601.5 679 m 128,-1,1
 670 649 670 649 717 596 c 1,2,-1
 629 498 l 1,3,4
 595 541 595 541 547.5 565 c 128,-1,5
 500 589 500 589 449 589 c 0,6,7
 379 589 379 589 319 554.5 c 128,-1,8
 259 520 259 520 223.5 461 c 128,-1,9
 188 402 188 402 188 332 c 0,10,11
 188 272 188 272 215.5 222.5 c 128,-1,12
 243 173 243 173 291.5 144.5 c 128,-1,13
 340 116 340 116 400 116 c 0,14,15
 450 116 450 116 502.5 138 c 128,-1,16
 555 160 555 160 598 199 c 1,17,-1
 669 111 l 1,18,19
 608 55 608 55 531.5 22.5 c 128,-1,20
 455 -10 455 -10 381 -10 c 0,21,22
 286 -10 286 -10 210.5 33.5 c 128,-1,23
 135 77 135 77 92.5 152 c 128,-1,24
 50 227 50 227 50 320 c 0,25,26
 50 427 50 427 105.5 516 c 128,-1,27
 161 605 161 605 254.5 657 c 128,-1,28
 348 709 348 709 458 709 c 0,29,0
 533 709 533 709 601.5 679 c 128,-1,1
EndSplineSet
EndChar

StartChar: D
Encoding: 68 68 40
Width: 775
Flags: W
LayerCount: 2
Fore
SplineSet
613.5 662.5 m 128,-1,1
 685 625 685 625 724 557.5 c 128,-1,2
 763 490 763 490 763 403 c 0,3,4
 763 290 763 290 706 198 c 128,-1,5
 649 106 649 106 551.5 53 c 128,-1,6
 454 0 454 0 337 0 c 2,7,-1
 34 0 l 1,8,-1
 173 700 l 1,9,-1
 447 700 l 2,10,0
 542 700 542 700 613.5 662.5 c 128,-1,1
600 487.5 m 128,-1,12
 575 532 575 532 530.5 557 c 128,-1,13
 486 582 486 582 428 582 c 2,14,-1
 284 582 l 1,15,-1
 191 118 l 1,16,-1
 362 118 l 2,17,18
 432 118 432 118 492.5 153 c 128,-1,19
 553 188 553 188 589 249 c 128,-1,20
 625 310 625 310 625 386 c 0,21,11
 625 443 625 443 600 487.5 c 128,-1,12
EndSplineSet
EndChar

StartChar: E
Encoding: 69 69 41
Width: 661
Flags: W
LayerCount: 2
Fore
SplineSet
663 583 m 1,0,-1
 283 583 l 1,1,-1
 248 410 l 1,2,-1
 589 410 l 1,3,-1
 566 293 l 1,4,-1
 225 293 l 1,5,-1
 190 117 l 1,6,-1
 580 117 l 1,7,-1
 558 0 l 1,8,-1
 33 0 l 1,9,-1
 173 700 l 1,10,-1
 685 700 l 1,11,-1
 663 583 l 1,0,-1
EndSplineSet
EndChar

StartChar: F
Encoding: 70 70 42
Width: 582
Flags: W
LayerCount: 2
Fore
SplineSet
632 583 m 1,0,-1
 283 583 l 1,1,-1
 245 394 l 1,2,-1
 562 394 l 1,3,-1
 540 277 l 1,4,-1
 222 277 l 1,5,-1
 167 0 l 1,6,-1
 33 0 l 1,7,-1
 173 700 l 1,8,-1
 655 700 l 1,9,-1
 632 583 l 1,0,-1
EndSplineSet
EndChar

StartChar: G
Encoding: 71 71 43
Width: 759
Flags: W
LayerCount: 2
Fore
SplineSet
452 393 m 1,0,-1
 726 393 l 1,1,-1
 664 82 l 1,2,3
 603 40 603 40 529.5 15 c 128,-1,4
 456 -10 456 -10 386 -10 c 0,5,6
 290 -10 290 -10 213 33.5 c 128,-1,7
 136 77 136 77 93 152 c 128,-1,8
 50 227 50 227 50 320 c 0,9,10
 50 427 50 427 106 516 c 128,-1,11
 162 605 162 605 257.5 657 c 128,-1,12
 353 709 353 709 466 709 c 0,13,14
 541 709 541 709 609 682 c 128,-1,15
 677 655 677 655 725 608 c 1,16,-1
 639 509 l 1,17,18
 603 546 603 546 555.5 567.5 c 128,-1,19
 508 589 508 589 455 589 c 0,20,21
 383 589 383 589 321.5 554 c 128,-1,22
 260 519 260 519 223.5 459.5 c 128,-1,23
 187 400 187 400 187 329 c 0,24,25
 187 268 187 268 215.5 218 c 128,-1,26
 244 168 244 168 294 139.5 c 128,-1,27
 344 111 344 111 407 111 c 0,28,29
 442 111 442 111 481 122.5 c 128,-1,30
 520 134 520 134 557 154 c 1,31,-1
 580 271 l 1,32,-1
 428 271 l 1,33,-1
 452 393 l 1,0,-1
EndSplineSet
EndChar

StartChar: H
Encoding: 72 72 44
Width: 846
Flags: W
LayerCount: 2
Fore
SplineSet
684 700 m 1,0,-1
 819 700 l 1,1,-1
 679 0 l 1,2,-1
 544 0 l 1,3,-1
 601 284 l 1,4,-1
 252 284 l 1,5,-1
 195 0 l 1,6,-1
 61 0 l 1,7,-1
 201 700 l 1,8,-1
 335 700 l 1,9,-1
 275 401 l 1,10,-1
 624 401 l 1,11,-1
 684 700 l 1,0,-1
EndSplineSet
EndChar

StartChar: I
Encoding: 73 73 45
Width: 306
Flags: W
LayerCount: 2
Fore
SplineSet
307 700 m 1,0,-1
 167 0 l 1,1,-1
 33 0 l 1,2,-1
 173 700 l 1,3,-1
 307 700 l 1,0,-1
EndSplineSet
EndChar

StartChar: J
Encoding: 74 74 46
Width: 509
Flags: W
LayerCount: 2
Fore
SplineSet
524 700 m 1,0,-1
 428 220 l 2,1,2
 406 113 406 113 334.5 53.5 c 128,-1,3
 263 -6 263 -6 158 -6 c 0,4,5
 29 -6 29 -6 -37 99 c 1,6,-1
 45 199 l 1,7,8
 72 162 72 162 108 141.5 c 128,-1,9
 144 121 144 121 179 121 c 0,10,11
 223 121 223 121 253 147.5 c 128,-1,12
 283 174 283 174 293 223 c 2,13,-1
 365 581 l 1,14,-1
 125 581 l 1,15,-1
 147 700 l 1,16,-1
 524 700 l 1,0,-1
EndSplineSet
EndChar

StartChar: K
Encoding: 75 75 47
Width: 725
Flags: W
LayerCount: 2
Fore
SplineSet
785 700 m 1,0,-1
 456 397 l 1,1,-1
 657 0 l 1,2,-1
 500 0 l 1,3,-1
 345 294 l 1,4,-1
 199 159 l 1,5,-1
 167 0 l 1,6,-1
 33 0 l 1,7,-1
 173 700 l 1,8,-1
 307 700 l 1,9,-1
 238 357 l 1,10,-1
 618 700 l 1,11,-1
 785 700 l 1,0,-1
EndSplineSet
EndChar

StartChar: L
Encoding: 76 76 48
Width: 541
Flags: W
LayerCount: 2
Fore
SplineSet
190 121 m 1,0,-1
 491 121 l 1,1,-1
 468 0 l 1,2,-1
 33 0 l 1,3,-1
 173 700 l 1,4,-1
 307 700 l 1,5,-1
 190 121 l 1,0,-1
EndSplineSet
EndChar

StartChar: M
Encoding: 77 77 49
Width: 940
Flags: W
LayerCount: 2
Fore
SplineSet
789 700 m 1,0,-1
 937 700 l 1,1,-1
 801 0 l 1,2,-1
 683 0 l 1,3,-1
 784 513 l 1,4,-1
 474 72 l 1,5,-1
 392 72 l 1,6,-1
 257 513 l 1,7,-1
 156 0 l 1,8,-1
 37 0 l 1,9,-1
 173 700 l 1,10,-1
 321 700 l 1,11,-1
 465 241 l 1,12,-1
 789 700 l 1,0,-1
EndSplineSet
EndChar

StartChar: N
Encoding: 78 78 50
Width: 790
Flags: W
LayerCount: 2
Fore
SplineSet
661 700 m 1,0,-1
 790 700 l 1,1,-1
 650 0 l 1,2,-1
 523 0 l 1,3,-1
 261 482 l 1,4,-1
 164 0 l 1,5,-1
 33 0 l 1,6,-1
 173 700 l 1,7,-1
 300 700 l 1,8,-1
 563 216 l 1,9,-1
 661 700 l 1,0,-1
EndSplineSet
EndChar

StartChar: O
Encoding: 79 79 51
Width: 815
Flags: W
LayerCount: 2
Fore
SplineSet
635.5 666.5 m 128,-1,1
 713 624 713 624 756.5 549 c 128,-1,2
 800 474 800 474 800 381 c 0,3,4
 800 274 800 274 744 184.5 c 128,-1,5
 688 95 688 95 593.5 42.5 c 128,-1,6
 499 -10 499 -10 389 -10 c 0,7,8
 292 -10 292 -10 214.5 33.5 c 128,-1,9
 137 77 137 77 93.5 152 c 128,-1,10
 50 227 50 227 50 320 c 0,11,12
 50 427 50 427 105.5 516.5 c 128,-1,13
 161 606 161 606 255.5 657.5 c 128,-1,14
 350 709 350 709 461 709 c 0,15,0
 558 709 558 709 635.5 666.5 c 128,-1,1
321 554 m 128,-1,17
 260 519 260 519 223.5 459.5 c 128,-1,18
 187 400 187 400 187 330 c 0,19,20
 187 269 187 269 215.5 219 c 128,-1,21
 244 169 244 169 293 140 c 128,-1,22
 342 111 342 111 402 111 c 0,23,24
 470 111 470 111 529.5 146 c 128,-1,25
 589 181 589 181 625 241 c 128,-1,26
 661 301 661 301 661 371 c 0,27,28
 661 432 661 432 633.5 482 c 128,-1,29
 606 532 606 532 558 560.5 c 128,-1,30
 510 589 510 589 451 589 c 0,31,16
 382 589 382 589 321 554 c 128,-1,17
EndSplineSet
Substitution2: "<11,2> Diagonal Fractions lookup 7 nested-substitutions 0 subtable" ordmasculine
Substitution2: "<11,2> Diagonal Fractions lookup 5 nested-substitutions 0 subtable" ordmasculine
EndChar

StartChar: P
Encoding: 80 80 52
Width: 688
Flags: W
LayerCount: 2
Fore
SplineSet
634 650 m 128,-1,1
 695 600 695 600 695 507 c 0,2,3
 695 417 695 417 654.5 349 c 128,-1,4
 614 281 614 281 538.5 243.5 c 128,-1,5
 463 206 463 206 361 206 c 2,6,-1
 208 206 l 1,7,-1
 167 0 l 1,8,-1
 33 0 l 1,9,-1
 173 700 l 1,10,-1
 459 700 l 2,11,0
 573 700 573 700 634 650 c 128,-1,1
515 365 m 128,-1,13
 564 406 564 406 564 482 c 0,14,15
 564 532 564 532 529.5 557.5 c 128,-1,16
 495 583 495 583 431 583 c 2,17,-1
 283 583 l 1,18,-1
 231 324 l 1,19,-1
 377 324 l 2,20,12
 466 324 466 324 515 365 c 128,-1,13
EndSplineSet
EndChar

StartChar: Q
Encoding: 81 81 53
Width: 818
Flags: W
LayerCount: 2
Fore
SplineSet
814 -80 m 1,0,1
 773 -116 773 -116 720.5 -136.5 c 128,-1,2
 668 -157 668 -157 618 -157 c 0,3,4
 552 -157 552 -157 496 -118.5 c 128,-1,5
 440 -80 440 -80 401 -10 c 1,6,-1
 389 -10 l 2,7,8
 292 -10 292 -10 214.5 33.5 c 128,-1,9
 137 77 137 77 93.5 152 c 128,-1,10
 50 227 50 227 50 320 c 0,11,12
 50 427 50 427 105.5 516.5 c 128,-1,13
 161 606 161 606 255.5 657.5 c 128,-1,14
 350 709 350 709 461 709 c 0,15,16
 558 709 558 709 635.5 666.5 c 128,-1,17
 713 624 713 624 756.5 549 c 128,-1,18
 800 474 800 474 800 381 c 0,19,20
 800 298 800 298 765.5 224.5 c 128,-1,21
 731 151 731 151 670.5 96.5 c 128,-1,22
 610 42 610 42 532 14 c 1,23,24
 583 -45 583 -45 637 -45 c 0,25,26
 692 -45 692 -45 766 11 c 1,27,-1
 814 -80 l 1,0,1
215.5 219 m 128,-1,29
 244 169 244 169 293 140 c 128,-1,30
 342 111 342 111 402 111 c 0,31,32
 470 111 470 111 529.5 146 c 128,-1,33
 589 181 589 181 625 241 c 128,-1,34
 661 301 661 301 661 371 c 0,35,36
 661 432 661 432 633.5 482 c 128,-1,37
 606 532 606 532 558 560.5 c 128,-1,38
 510 589 510 589 451 589 c 0,39,40
 382 589 382 589 321 554 c 128,-1,41
 260 519 260 519 223.5 459.5 c 128,-1,42
 187 400 187 400 187 330 c 0,43,28
 187 269 187 269 215.5 219 c 128,-1,29
EndSplineSet
EndChar

StartChar: R
Encoding: 82 82 54
Width: 723
Flags: W
LayerCount: 2
Fore
SplineSet
657 335 m 128,-1,1
 607 263 607 263 517 230 c 1,2,-1
 623 0 l 1,3,-1
 471 0 l 1,4,-1
 392 207 l 1,5,6
 384 206 384 206 367 206 c 2,7,-1
 208 206 l 1,8,-1
 167 0 l 1,9,-1
 33 0 l 1,10,-1
 173 700 l 1,11,-1
 465 700 l 2,12,13
 582 700 582 700 644.5 649.5 c 128,-1,14
 707 599 707 599 707 506 c 0,15,0
 707 407 707 407 657 335 c 128,-1,1
527 365 m 128,-1,17
 576 406 576 406 576 482 c 0,18,19
 576 532 576 532 541.5 557.5 c 128,-1,20
 507 583 507 583 442 583 c 2,21,-1
 283 583 l 1,22,-1
 231 324 l 1,23,-1
 389 324 l 2,24,16
 478 324 478 324 527 365 c 128,-1,17
EndSplineSet
EndChar

StartChar: S
Encoding: 83 83 55
Width: 619
Flags: W
LayerCount: 2
Fore
SplineSet
493 691 m 128,-1,1
 557 671 557 671 606 636 c 1,2,-1
 541 520 l 1,3,4
 491 553 491 553 436 570.5 c 128,-1,5
 381 588 381 588 338 588 c 0,6,7
 288 588 288 588 257.5 568.5 c 128,-1,8
 227 549 227 549 227 514 c 0,9,10
 227 487 227 487 245 469 c 128,-1,11
 263 451 263 451 289.5 440 c 128,-1,12
 316 429 316 429 364 414 c 0,13,14
 428 394 428 394 468 375 c 128,-1,15
 508 356 508 356 536.5 320.5 c 128,-1,16
 565 285 565 285 565 228 c 0,17,18
 565 155 565 155 527 101.5 c 128,-1,19
 489 48 489 48 423 19.5 c 128,-1,20
 357 -9 357 -9 275 -9 c 0,21,22
 194 -9 194 -9 119 21.5 c 128,-1,23
 44 52 44 52 -9 104 c 1,24,-1
 58 218 l 1,25,26
 106 169 106 169 169 141 c 128,-1,27
 232 113 232 113 289 113 c 0,28,29
 349 113 349 113 383 136.5 c 128,-1,30
 417 160 417 160 417 202 c 0,31,32
 417 229 417 229 399 246.5 c 128,-1,33
 381 264 381 264 353.5 275.5 c 128,-1,34
 326 287 326 287 279 301 c 0,35,36
 215 320 215 320 174.5 338.5 c 128,-1,37
 134 357 134 357 105.5 392 c 128,-1,38
 77 427 77 427 77 484 c 0,39,40
 77 551 77 551 113 603 c 128,-1,41
 149 655 149 655 213.5 683 c 128,-1,42
 278 711 278 711 360 711 c 0,43,0
 429 711 429 711 493 691 c 128,-1,1
EndSplineSet
EndChar

StartChar: T
Encoding: 84 84 56
Width: 588
Flags: W
LayerCount: 2
Fore
SplineSet
666 700 m 1,0,-1
 644 581 l 1,1,-1
 425 581 l 1,2,-1
 307 0 l 1,3,-1
 173 0 l 1,4,-1
 291 581 l 1,5,-1
 73 581 l 1,6,-1
 95 700 l 1,7,-1
 666 700 l 1,0,-1
EndSplineSet
EndChar

StartChar: U
Encoding: 85 85 57
Width: 763
Flags: W
LayerCount: 2
Fore
SplineSet
696 292 m 2,0,1
 668 153 668 153 574 73.5 c 128,-1,2
 480 -6 480 -6 338 -6 c 0,3,4
 213 -6 213 -6 142 55 c 128,-1,5
 71 116 71 116 71 222 c 0,6,7
 71 258 71 258 78 292 c 2,8,-1
 159 700 l 1,9,-1
 293 700 l 1,10,-1
 212 292 l 2,11,12
 207 271 207 271 207 244 c 0,13,14
 207 183 207 183 245.5 148.5 c 128,-1,15
 284 114 284 114 352 114 c 0,16,17
 432 114 432 114 488 161 c 128,-1,18
 544 208 544 208 561 292 c 2,19,-1
 643 700 l 1,20,-1
 778 700 l 1,21,-1
 696 292 l 2,0,1
EndSplineSet
EndChar

StartChar: V
Encoding: 86 86 58
Width: 701
Flags: W
LayerCount: 2
Fore
SplineSet
646 700 m 1,0,-1
 785 700 l 1,1,-1
 389 0 l 1,2,-1
 250 0 l 1,3,-1
 89 700 l 1,4,-1
 233 700 l 1,5,-1
 346 145 l 1,6,-1
 646 700 l 1,0,-1
EndSplineSet
EndChar

StartChar: W
Encoding: 87 87 59
Width: 1048
Flags: W
LayerCount: 2
Fore
SplineSet
1006 700 m 1,0,-1
 1144 700 l 1,1,-1
 796 0 l 1,2,-1
 657 0 l 1,3,-1
 590 531 l 1,4,-1
 343 0 l 1,5,-1
 205 0 l 1,6,-1
 89 700 l 1,7,-1
 233 700 l 1,8,-1
 301 145 l 1,9,-1
 553 699 l 1,10,-1
 685 700 l 1,11,-1
 754 145 l 1,12,-1
 1006 700 l 1,0,-1
EndSplineSet
EndChar

StartChar: X
Encoding: 88 88 60
Width: 712
Flags: W
LayerCount: 2
Fore
SplineSet
736 700 m 1,0,-1
 446 365 l 1,1,-1
 641 0 l 1,2,-1
 480 0 l 1,3,-1
 344 251 l 1,4,-1
 124 0 l 1,5,-1
 -33 0 l 1,6,-1
 279 358 l 1,7,-1
 99 700 l 1,8,-1
 256 700 l 1,9,-1
 377 470 l 1,10,-1
 578 700 l 1,11,-1
 736 700 l 1,0,-1
EndSplineSet
EndChar

StartChar: Y
Encoding: 89 89 61
Width: 649
Flags: W
LayerCount: 2
Fore
SplineSet
736 700 m 1,0,-1
 403 231 l 1,1,-1
 366 0 l 1,2,-1
 231 0 l 1,3,-1
 269 231 l 1,4,-1
 86 700 l 1,5,-1
 222 700 l 1,6,-1
 357 367 l 1,7,-1
 600 700 l 1,8,-1
 736 700 l 1,0,-1
EndSplineSet
EndChar

StartChar: Z
Encoding: 90 90 62
Width: 680
Flags: W
LayerCount: 2
Fore
SplineSet
702 700 m 1,0,-1
 687 606 l 1,1,-1
 196 118 l 1,2,-1
 610 118 l 1,3,-1
 592 0 l 1,4,-1
 -7 0 l 1,5,-1
 8 94 l 1,6,-1
 500 582 l 1,7,-1
 103 582 l 1,8,-1
 121 700 l 1,9,-1
 702 700 l 1,0,-1
EndSplineSet
EndChar

StartChar: bracketleft
Encoding: 91 91 63
Width: 337
Flags: W
LayerCount: 2
Fore
SplineSet
414 742 m 1,0,-1
 393 638 l 1,1,-1
 270 638 l 1,2,-1
 137 -20 l 1,3,-1
 260 -20 l 1,4,-1
 240 -124 l 1,5,-1
 0 -124 l 1,6,-1
 174 742 l 1,7,-1
 414 742 l 1,0,-1
EndSplineSet
Substitution2: "'rtla' Right to Left Alternates lookup 0 subtable" bracketright
EndChar

StartChar: backslash
Encoding: 92 92 64
Width: 662
Flags: W
LayerCount: 2
Fore
SplineSet
86 815 m 1,0,-1
 197 815 l 1,1,-1
 570 -115 l 1,2,-1
 459 -115 l 1,3,-1
 86 815 l 1,0,-1
EndSplineSet
EndChar

StartChar: bracketright
Encoding: 93 93 65
Width: 399
Flags: W
LayerCount: 2
Fore
SplineSet
33 -124 m 1,0,-1
 54 -20 l 1,1,-1
 177 -20 l 1,2,-1
 310 638 l 1,3,-1
 187 638 l 1,4,-1
 207 742 l 1,5,-1
 447 742 l 1,6,-1
 273 -124 l 1,7,-1
 33 -124 l 1,0,-1
EndSplineSet
Substitution2: "'rtla' Right to Left Alternates lookup 0 subtable" bracketleft
EndChar

StartChar: asciicircum
Encoding: 94 94 66
Width: 548
Flags: W
LayerCount: 2
Fore
SplineSet
488 135 m 1,0,-1
 396 135 l 1,1,-1
 315 445 l 1,2,-1
 106 135 l 1,3,-1
 9 135 l 1,4,-1
 273 525 l 1,5,-1
 380 525 l 1,6,-1
 488 135 l 1,0,-1
EndSplineSet
EndChar

StartChar: underscore
Encoding: 95 95 67
Width: 572
Flags: W
LayerCount: 2
Fore
SplineSet
492 -126 m 1,0,-1
 477 -204 l 1,1,-1
 -94 -204 l 1,2,-1
 -79 -126 l 1,3,-1
 492 -126 l 1,0,-1
EndSplineSet
EndChar

StartChar: a
Encoding: 97 97 69
Width: 681
Flags: W
LayerCount: 2
Fore
SplineSet
136.5 24 m 128,-1,1
 87 54 87 54 59.5 108.5 c 128,-1,2
 32 163 32 163 32 233 c 0,3,4
 32 319 32 319 70 389 c 128,-1,5
 108 459 108 459 174 499.5 c 128,-1,6
 240 540 240 540 321 540 c 0,7,8
 388 540 388 540 434.5 511.5 c 128,-1,9
 481 483 481 483 502 429 c 1,10,-1
 524 535 l 1,11,-1
 654 535 l 1,12,-1
 547 0 l 1,13,-1
 418 0 l 1,14,-1
 433 73 l 1,15,16
 397 35 397 35 350 14.5 c 128,-1,17
 303 -6 303 -6 250 -6 c 0,18,0
 186 -6 186 -6 136.5 24 c 128,-1,1
385 126 m 128,-1,20
 425 151 425 151 448 193.5 c 128,-1,21
 471 236 471 236 471 286 c 0,22,23
 471 349 471 349 435 387.5 c 128,-1,24
 399 426 399 426 339 426 c 0,25,26
 291 426 291 426 251 401 c 128,-1,27
 211 376 211 376 187.5 333 c 128,-1,28
 164 290 164 290 164 240 c 0,29,30
 164 177 164 177 200.5 139 c 128,-1,31
 237 101 237 101 297 101 c 0,32,19
 345 101 345 101 385 126 c 128,-1,20
EndSplineSet
Substitution2: "<3,3> Small Caps in Latin lookup 11 subtable" a.sc
Substitution2: "<11,2> Diagonal Fractions lookup 7 nested-substitutions 0 subtable" ordfeminine
Substitution2: "<11,2> Diagonal Fractions lookup 5 nested-substitutions 0 subtable" ordfeminine
EndChar

StartChar: b
Encoding: 98 98 70
Width: 687
Flags: W
LayerCount: 2
Fore
SplineSet
550 509 m 128,-1,1
 600 479 600 479 627.5 424.5 c 128,-1,2
 655 370 655 370 655 300 c 0,3,4
 655 214 655 214 617 144 c 128,-1,5
 579 74 579 74 513 33.5 c 128,-1,6
 447 -7 447 -7 366 -7 c 0,7,8
 298 -7 298 -7 252 21.5 c 128,-1,9
 206 50 206 50 184 104 c 1,10,-1
 163 0 l 1,11,-1
 33 0 l 1,12,-1
 181 742 l 1,13,-1
 310 742 l 1,14,-1
 254 460 l 1,15,16
 290 498 290 498 336.5 518.5 c 128,-1,17
 383 539 383 539 436 539 c 0,18,0
 500 539 500 539 550 509 c 128,-1,1
302 407 m 128,-1,20
 262 382 262 382 239 339.5 c 128,-1,21
 216 297 216 297 216 247 c 0,22,23
 216 184 216 184 252 145.5 c 128,-1,24
 288 107 288 107 348 107 c 0,25,26
 395 107 395 107 435.5 132 c 128,-1,27
 476 157 476 157 499.5 200 c 128,-1,28
 523 243 523 243 523 293 c 0,29,30
 523 356 523 356 486 394 c 128,-1,31
 449 432 449 432 390 432 c 0,32,19
 342 432 342 432 302 407 c 128,-1,20
EndSplineSet
Substitution2: "<3,3> Small Caps in Latin lookup 11 subtable" b.sc
EndChar

StartChar: c
Encoding: 99 99 71
Width: 583
Flags: W
LayerCount: 2
Fore
SplineSet
149.5 25.5 m 128,-1,1
 94 56 94 56 63.5 111.5 c 128,-1,2
 33 167 33 167 33 239 c 0,3,4
 33 326 33 326 72 394.5 c 128,-1,5
 111 463 111 463 179.5 501 c 128,-1,6
 248 539 248 539 333 539 c 0,7,8
 406 539 406 539 461 513.5 c 128,-1,9
 516 488 516 488 549 441 c 1,10,-1
 462 366 l 1,11,12
 414 425 414 425 328 425 c 0,13,14
 282 425 282 425 244.5 402.5 c 128,-1,15
 207 380 207 380 185.5 340 c 128,-1,16
 164 300 164 300 164 248 c 0,17,18
 164 185 164 185 200 146 c 128,-1,19
 236 107 236 107 295 107 c 0,20,21
 391 107 391 107 445 170 c 1,22,-1
 520 103 l 1,23,24
 479 51 479 51 417.5 23 c 128,-1,25
 356 -5 356 -5 278 -5 c 0,26,0
 205 -5 205 -5 149.5 25.5 c 128,-1,1
EndSplineSet
Substitution2: "<3,3> Small Caps in Latin lookup 11 subtable" c.sc
EndChar

StartChar: d
Encoding: 100 100 72
Width: 686
Flags: W
LayerCount: 2
Fore
SplineSet
136.5 24 m 128,-1,1
 87 54 87 54 59.5 108.5 c 128,-1,2
 32 163 32 163 32 233 c 0,3,4
 32 319 32 319 70 389 c 128,-1,5
 108 459 108 459 174 499.5 c 128,-1,6
 240 540 240 540 321 540 c 0,7,8
 388 540 388 540 434.5 511.5 c 128,-1,9
 481 483 481 483 502 429 c 1,10,-1
 566 742 l 1,11,-1
 695 742 l 1,12,-1
 547 0 l 1,13,-1
 418 0 l 1,14,-1
 433 73 l 1,15,16
 397 35 397 35 350 14.5 c 128,-1,17
 303 -6 303 -6 250 -6 c 0,18,0
 186 -6 186 -6 136.5 24 c 128,-1,1
385 126 m 128,-1,20
 425 151 425 151 448 193.5 c 128,-1,21
 471 236 471 236 471 286 c 0,22,23
 471 349 471 349 435 387.5 c 128,-1,24
 399 426 399 426 339 426 c 0,25,26
 291 426 291 426 251 401 c 128,-1,27
 211 376 211 376 187.5 333 c 128,-1,28
 164 290 164 290 164 240 c 0,29,30
 164 177 164 177 200.5 139 c 128,-1,31
 237 101 237 101 297 101 c 0,32,19
 345 101 345 101 385 126 c 128,-1,20
EndSplineSet
Substitution2: "<3,3> Small Caps in Latin lookup 11 subtable" d.sc
EndChar

StartChar: e
Encoding: 101 101 73
Width: 608
Flags: W
LayerCount: 2
Fore
SplineSet
513.5 476.5 m 128,-1,1
 578 414 578 414 578 307 c 0,2,3
 578 265 578 265 568 222 c 1,4,-1
 162 222 l 1,5,6
 167 164 167 164 205 131 c 128,-1,7
 243 98 243 98 307 98 c 0,8,9
 383 98 383 98 447 146 c 1,10,-1
 508 67 l 1,11,12
 424 -6 424 -6 303 -6 c 0,13,14
 222 -6 222 -6 161 24 c 128,-1,15
 100 54 100 54 66.5 109.5 c 128,-1,16
 33 165 33 165 33 238 c 0,17,18
 33 323 33 323 72.5 391.5 c 128,-1,19
 112 460 112 460 181.5 499.5 c 128,-1,20
 251 539 251 539 337 539 c 0,21,0
 449 539 449 539 513.5 476.5 c 128,-1,1
430 402.5 m 128,-1,23
 399 436 399 436 340 436 c 0,24,25
 282 436 282 436 236.5 401 c 128,-1,26
 191 366 191 366 172 309 c 1,27,-1
 459 309 l 1,28,22
 461 369 461 369 430 402.5 c 128,-1,23
EndSplineSet
Substitution2: "<3,3> Small Caps in Latin lookup 11 subtable" e.sc
EndChar

StartChar: f
Encoding: 102 102 74
Width: 353
Flags: W
LayerCount: 2
Fore
SplineSet
328 616 m 128,-1,1
 302 596 302 596 295 562 c 2,2,-1
 285 513 l 1,3,-1
 418 513 l 1,4,-1
 401 418 l 1,5,-1
 266 418 l 1,6,-1
 182 0 l 1,7,-1
 52 0 l 1,8,-1
 136 418 l 1,9,-1
 66 418 l 1,10,-1
 84 513 l 1,11,-1
 155 513 l 1,12,-1
 166 570 l 2,13,14
 184 657 184 657 245 702.5 c 128,-1,15
 306 748 306 748 383 748 c 0,16,17
 439 748 439 748 484 724 c 1,18,-1
 448 621 l 1,19,20
 434 627 434 627 416.5 631.5 c 128,-1,21
 399 636 399 636 387 636 c 0,22,0
 354 636 354 636 328 616 c 128,-1,1
EndSplineSet
Substitution2: "<3,3> Small Caps in Latin lookup 11 subtable" f.sc
EndChar

StartChar: g
Encoding: 103 103 75
Width: 645
Flags: W
LayerCount: 2
Fore
SplineSet
-9 -125 m 1,1,-1
 49 -36 l 1,2,3
 118 -90 118 -90 211 -90 c 0,4,5
 287 -90 287 -90 333 -59 c 128,-1,6
 379 -28 379 -28 393 31 c 2,7,-1
 410 98 l 1,8,9
 375 63 375 63 332 45 c 128,-1,10
 289 27 289 27 240 27 c 0,11,12
 180 27 180 27 133.5 55 c 128,-1,13
 87 83 87 83 61 134 c 128,-1,14
 35 185 35 185 35 250 c 0,15,16
 35 331 35 331 71 397.5 c 128,-1,17
 107 464 107 464 169 502 c 128,-1,18
 231 540 231 540 307 540 c 0,19,20
 370 540 370 540 413.5 514 c 128,-1,21
 457 488 457 488 476 439 c 1,22,-1
 497 535 l 1,23,-1
 627 535 l 1,24,-1
 521 20 l 2,25,26
 499 -86 499 -86 420.5 -142.5 c 128,-1,27
 342 -199 342 -199 214 -199 c 0,28,0
 96 -199 96 -199 -9 -125 c 1,1,-1
367.5 156.5 m 128,-1,30
 404 179 404 179 425.5 217 c 128,-1,31
 447 255 447 255 447 300 c 0,32,33
 447 357 447 357 414 391.5 c 128,-1,34
 381 426 381 426 326 426 c 0,35,36
 283 426 283 426 246.5 403 c 128,-1,37
 210 380 210 380 188.5 341.5 c 128,-1,38
 167 303 167 303 167 257 c 0,39,40
 167 201 167 201 200 167.5 c 128,-1,41
 233 134 233 134 288 134 c 0,42,29
 331 134 331 134 367.5 156.5 c 128,-1,30
EndSplineSet
Substitution2: "<3,3> Small Caps in Latin lookup 11 subtable" g.sc
EndChar

StartChar: h
Encoding: 104 104 76
Width: 674
Flags: W
LayerCount: 2
Fore
SplineSet
572.5 495.5 m 128,-1,1
 624 449 624 449 624 370 c 0,2,3
 624 344 624 344 618 315 c 2,4,-1
 555 0 l 1,5,-1
 424 0 l 1,6,-1
 483 296 l 2,7,8
 486 313 486 313 486 328 c 0,9,10
 486 373 486 373 458 399 c 128,-1,11
 430 425 430 425 380 425 c 0,12,13
 323 425 323 425 279 386 c 128,-1,14
 235 347 235 347 222 283 c 2,15,-1
 165 0 l 1,16,-1
 34 0 l 1,17,-1
 181 742 l 1,18,-1
 312 742 l 1,19,-1
 257 459 l 1,20,21
 320 542 320 542 431 542 c 0,22,0
 521 542 521 542 572.5 495.5 c 128,-1,1
EndSplineSet
Substitution2: "<3,3> Small Caps in Latin lookup 11 subtable" h.sc
EndChar

StartChar: k
Encoding: 107 107 79
Width: 623
Flags: W
LayerCount: 2
Fore
SplineSet
656 535 m 1,0,-1
 404 318 l 1,1,-1
 553 0 l 1,2,-1
 397 0 l 1,3,-1
 300 228 l 1,4,-1
 189 132 l 1,5,-1
 163 0 l 1,6,-1
 33 0 l 1,7,-1
 181 742 l 1,8,-1
 311 742 l 1,9,-1
 226 315 l 1,10,-1
 488 535 l 1,11,-1
 656 535 l 1,0,-1
EndSplineSet
Substitution2: "<3,3> Small Caps in Latin lookup 11 subtable" k.sc
EndChar

StartChar: l
Encoding: 108 108 80
Width: 302
Flags: W
LayerCount: 2
Fore
SplineSet
311 742 m 1,0,-1
 163 0 l 1,1,-1
 33 0 l 1,2,-1
 181 742 l 1,3,-1
 311 742 l 1,0,-1
EndSplineSet
Substitution2: "<3,3> Small Caps in Latin lookup 11 subtable" l.sc
EndChar

StartChar: m
Encoding: 109 109 81
Width: 1058
Flags: W
LayerCount: 2
Fore
SplineSet
956 495.5 m 128,-1,1
 1008 449 1008 449 1008 369 c 0,2,3
 1008 344 1008 344 1002 315 c 2,4,-1
 939 0 l 1,5,-1
 808 0 l 1,6,-1
 867 296 l 2,7,8
 870 313 870 313 870 328 c 0,9,10
 870 373 870 373 842 399 c 128,-1,11
 814 425 814 425 764 425 c 0,12,13
 706 425 706 425 663 386 c 128,-1,14
 620 347 620 347 606 283 c 2,15,-1
 549 0 l 1,16,-1
 418 0 l 1,17,-1
 477 296 l 2,18,19
 480 313 480 313 480 328 c 0,20,21
 480 373 480 373 452 399 c 128,-1,22
 424 425 424 425 374 425 c 0,23,24
 317 425 317 425 273.5 386 c 128,-1,25
 230 347 230 347 217 283 c 2,26,-1
 159 0 l 1,27,-1
 29 0 l 1,28,-1
 134 535 l 1,29,-1
 266 535 l 1,30,-1
 251 459 l 1,31,32
 314 542 314 542 425 542 c 0,33,34
 498 542 498 542 546.5 510.5 c 128,-1,35
 595 479 595 479 611 423 c 1,36,37
 686 542 686 542 814 542 c 0,38,0
 904 542 904 542 956 495.5 c 128,-1,1
EndSplineSet
Substitution2: "<3,3> Small Caps in Latin lookup 11 subtable" m.sc
EndChar

StartChar: n
Encoding: 110 110 82
Width: 668
Flags: W
LayerCount: 2
Fore
SplineSet
566.5 495.5 m 128,-1,1
 618 449 618 449 618 370 c 0,2,3
 618 344 618 344 612 315 c 2,4,-1
 549 0 l 1,5,-1
 418 0 l 1,6,-1
 477 296 l 2,7,8
 480 313 480 313 480 328 c 0,9,10
 480 373 480 373 452 399 c 128,-1,11
 424 425 424 425 374 425 c 0,12,13
 317 425 317 425 273.5 386 c 128,-1,14
 230 347 230 347 217 283 c 2,15,-1
 159 0 l 1,16,-1
 29 0 l 1,17,-1
 134 535 l 1,18,-1
 266 535 l 1,19,-1
 251 459 l 1,20,21
 314 542 314 542 425 542 c 0,22,0
 515 542 515 542 566.5 495.5 c 128,-1,1
EndSplineSet
Substitution2: "<3,3> Small Caps in Latin lookup 11 subtable" n.sc
EndChar

StartChar: o
Encoding: 111 111 83
Width: 634
Flags: W
LayerCount: 2
Fore
SplineSet
479.5 508.5 m 128,-1,1
 538 478 538 478 569.5 422 c 128,-1,2
 601 366 601 366 601 294 c 0,3,4
 601 207 601 207 560.5 139 c 128,-1,5
 520 71 520 71 449.5 33 c 128,-1,6
 379 -5 379 -5 290 -5 c 0,7,8
 213 -5 213 -5 154.5 26 c 128,-1,9
 96 57 96 57 64.5 112.5 c 128,-1,10
 33 168 33 168 33 241 c 0,11,12
 33 328 33 328 73 395.5 c 128,-1,13
 113 463 113 463 184 501 c 128,-1,14
 255 539 255 539 344 539 c 0,15,0
 421 539 421 539 479.5 508.5 c 128,-1,1
247.5 405 m 128,-1,17
 209 382 209 382 187 341 c 128,-1,18
 165 300 165 300 165 248 c 0,19,20
 165 183 165 183 202 143.5 c 128,-1,21
 239 104 239 104 300 104 c 0,22,23
 348 104 348 104 386 127 c 128,-1,24
 424 150 424 150 446 191 c 128,-1,25
 468 232 468 232 468 284 c 0,26,27
 468 348 468 348 431.5 388 c 128,-1,28
 395 428 395 428 334 428 c 0,29,16
 286 428 286 428 247.5 405 c 128,-1,17
EndSplineSet
Substitution2: "<3,3> Small Caps in Latin lookup 11 subtable" o.sc
Substitution2: "<11,2> Diagonal Fractions lookup 7 nested-substitutions 0 subtable" ordmasculine
Substitution2: "<11,2> Diagonal Fractions lookup 5 nested-substitutions 0 subtable" ordmasculine
EndChar

StartChar: p
Encoding: 112 112 84
Width: 686
Flags: W
LayerCount: 2
Fore
SplineSet
549.5 510 m 128,-1,1
 599 480 599 480 626.5 426 c 128,-1,2
 654 372 654 372 654 302 c 0,3,4
 654 216 654 216 616 145.5 c 128,-1,5
 578 75 578 75 512.5 34.5 c 128,-1,6
 447 -6 447 -6 366 -6 c 0,7,8
 298 -6 298 -6 252 22.5 c 128,-1,9
 206 51 206 51 184 106 c 1,10,-1
 123 -194 l 1,11,-1
 -6 -194 l 1,12,-1
 139 535 l 1,13,-1
 269 535 l 1,14,-1
 254 462 l 1,15,16
 290 499 290 499 336.5 519.5 c 128,-1,17
 383 540 383 540 436 540 c 0,18,0
 500 540 500 540 549.5 510 c 128,-1,1
302 409 m 128,-1,20
 262 384 262 384 239 341.5 c 128,-1,21
 216 299 216 299 216 248 c 0,22,23
 216 185 216 185 252 147 c 128,-1,24
 288 109 288 109 347 109 c 0,25,26
 395 109 395 109 435.5 134 c 128,-1,27
 476 159 476 159 499.5 201.5 c 128,-1,28
 523 244 523 244 523 294 c 0,29,30
 523 357 523 357 486.5 395.5 c 128,-1,31
 450 434 450 434 390 434 c 0,32,19
 342 434 342 434 302 409 c 128,-1,20
EndSplineSet
Substitution2: "<3,3> Small Caps in Latin lookup 11 subtable" p.sc
EndChar

StartChar: q
Encoding: 113 113 85
Width: 686
Flags: W
LayerCount: 2
Fore
SplineSet
136.5 24 m 128,-1,1
 87 54 87 54 59.5 108.5 c 128,-1,2
 32 163 32 163 32 233 c 0,3,4
 32 319 32 319 70 389 c 128,-1,5
 108 459 108 459 174 499.5 c 128,-1,6
 240 540 240 540 321 540 c 0,7,8
 388 540 388 540 434.5 511.5 c 128,-1,9
 481 483 481 483 502 429 c 1,10,-1
 524 535 l 1,11,-1
 654 535 l 1,12,-1
 508 -194 l 1,13,-1
 379 -194 l 1,14,-1
 433 73 l 1,15,16
 397 35 397 35 350 14.5 c 128,-1,17
 303 -6 303 -6 250 -6 c 0,18,0
 186 -6 186 -6 136.5 24 c 128,-1,1
385 126 m 128,-1,20
 425 151 425 151 448 193.5 c 128,-1,21
 471 236 471 236 471 286 c 0,22,23
 471 349 471 349 435 387.5 c 128,-1,24
 399 426 399 426 339 426 c 0,25,26
 291 426 291 426 251 401 c 128,-1,27
 211 376 211 376 187.5 333 c 128,-1,28
 164 290 164 290 164 240 c 0,29,30
 164 177 164 177 200.5 139 c 128,-1,31
 237 101 237 101 297 101 c 0,32,19
 345 101 345 101 385 126 c 128,-1,20
EndSplineSet
Substitution2: "<3,3> Small Caps in Latin lookup 11 subtable" q.sc
EndChar

StartChar: r
Encoding: 114 114 86
Width: 407
Flags: W
LayerCount: 2
Fore
SplineSet
332 513.5 m 128,-1,1
 382 539 382 539 443 540 c 1,2,-1
 427 414 l 1,3,-1
 410 415 l 1,4,5
 337 415 337 415 283 372.5 c 128,-1,6
 229 330 229 330 211 263 c 1,7,-1
 158 0 l 1,8,-1
 28 0 l 1,9,-1
 134 535 l 1,10,-1
 265 535 l 1,11,-1
 246 439 l 1,12,0
 282 488 282 488 332 513.5 c 128,-1,1
EndSplineSet
Substitution2: "<3,3> Small Caps in Latin lookup 11 subtable" r.sc
EndChar

StartChar: s
Encoding: 115 115 87
Width: 492
Flags: W
LayerCount: 2
Fore
SplineSet
92 22 m 128,-1,1
 24 50 24 50 -14 95 c 1,2,-1
 42 180 l 1,3,4
 76 143 76 143 128 119 c 128,-1,5
 180 95 180 95 226 95 c 0,6,7
 263 95 263 95 285 110.5 c 128,-1,8
 307 126 307 126 307 152 c 0,9,10
 307 175 307 175 285 190 c 128,-1,11
 263 205 263 205 217 223 c 0,12,13
 171 242 171 242 141.5 258 c 128,-1,14
 112 274 112 274 91 303 c 128,-1,15
 70 332 70 332 70 375 c 0,16,17
 70 424 70 424 95 461 c 128,-1,18
 120 498 120 498 165 519 c 128,-1,19
 210 540 210 540 269 540 c 0,20,21
 329 540 329 540 389.5 518.5 c 128,-1,22
 450 497 450 497 491 461 c 1,23,-1
 429 375 l 1,24,25
 390 404 390 404 346 421.5 c 128,-1,26
 302 439 302 439 268 439 c 0,27,28
 237 439 237 439 216.5 424 c 128,-1,29
 196 409 196 409 196 387 c 256,30,31
 196 365 196 365 217 351.5 c 128,-1,32
 238 338 238 338 285 318 c 0,33,34
 333 298 333 298 363 281.5 c 128,-1,35
 393 265 393 265 415 235.5 c 128,-1,36
 437 206 437 206 437 162 c 0,37,38
 437 113 437 113 411 75 c 128,-1,39
 385 37 385 37 338 15.5 c 128,-1,40
 291 -6 291 -6 231 -6 c 0,41,0
 160 -6 160 -6 92 22 c 128,-1,1
EndSplineSet
Substitution2: "<3,3> Small Caps in Latin lookup 11 subtable" s.sc
EndChar

StartChar: t
Encoding: 116 116 88
Width: 417
Flags: W
LayerCount: 2
Fore
SplineSet
212 171 m 2,0,1
 209 155 209 155 209 144 c 0,2,3
 209 124 209 124 218.5 116.5 c 128,-1,4
 228 109 228 109 248 109 c 0,5,6
 279 109 279 109 332 133 c 1,7,-1
 350 30 l 1,8,9
 284 -6 284 -6 213 -6 c 0,10,11
 152 -6 152 -6 114.5 26.5 c 128,-1,12
 77 59 77 59 77 119 c 0,13,14
 77 140 77 140 81 160 c 2,15,-1
 133 418 l 1,16,-1
 59 418 l 1,17,-1
 77 513 l 1,18,-1
 152 513 l 1,19,-1
 181 660 l 1,20,-1
 311 660 l 1,21,-1
 281 513 l 1,22,-1
 434 513 l 1,23,-1
 417 418 l 1,24,-1
 262 418 l 1,25,-1
 212 171 l 2,0,1
EndSplineSet
Substitution2: "<3,3> Small Caps in Latin lookup 11 subtable" t.sc
EndChar

StartChar: u
Encoding: 117 117 89
Width: 668
Flags: W
LayerCount: 2
Fore
SplineSet
101.5 39.5 m 128,-1,1
 50 86 50 86 50 165 c 0,2,3
 50 192 50 192 56 220 c 2,4,-1
 119 535 l 1,5,-1
 250 535 l 1,6,-1
 191 239 l 2,7,8
 188 223 188 223 188 207 c 0,9,10
 188 162 188 162 216 136 c 128,-1,11
 244 110 244 110 294 110 c 0,12,13
 351 110 351 110 394.5 149 c 128,-1,14
 438 188 438 188 451 252 c 2,15,-1
 509 535 l 1,16,-1
 639 535 l 1,17,-1
 534 0 l 1,18,-1
 402 0 l 1,19,-1
 417 76 l 1,20,21
 354 -7 354 -7 243 -7 c 0,22,0
 153 -7 153 -7 101.5 39.5 c 128,-1,1
EndSplineSet
Substitution2: "<3,3> Small Caps in Latin lookup 11 subtable" u.sc
EndChar

StartChar: v
Encoding: 118 118 90
Width: 537
Flags: W
LayerCount: 2
Fore
SplineSet
596 535 m 1,0,-1
 286 0 l 1,1,-1
 151 0 l 1,2,-1
 53 535 l 1,3,-1
 186 535 l 1,4,-1
 242 127 l 1,5,-1
 463 535 l 1,6,-1
 596 535 l 1,0,-1
EndSplineSet
Substitution2: "<3,3> Small Caps in Latin lookup 11 subtable" v.sc
EndChar

StartChar: w
Encoding: 119 119 91
Width: 905
Flags: W
LayerCount: 2
Fore
SplineSet
964 535 m 1,0,-1
 663 0 l 1,1,-1
 529 0 l 1,2,-1
 481 377 l 1,3,-1
 275 0 l 1,4,-1
 143 0 l 1,5,-1
 53 535 l 1,6,-1
 184 535 l 1,7,-1
 232 131 l 1,8,-1
 442 535 l 1,9,-1
 573 535 l 1,10,-1
 619 131 l 1,11,-1
 830 535 l 1,12,-1
 964 535 l 1,0,-1
EndSplineSet
Substitution2: "<3,3> Small Caps in Latin lookup 11 subtable" w.sc
EndChar

StartChar: x
Encoding: 120 120 92
Width: 568
Flags: W
LayerCount: 2
Fore
SplineSet
227 535 m 1,0,-1
 301 361 l 1,1,-1
 453 535 l 1,2,-1
 598 535 l 1,3,-1
 374 274 l 1,4,-1
 501 0 l 1,5,-1
 353 0 l 1,6,-1
 275 187 l 1,7,-1
 106 0 l 1,8,-1
 -42 0 l 1,9,-1
 201 274 l 1,10,-1
 80 535 l 1,11,-1
 227 535 l 1,0,-1
EndSplineSet
Substitution2: "<3,3> Small Caps in Latin lookup 11 subtable" x.sc
EndChar

StartChar: y
Encoding: 121 121 93
Width: 544
Flags: W
LayerCount: 2
Fore
SplineSet
603 535 m 1,0,-1
 242 -72 l 2,1,2
 168 -200 168 -200 41 -200 c 0,3,4
 1 -200 1 -200 -29 -187 c 128,-1,5
 -59 -174 -59 -174 -87 -148 c 1,6,-1
 -20 -57 l 1,7,8
 8 -80 8 -80 41 -80 c 0,9,10
 95 -80 95 -80 137 -24 c 2,11,-1
 161 9 l 1,12,-1
 46 535 l 1,13,-1
 179 535 l 1,14,-1
 250 141 l 1,15,-1
 470 535 l 1,16,-1
 603 535 l 1,0,-1
EndSplineSet
Substitution2: "<3,3> Small Caps in Latin lookup 11 subtable" y.sc
EndChar

StartChar: z
Encoding: 122 122 94
Width: 542
Flags: W
LayerCount: 2
Fore
SplineSet
552 534 m 1,0,-1
 537 447 l 1,1,-1
 173 106 l 1,2,-1
 474 106 l 1,3,-1
 454 -1 l 1,4,-1
 -10 0 l 1,5,-1
 6 86 l 1,6,-1
 368 428 l 1,7,-1
 86 429 l 1,8,-1
 106 535 l 1,9,-1
 552 534 l 1,0,-1
EndSplineSet
Substitution2: "<3,3> Small Caps in Latin lookup 11 subtable" z.sc
EndChar

StartChar: braceleft
Encoding: 123 123 95
Width: 351
Flags: W
LayerCount: 2
Fore
SplineSet
231 342.5 m 128,-1,1
 209 316 209 316 169 308 c 1,2,3
 199 299 199 299 212 283 c 128,-1,4
 225 267 225 267 225 238 c 0,5,6
 225 223 225 223 220 196 c 2,7,-1
 189 46 l 2,8,9
 187 38 187 38 187 25 c 0,10,11
 187 0 187 0 206 -11 c 128,-1,12
 225 -22 225 -22 268 -22 c 1,13,-1
 248 -126 l 1,14,-1
 198 -126 l 2,15,16
 125 -126 125 -126 92 -105.5 c 128,-1,17
 59 -85 59 -85 59 -37 c 0,18,19
 59 -21 59 -21 64 6 c 2,20,-1
 104 205 l 2,21,22
 107 217 107 217 107 225 c 0,23,24
 107 255 107 255 73 255 c 2,25,-1
 40 255 l 1,26,-1
 60 362 l 1,27,-1
 93 362 l 2,28,29
 116 362 116 362 128 373.5 c 128,-1,30
 140 385 140 385 145 412 c 2,31,-1
 186 611 l 2,32,33
 200 683 200 683 242.5 713 c 128,-1,34
 285 743 285 743 372 743 c 2,35,-1
 422 743 l 1,36,-1
 402 639 l 1,37,38
 350 639 350 639 326.5 624 c 128,-1,39
 303 609 303 609 295 571 c 2,40,-1
 264 420 l 2,41,0
 253 369 253 369 231 342.5 c 128,-1,1
EndSplineSet
Substitution2: "'rtla' Right to Left Alternates lookup 0 subtable" braceright
EndChar

StartChar: bar
Encoding: 124 124 96
Width: 278
Flags: W
LayerCount: 2
Fore
SplineSet
297 808 m 1,0,-1
 112 -114 l 1,1,-1
 13 -114 l 1,2,-1
 198 808 l 1,3,-1
 297 808 l 1,0,-1
EndSplineSet
EndChar

StartChar: braceright
Encoding: 125 125 97
Width: 463
Flags: W
LayerCount: 2
Fore
SplineSet
249 275.5 m 128,-1,1
 271 302 271 302 311 310 c 1,2,3
 281 319 281 319 268 335 c 128,-1,4
 255 351 255 351 255 380 c 0,5,6
 255 395 255 395 260 422 c 2,7,-1
 291 572 l 2,8,9
 293 580 293 580 293 593 c 0,10,11
 293 618 293 618 274 629 c 128,-1,12
 255 640 255 640 212 640 c 1,13,-1
 232 744 l 1,14,-1
 282 744 l 2,15,16
 355 744 355 744 388 723.5 c 128,-1,17
 421 703 421 703 421 655 c 0,18,19
 421 639 421 639 416 612 c 2,20,-1
 376 413 l 2,21,22
 373 401 373 401 373 393 c 0,23,24
 373 363 373 363 407 363 c 2,25,-1
 440 363 l 1,26,-1
 420 256 l 1,27,-1
 387 256 l 2,28,29
 364 256 364 256 352 244.5 c 128,-1,30
 340 233 340 233 335 206 c 2,31,-1
 294 7 l 2,32,33
 280 -65 280 -65 237.5 -95 c 128,-1,34
 195 -125 195 -125 108 -125 c 2,35,-1
 58 -125 l 1,36,-1
 78 -21 l 1,37,38
 130 -21 130 -21 153.5 -6 c 128,-1,39
 177 9 177 9 185 47 c 2,40,-1
 216 198 l 2,41,0
 227 249 227 249 249 275.5 c 128,-1,1
EndSplineSet
Substitution2: "'rtla' Right to Left Alternates lookup 0 subtable" braceleft
EndChar

StartChar: asciitilde
Encoding: 126 126 98
Width: 502
Flags: W
LayerCount: 2
Fore
SplineSet
231 394.5 m 128,-1,1
 250 386 250 386 273 370 c 0,2,3
 290 359 290 359 301 353.5 c 128,-1,4
 312 348 312 348 324 348 c 0,5,6
 342 348 342 348 356 360.5 c 128,-1,7
 370 373 370 373 375 397 c 1,8,-1
 464 397 l 1,9,10
 449 321 449 321 417 284 c 128,-1,11
 385 247 385 247 334 247 c 0,12,13
 308 247 308 247 288 255.5 c 128,-1,14
 268 264 268 264 247 280 c 0,15,16
 230 291 230 291 219.5 296 c 128,-1,17
 209 301 209 301 198 301 c 0,18,19
 160 301 160 301 151 253 c 1,20,-1
 61 253 l 1,21,22
 75 329 75 329 106 366 c 128,-1,23
 137 403 137 403 187 403 c 0,24,0
 212 403 212 403 231 394.5 c 128,-1,1
EndSplineSet
EndChar

StartChar: exclamdown
Encoding: 161 161 100
Width: 225
Flags: W
LayerCount: 2
Fore
SplineSet
114 416.5 m 128,-1,1
 97 434 97 434 97 463 c 0,2,3
 97 497 97 497 118.5 520 c 128,-1,4
 140 543 140 543 172 543 c 0,5,6
 200 543 200 543 217 524.5 c 128,-1,7
 234 506 234 506 234 477 c 0,8,9
 234 443 234 443 212.5 421 c 128,-1,10
 191 399 191 399 159 399 c 0,11,0
 131 399 131 399 114 416.5 c 128,-1,1
-19 -159 m 1,12,-1
 16 15 l 1,13,-1
 95 306 l 1,14,-1
 177 306 l 1,15,-1
 140 15 l 1,16,-1
 105 -159 l 1,17,-1
 -19 -159 l 1,12,-1
EndSplineSet
Substitution2: "<3,3> Small Caps in Latin lookup 11 subtable" exclamdown.sc
EndChar

StartChar: cent
Encoding: 162 162 101
Width: 583
Flags: W
LayerCount: 2
Fore
SplineSet
445 170 m 1,1,-1
 520 103 l 1,2,3
 481 54 481 54 424.5 26.5 c 128,-1,4
 368 -1 368 -1 297 -5 c 1,5,-1
 271 -145 l 1,6,-1
 172 -145 l 1,7,-1
 201 5 l 1,8,9
 123 26 123 26 78 88 c 128,-1,10
 33 150 33 150 33 239 c 0,11,12
 33 322 33 322 68 387.5 c 128,-1,13
 103 453 103 453 165.5 492.5 c 128,-1,14
 228 532 228 532 307 538 c 1,15,-1
 336 689 l 1,16,-1
 435 689 l 1,17,-1
 405 532 l 1,18,19
 499 513 499 513 549 441 c 1,20,-1
 462 366 l 1,21,22
 414 425 414 425 328 425 c 0,23,24
 282 425 282 425 244.5 402.5 c 128,-1,25
 207 380 207 380 185.5 340 c 128,-1,26
 164 300 164 300 164 248 c 0,27,28
 164 185 164 185 200 146 c 128,-1,29
 236 107 236 107 295 107 c 0,30,0
 391 107 391 107 445 170 c 1,1,-1
EndSplineSet
EndChar

StartChar: sterling
Encoding: 163 163 102
Width: 550
Flags: W
LayerCount: 2
Fore
SplineSet
528.5 683 m 128,-1,1
 576 660 576 660 608 617 c 1,2,-1
 536 513 l 1,3,4
 485 586 485 586 415 586 c 0,5,6
 367 586 367 586 335 558.5 c 128,-1,7
 303 531 303 531 292 477 c 2,8,-1
 273 380 l 1,9,-1
 446 380 l 1,10,-1
 434 318 l 1,11,-1
 260 318 l 1,12,-1
 218 109 l 1,13,-1
 491 109 l 1,14,-1
 471 0 l 1,15,-1
 -19 0 l 1,16,-1
 2 109 l 1,17,-1
 84 109 l 1,18,-1
 126 318 l 1,19,-1
 45 318 l 1,20,-1
 57 380 l 1,21,-1
 139 380 l 1,22,-1
 159 480 l 2,23,24
 180 588 180 588 249 647 c 128,-1,25
 318 706 318 706 423 706 c 0,26,0
 481 706 481 706 528.5 683 c 128,-1,1
EndSplineSet
EndChar

StartChar: currency
Encoding: 164 164 103
Width: 808
Flags: W
LayerCount: 2
Fore
SplineSet
635 174 m 1,1,-1
 736 73 l 1,2,-1
 661 -5 l 1,3,-1
 555 100 l 1,4,5
 489 60 489 60 413 60 c 0,6,7
 338 60 338 60 272 100 c 1,8,-1
 165 -5 l 1,9,-1
 92 73 l 1,10,-1
 193 174 l 1,11,12
 147 241 147 241 147 320 c 0,13,14
 147 397 147 397 190 464 c 1,15,-1
 92 562 l 1,16,-1
 165 640 l 1,17,-1
 267 539 l 1,18,19
 334 582 334 582 413 582 c 256,20,21
 492 582 492 582 560 539 c 1,22,-1
 661 640 l 1,23,-1
 736 562 l 1,24,-1
 637 463 l 1,25,26
 681 399 681 399 681 320 c 256,27,0
 681 241 681 241 635 174 c 1,1,-1
495 189.5 m 128,-1,29
 533 210 533 210 555.5 244.5 c 128,-1,30
 578 279 578 279 578 320 c 256,31,32
 578 361 578 361 555.5 396.5 c 128,-1,33
 533 432 533 432 495 452.5 c 128,-1,34
 457 473 457 473 413 473 c 256,35,36
 369 473 369 473 332 452.5 c 128,-1,37
 295 432 295 432 273 396.5 c 128,-1,38
 251 361 251 361 251 320 c 256,39,40
 251 279 251 279 273 244.5 c 128,-1,41
 295 210 295 210 332 189.5 c 128,-1,42
 369 169 369 169 413 169 c 256,43,28
 457 169 457 169 495 189.5 c 128,-1,29
EndSplineSet
EndChar

StartChar: yen
Encoding: 165 165 104
Width: 638
Flags: W
LayerCount: 2
Fore
SplineSet
736 700 m 1,0,-1
 460 308 l 1,1,-1
 610 308 l 1,2,-1
 597 245 l 1,3,-1
 415 245 l 1,4,-1
 402 227 l 1,5,-1
 396 189 l 1,6,-1
 587 189 l 1,7,-1
 575 126 l 1,8,-1
 386 126 l 1,9,-1
 366 0 l 1,10,-1
 231 0 l 1,11,-1
 252 126 l 1,12,-1
 61 126 l 1,13,-1
 74 189 l 1,14,-1
 262 189 l 1,15,-1
 271 243 l 1,16,-1
 270 245 l 1,17,-1
 84 245 l 1,18,-1
 96 308 l 1,19,-1
 246 308 l 1,20,-1
 95 700 l 1,21,-1
 230 700 l 1,22,-1
 363 375 l 1,23,-1
 600 700 l 1,24,-1
 736 700 l 1,0,-1
EndSplineSet
EndChar

StartChar: brokenbar
Encoding: 166 166 105
Width: 278
Flags: W
LayerCount: 2
Fore
SplineSet
297 808 m 1,0,-1
 228 463 l 1,1,-1
 129 463 l 1,2,-1
 198 808 l 1,3,-1
 297 808 l 1,0,-1
182 231 m 1,4,-1
 112 -114 l 1,5,-1
 13 -114 l 1,6,-1
 82 231 l 1,7,-1
 182 231 l 1,4,-1
EndSplineSet
EndChar

StartChar: section
Encoding: 167 167 106
Width: 519
Flags: W
LayerCount: 2
Fore
SplineSet
80.5 -56 m 128,-1,1
 14 -29 14 -29 -30 17 c 1,2,-1
 24 96 l 1,3,4
 67 55 67 55 116 32.5 c 128,-1,5
 165 10 165 10 212 10 c 0,6,7
 251 10 251 10 276.5 26 c 128,-1,8
 302 42 302 42 302 66 c 0,9,10
 302 91 302 91 278 107.5 c 128,-1,11
 254 124 254 124 201 148 c 0,12,13
 152 170 152 170 122 187.5 c 128,-1,14
 92 205 92 205 70.5 232.5 c 128,-1,15
 49 260 49 260 49 299 c 0,16,17
 49 354 49 354 87 391.5 c 128,-1,18
 125 429 125 429 193 441 c 1,19,20
 156 463 156 463 138.5 486.5 c 128,-1,21
 121 510 121 510 121 537 c 0,22,23
 121 581 121 581 146 615.5 c 128,-1,24
 171 650 171 650 216 669 c 128,-1,25
 261 688 261 688 318 688 c 0,26,27
 377 688 377 688 434.5 668 c 128,-1,28
 492 648 492 648 539 611 c 1,29,-1
 483 533 l 1,30,31
 441 563 441 563 398 579.5 c 128,-1,32
 355 596 355 596 319 596 c 0,33,34
 281 596 281 596 259.5 582 c 128,-1,35
 238 568 238 568 238 543 c 256,36,37
 238 518 238 518 263 501 c 128,-1,38
 288 484 288 484 340 462 c 0,39,40
 390 440 390 440 420.5 422.5 c 128,-1,41
 451 405 451 405 473 376.5 c 128,-1,42
 495 348 495 348 495 309 c 0,43,44
 495 258 495 258 457 217.5 c 128,-1,45
 419 177 419 177 361 164 c 1,46,47
 393 144 393 144 408 122 c 128,-1,48
 423 100 423 100 423 72 c 0,49,50
 423 28 423 28 397 -7.5 c 128,-1,51
 371 -43 371 -43 324 -63 c 128,-1,52
 277 -83 277 -83 218 -83 c 0,53,0
 147 -83 147 -83 80.5 -56 c 128,-1,1
352 254 m 128,-1,55
 374 269 374 269 374 297 c 0,56,57
 374 328 374 328 339 348 c 128,-1,58
 304 368 304 368 249 368 c 0,59,60
 211 368 211 368 189 353 c 128,-1,61
 167 338 167 338 167 312 c 0,62,63
 167 281 167 281 203 260 c 128,-1,64
 239 239 239 239 292 239 c 0,65,54
 330 239 330 239 352 254 c 128,-1,55
EndSplineSet
EndChar

StartChar: copyright
Encoding: 169 169 108
Width: 753
Flags: W
LayerCount: 2
Fore
SplineSet
563.5 643.5 m 128,-1,1
 641 598 641 598 686 520 c 128,-1,2
 731 442 731 442 731 350 c 0,3,4
 731 259 731 259 686 180.5 c 128,-1,5
 641 102 641 102 563 55.5 c 128,-1,6
 485 9 485 9 391 9 c 0,7,8
 298 9 298 9 220.5 55 c 128,-1,9
 143 101 143 101 98.5 179 c 128,-1,10
 54 257 54 257 54 348 c 256,11,12
 54 439 54 439 99 517.5 c 128,-1,13
 144 596 144 596 221.5 642.5 c 128,-1,14
 299 689 299 689 393 689 c 0,15,0
 486 689 486 689 563.5 643.5 c 128,-1,1
253.5 585.5 m 128,-1,17
 190 548 190 548 153.5 485 c 128,-1,18
 117 422 117 422 117 348 c 256,19,20
 117 274 117 274 153 211.5 c 128,-1,21
 189 149 189 149 252 112 c 128,-1,22
 315 75 315 75 391 75 c 0,23,24
 468 75 468 75 531.5 112 c 128,-1,25
 595 149 595 149 631.5 212.5 c 128,-1,26
 668 276 668 276 668 350 c 256,27,28
 668 424 668 424 631.5 486.5 c 128,-1,29
 595 549 595 549 532 586 c 128,-1,30
 469 623 469 623 393 623 c 256,31,16
 317 623 317 623 253.5 585.5 c 128,-1,17
469 504.5 m 128,-1,33
 504 490 504 490 530 464 c 1,34,-1
 491 417 l 1,35,36
 472 437 472 437 448 448.5 c 128,-1,37
 424 460 424 460 400 460 c 0,38,39
 352 460 352 460 319 428 c 128,-1,40
 286 396 286 396 286 350 c 0,41,42
 286 303 286 303 319 271 c 128,-1,43
 352 239 352 239 400 239 c 0,44,45
 423 239 423 239 447.5 249.5 c 128,-1,46
 472 260 472 260 491 278 c 1,47,-1
 530 235 l 1,48,49
 504 209 504 209 468 193.5 c 128,-1,50
 432 178 432 178 396 178 c 0,51,52
 347 178 347 178 307 200.5 c 128,-1,53
 267 223 267 223 243.5 262 c 128,-1,54
 220 301 220 301 220 349 c 0,55,56
 220 396 220 396 243.5 435 c 128,-1,57
 267 474 267 474 308 496.5 c 128,-1,58
 349 519 349 519 398 519 c 0,59,32
 434 519 434 519 469 504.5 c 128,-1,33
EndSplineSet
EndChar

StartChar: ordfeminine
Encoding: 170 170 109
Width: 388
Flags: W
LayerCount: 2
Fore
SplineSet
388 756.5 m 128,-1,1
 422 733 422 733 422 690 c 0,2,3
 422 674 422 674 420 666 c 2,4,-1
 379 458 l 1,5,-1
 289 458 l 1,6,-1
 298 503 l 1,7,8
 256 454 256 454 188 454 c 0,9,10
 143 454 143 454 114.5 477.5 c 128,-1,11
 86 501 86 501 86 538 c 0,12,13
 86 551 86 551 88 558 c 0,14,15
 104 643 104 643 232 644 c 2,16,-1
 326 644 l 1,17,-1
 328 655 l 2,18,19
 330 665 330 665 330 668 c 0,20,21
 330 709 330 709 258 709 c 0,22,23
 215 709 215 709 155 681 c 1,24,-1
 145 744 l 1,25,26
 229 780 229 780 291 780 c 0,27,0
 354 780 354 780 388 756.5 c 128,-1,1
309 559 m 1,29,-1
 317 598 l 1,30,-1
 241 598 l 2,31,32
 209 598 209 598 191 585.5 c 128,-1,33
 173 573 173 573 173 550 c 0,34,35
 173 533 173 533 185.5 524 c 128,-1,36
 198 515 198 515 220 515 c 0,37,28
 276 515 276 515 309 559 c 1,29,-1
EndSplineSet
EndChar

StartChar: logicalnot
Encoding: 172 172 111
Width: 575
Flags: W
LayerCount: 2
Fore
SplineSet
523 412 m 1,0,-1
 506 322 l 1,1,-1
 505 322 l 1,2,-1
 470 142 l 1,3,-1
 374 142 l 1,4,-1
 409 322 l 1,5,-1
 46 322 l 1,6,-1
 63 412 l 1,7,-1
 523 412 l 1,0,-1
EndSplineSet
EndChar

StartChar: registered
Encoding: 174 174 113
Width: 753
Flags: W
LayerCount: 2
Fore
SplineSet
563.5 643.5 m 128,-1,1
 641 598 641 598 686 520 c 128,-1,2
 731 442 731 442 731 350 c 0,3,4
 731 259 731 259 686 180.5 c 128,-1,5
 641 102 641 102 563 55.5 c 128,-1,6
 485 9 485 9 391 9 c 0,7,8
 298 9 298 9 220.5 55 c 128,-1,9
 143 101 143 101 98.5 179 c 128,-1,10
 54 257 54 257 54 348 c 256,11,12
 54 439 54 439 99 517.5 c 128,-1,13
 144 596 144 596 221.5 642.5 c 128,-1,14
 299 689 299 689 393 689 c 0,15,0
 486 689 486 689 563.5 643.5 c 128,-1,1
531.5 112 m 128,-1,17
 595 149 595 149 631.5 212.5 c 128,-1,18
 668 276 668 276 668 350 c 256,19,20
 668 424 668 424 631.5 486.5 c 128,-1,21
 595 549 595 549 532 586 c 128,-1,22
 469 623 469 623 393 623 c 256,23,24
 317 623 317 623 253.5 585.5 c 128,-1,25
 190 548 190 548 153.5 485 c 128,-1,26
 117 422 117 422 117 348 c 256,27,28
 117 274 117 274 153 211.5 c 128,-1,29
 189 149 189 149 252 112 c 128,-1,30
 315 75 315 75 391 75 c 0,31,16
 468 75 468 75 531.5 112 c 128,-1,17
519.5 344.5 m 128,-1,33
 502 317 502 317 470 303 c 1,34,-1
 544 193 l 1,35,-1
 472 193 l 1,36,-1
 413 291 l 1,37,-1
 401 291 l 1,38,-1
 327 291 l 1,39,-1
 327 193 l 1,40,-1
 264 193 l 1,41,-1
 264 525 l 1,42,-1
 401 525 l 2,43,44
 466 525 466 525 501.5 495.5 c 128,-1,45
 537 466 537 466 537 411 c 0,46,32
 537 372 537 372 519.5 344.5 c 128,-1,33
327 344 m 1,47,-1
 401 344 l 2,48,49
 437 344 437 344 457 361.5 c 128,-1,50
 477 379 477 379 477 410 c 0,51,52
 477 440 477 440 457 456.5 c 128,-1,53
 437 473 437 473 401 473 c 2,54,-1
 327 473 l 1,55,-1
 327 344 l 1,47,-1
EndSplineSet
EndChar

StartChar: degree
Encoding: 176 176 115
Width: 360
Flags: W
LayerCount: 2
Fore
SplineSet
369.5 778 m 128,-1,1
 404 744 404 744 404 696 c 0,2,3
 404 649 404 649 369.5 614.5 c 128,-1,4
 335 580 335 580 286 580 c 0,5,6
 239 580 239 580 204.5 614.5 c 128,-1,7
 170 649 170 649 170 696 c 0,8,9
 170 744 170 744 204.5 778 c 128,-1,10
 239 812 239 812 286 812 c 0,11,0
 335 812 335 812 369.5 778 c 128,-1,1
242 738.5 m 128,-1,13
 224 721 224 721 224 696 c 0,14,15
 224 672 224 672 242.5 654.5 c 128,-1,16
 261 637 261 637 286 637 c 0,17,18
 312 637 312 637 331 654.5 c 128,-1,19
 350 672 350 672 350 696 c 0,20,21
 350 721 350 721 331 738.5 c 128,-1,22
 312 756 312 756 286 756 c 256,23,12
 260 756 260 756 242 738.5 c 128,-1,13
EndSplineSet
EndChar

StartChar: plusminus
Encoding: 177 177 116
Width: 569
Flags: W
LayerCount: 2
Fore
SplineSet
190 183 m 1,0,-1
 224 350 l 1,1,-1
 51 350 l 1,2,-1
 68 438 l 1,3,-1
 242 438 l 1,4,-1
 277 606 l 1,5,-1
 362 606 l 1,6,-1
 328 438 l 1,7,-1
 501 438 l 1,8,-1
 484 350 l 1,9,-1
 310 350 l 1,10,-1
 276 183 l 1,11,-1
 190 183 l 1,0,-1
69 104 m 1,12,-1
 502 104 l 1,13,-1
 485 14 l 1,14,-1
 52 14 l 1,15,-1
 69 104 l 1,12,-1
EndSplineSet
EndChar

StartChar: uni00B5
Encoding: 181 181 120
Width: 689
Flags: W
LayerCount: 2
Fore
SplineSet
660 535 m 1,0,-1
 555 0 l 1,1,-1
 423 0 l 1,2,-1
 438 75 l 1,3,4
 374 -7 374 -7 264 -7 c 0,5,6
 208 -7 208 -7 167 11 c 1,7,-1
 126 -194 l 1,8,-1
 -5 -194 l 1,9,-1
 74 204 l 1,10,-1
 77 220 l 1,11,-1
 140 535 l 1,12,-1
 271 535 l 1,13,-1
 212 238 l 2,14,15
 209 222 209 222 209 206 c 0,16,17
 209 161 209 161 237 135.5 c 128,-1,18
 265 110 265 110 315 110 c 0,19,20
 372 110 372 110 415 149 c 128,-1,21
 458 188 458 188 472 251 c 2,22,-1
 530 535 l 1,23,-1
 660 535 l 1,0,-1
EndSplineSet
EndChar

StartChar: paragraph
Encoding: 182 182 121
Width: 625
Flags: W
LayerCount: 2
Fore
SplineSet
463 -108 m 1,0,-1
 364 -108 l 1,1,-1
 519 662 l 1,2,-1
 396 662 l 1,3,-1
 242 -108 l 1,4,-1
 143 -108 l 1,5,-1
 235 346 l 1,6,7
 225 345 225 345 206 345 c 0,8,9
 121 345 121 345 84.5 388 c 128,-1,10
 48 431 48 431 48 493 c 0,11,12
 48 517 48 517 53 540 c 0,13,14
 64 594 64 594 96.5 640 c 128,-1,15
 129 686 129 686 186 714 c 128,-1,16
 243 742 243 742 322 742 c 2,17,-1
 633 742 l 1,18,-1
 463 -108 l 1,0,-1
EndSplineSet
EndChar

StartChar: ordmasculine
Encoding: 186 186 125
Width: 413
Flags: W
LayerCount: 2
Fore
SplineSet
410 739 m 128,-1,1
 454 699 454 699 454 632 c 0,2,3
 454 580 454 580 429 540 c 128,-1,4
 404 500 404 500 360.5 477.5 c 128,-1,5
 317 455 317 455 261 455 c 0,6,7
 186 455 186 455 142 495.5 c 128,-1,8
 98 536 98 536 98 602 c 0,9,10
 98 654 98 654 123 694.5 c 128,-1,11
 148 735 148 735 192 757 c 128,-1,12
 236 779 236 779 292 779 c 0,13,0
 366 779 366 779 410 739 c 128,-1,1
217.5 677 m 128,-1,15
 191 649 191 649 191 606 c 0,16,17
 191 571 191 571 212 549.5 c 128,-1,18
 233 528 233 528 267 528 c 0,19,20
 308 528 308 528 334.5 555.5 c 128,-1,21
 361 583 361 583 361 626 c 0,22,23
 361 662 361 662 340.5 683.5 c 128,-1,24
 320 705 320 705 285 705 c 0,25,14
 244 705 244 705 217.5 677 c 128,-1,15
EndSplineSet
EndChar

StartChar: questiondown
Encoding: 191 191 130
Width: 450
Flags: W
LayerCount: 2
Fore
SplineSet
173 416.5 m 128,-1,1
 156 434 156 434 156 463 c 0,2,3
 156 497 156 497 177.5 520 c 128,-1,4
 199 543 199 543 231 543 c 0,5,6
 259 543 259 543 276 524.5 c 128,-1,7
 293 506 293 506 293 477 c 0,8,9
 293 443 293 443 271.5 421 c 128,-1,10
 250 399 250 399 218 399 c 0,11,0
 190 399 190 399 173 416.5 c 128,-1,1
325 -108.5 m 128,-1,13
 263 -164 263 -164 166 -164 c 0,14,15
 79 -164 79 -164 28.5 -121.5 c 128,-1,16
 -22 -79 -22 -79 -22 -5 c 0,17,18
 -22 35 -22 35 -7.5 67 c 128,-1,19
 7 99 7 99 27.5 122.5 c 128,-1,20
 48 146 48 146 82 178 c 0,21,22
 123 216 123 216 143 242.5 c 128,-1,23
 163 269 163 269 167 303 c 1,24,-1
 267 303 l 1,25,26
 260 247 260 247 236 210.5 c 128,-1,27
 212 174 212 174 170 133 c 0,28,29
 135 100 135 100 118 75 c 128,-1,30
 101 50 101 50 101 16 c 0,31,32
 101 -52 101 -52 185 -52 c 0,33,34
 282 -52 282 -52 298 45 c 1,35,-1
 400 45 l 1,36,12
 387 -53 387 -53 325 -108.5 c 128,-1,13
EndSplineSet
Substitution2: "<3,3> Small Caps in Latin lookup 11 subtable" questiondown.sc
EndChar

StartChar: AE
Encoding: 198 198 137
Width: 1065
Flags: W
LayerCount: 2
Fore
SplineSet
1068 583 m 1,0,-1
 689 583 l 1,1,-1
 652 410 l 1,2,-1
 993 410 l 1,3,-1
 971 293 l 1,4,-1
 630 293 l 1,5,-1
 593 117 l 1,6,-1
 984 117 l 1,7,-1
 962 0 l 1,8,-1
 438 0 l 1,9,-1
 471 164 l 1,10,-1
 213 164 l 1,11,-1
 88 0 l 1,12,-1
 -54 0 l 1,13,-1
 490 700 l 1,14,-1
 1090 700 l 1,15,-1
 1068 583 l 1,0,-1
292 269 m 1,16,-1
 492 269 l 1,17,-1
 556 590 l 1,18,-1
 536 590 l 1,19,-1
 292 269 l 1,16,-1
EndSplineSet
EndChar

StartChar: Ccedilla
Encoding: 199 199 138
Width: 723
Flags: W
LayerCount: 2
Fore
SplineSet
544.5 28 m 128,-1,1
 475 -4 475 -4 407 -9 c 1,2,-1
 383 -51 l 1,3,4
 418 -58 418 -58 434 -76.5 c 128,-1,5
 450 -95 450 -95 450 -120 c 0,6,7
 450 -171 450 -171 410 -197.5 c 128,-1,8
 370 -224 370 -224 310 -224 c 0,9,10
 258 -224 258 -224 211 -203 c 1,11,-1
 251 -128 l 1,12,13
 280 -139 280 -139 305 -139 c 0,14,15
 325 -139 325 -139 337.5 -131.5 c 128,-1,16
 350 -124 350 -124 350 -113 c 0,17,18
 350 -104 350 -104 337.5 -97.5 c 128,-1,19
 325 -91 325 -91 304 -91 c 2,20,-1
 275 -91 l 1,21,-1
 319 -5 l 1,22,23
 240 8 240 8 179 53.5 c 128,-1,24
 118 99 118 99 84 168.5 c 128,-1,25
 50 238 50 238 50 320 c 0,26,27
 50 427 50 427 105.5 516 c 128,-1,28
 161 605 161 605 254.5 657 c 128,-1,29
 348 709 348 709 458 709 c 0,30,31
 533 709 533 709 601.5 679 c 128,-1,32
 670 649 670 649 717 596 c 1,33,-1
 629 498 l 1,34,35
 595 541 595 541 547.5 565 c 128,-1,36
 500 589 500 589 449 589 c 0,37,38
 379 589 379 589 319 554.5 c 128,-1,39
 259 520 259 520 223.5 461 c 128,-1,40
 188 402 188 402 188 332 c 0,41,42
 188 272 188 272 215.5 222.5 c 128,-1,43
 243 173 243 173 291.5 144.5 c 128,-1,44
 340 116 340 116 400 116 c 0,45,46
 450 116 450 116 502.5 138 c 128,-1,47
 555 160 555 160 598 199 c 1,48,-1
 669 111 l 1,49,0
 614 60 614 60 544.5 28 c 128,-1,1
EndSplineSet
EndChar

StartChar: multiply
Encoding: 215 215 154
Width: 550
Flags: W
LayerCount: 2
Fore
SplineSet
469 447 m 1,0,-1
 348 326 l 1,1,-1
 469 204 l 1,2,-1
 410 140 l 1,3,-1
 287 264 l 1,4,-1
 164 140 l 1,5,-1
 104 204 l 1,6,-1
 225 326 l 1,7,-1
 104 447 l 1,8,-1
 164 511 l 1,9,-1
 287 387 l 1,10,-1
 410 511 l 1,11,-1
 469 447 l 1,0,-1
EndSplineSet
EndChar

StartChar: Oslash
Encoding: 216 216 155
Width: 815
Flags: W
LayerCount: 2
Fore
SplineSet
768 527 m 128,-1,1
 800 460 800 460 800 381 c 0,2,3
 800 274 800 274 744 184.5 c 128,-1,4
 688 95 688 95 593.5 42.5 c 128,-1,5
 499 -10 499 -10 389 -10 c 0,6,7
 296 -10 296 -10 219 31 c 1,8,-1
 154 -55 l 1,9,-1
 51 -55 l 1,10,-1
 152 79 l 1,11,12
 103 124 103 124 76.5 186 c 128,-1,13
 50 248 50 248 50 320 c 0,14,15
 50 427 50 427 105.5 516.5 c 128,-1,16
 161 606 161 606 255.5 657.5 c 128,-1,17
 350 709 350 709 461 709 c 0,18,19
 538 709 538 709 605 681 c 1,20,-1
 661 755 l 1,21,-1
 765 755 l 1,22,-1
 678 639 l 1,23,0
 736 594 736 594 768 527 c 128,-1,1
235 190 m 1,25,-1
 526 576 l 1,26,27
 489 589 489 589 451 589 c 0,28,29
 382 589 382 589 321 554 c 128,-1,30
 260 519 260 519 223.5 459.5 c 128,-1,31
 187 400 187 400 187 330 c 0,32,24
 187 251 187 251 235 190 c 1,25,-1
529.5 146 m 128,-1,34
 589 181 589 181 625 241 c 128,-1,35
 661 301 661 301 661 371 c 0,36,37
 661 419 661 419 644 460 c 128,-1,38
 627 501 627 501 596 531 c 1,39,-1
 299 137 l 1,40,41
 345 111 345 111 402 111 c 0,42,33
 470 111 470 111 529.5 146 c 128,-1,34
EndSplineSet
EndChar

StartChar: Thorn
Encoding: 222 222 161
Width: 695
Flags: W
LayerCount: 2
Fore
SplineSet
616.5 552.5 m 128,-1,1
 682 502 682 502 682 411 c 0,2,3
 682 323 682 323 640 257 c 128,-1,4
 598 191 598 191 519 155 c 128,-1,5
 440 119 440 119 331 119 c 2,6,-1
 191 119 l 1,7,-1
 167 0 l 1,8,-1
 33 0 l 1,9,-1
 173 700 l 1,10,-1
 307 700 l 1,11,-1
 288 603 l 1,12,-1
 428 603 l 2,13,0
 551 603 551 603 616.5 552.5 c 128,-1,1
491.5 272.5 m 128,-1,15
 542 315 542 315 542 390 c 0,16,17
 542 440 542 440 506.5 466.5 c 128,-1,18
 471 493 471 493 402 493 c 2,19,-1
 266 493 l 1,20,-1
 213 230 l 1,21,-1
 346 230 l 2,22,14
 441 230 441 230 491.5 272.5 c 128,-1,15
EndSplineSet
EndChar

StartChar: germandbls
Encoding: 223 223 162
Width: 659
Flags: W
LayerCount: 2
Fore
SplineSet
529 726 m 128,-1,1
 578 704 578 704 605.5 665 c 128,-1,2
 633 626 633 626 633 577 c 0,3,4
 633 515 633 515 592.5 461.5 c 128,-1,5
 552 408 552 408 484 382 c 1,6,7
 540 369 540 369 572.5 329.5 c 128,-1,8
 605 290 605 290 605 235 c 0,9,10
 605 168 605 168 565 114.5 c 128,-1,11
 525 61 525 61 453.5 30.5 c 128,-1,12
 382 0 382 0 292 0 c 2,13,-1
 242 0 l 1,14,-1
 261 100 l 1,15,-1
 315 100 l 2,16,17
 386 100 386 100 431 136 c 128,-1,18
 476 172 476 172 476 228 c 0,19,20
 476 271 476 271 440 294.5 c 128,-1,21
 404 318 404 318 340 318 c 2,22,-1
 325 318 l 1,23,-1
 343 418 l 1,24,25
 414 418 414 418 458 456 c 128,-1,26
 502 494 502 494 502 556 c 0,27,28
 502 597 502 597 476.5 620 c 128,-1,29
 451 643 451 643 407 643 c 0,30,31
 348 643 348 643 305 604.5 c 128,-1,32
 262 566 262 566 249 499 c 2,33,-1
 149 0 l 1,34,-1
 19 0 l 1,35,-1
 117 489 l 2,36,37
 141 611 141 611 220.5 679.5 c 128,-1,38
 300 748 300 748 418 748 c 0,39,0
 480 748 480 748 529 726 c 128,-1,1
EndSplineSet
Substitution2: "<3,3> Small Caps in Latin lookup 11 subtable" germandbls.sc
EndChar

StartChar: ae
Encoding: 230 230 169
Width: 962
Flags: W
LayerCount: 2
Fore
SplineSet
64 35 m 128,-1,1
 15 76 15 76 15 144 c 0,2,3
 15 224 15 224 71 266.5 c 128,-1,4
 127 309 127 309 231 309 c 2,5,-1
 390 309 l 1,6,-1
 392 340 l 2,7,8
 396 386 396 386 368 410 c 128,-1,9
 340 434 340 434 282 434 c 0,10,11
 199 434 199 434 102 383 c 1,12,-1
 74 478 l 1,13,14
 203 540 203 540 313 540 c 0,15,16
 376 540 376 540 422 521 c 128,-1,17
 468 502 468 502 492 467 c 1,18,19
 567 539 567 539 682 539 c 0,20,21
 758 539 758 539 814 508 c 128,-1,22
 870 477 870 477 900 420.5 c 128,-1,23
 930 364 930 364 930 288 c 0,24,25
 930 265 930 265 927 239 c 1,26,-1
 516 239 l 1,27,-1
 515 222 l 2,28,29
 512 189 512 189 530.5 161 c 128,-1,30
 549 133 549 133 582.5 116.5 c 128,-1,31
 616 100 616 100 656 100 c 0,32,33
 698 100 698 100 737.5 116 c 128,-1,34
 777 132 777 132 808 162 c 1,35,-1
 875 86 l 1,36,37
 829 41 829 41 771 18 c 128,-1,38
 713 -5 713 -5 645 -5 c 0,39,40
 567 -5 567 -5 511 27 c 128,-1,41
 455 59 455 59 428 117 c 1,42,43
 354 -6 354 -6 194 -6 c 0,44,0
 113 -6 113 -6 64 35 c 128,-1,1
802 309 m 1,45,46
 806 371 806 371 773 407.5 c 128,-1,47
 740 444 740 444 682 444 c 256,48,49
 624 444 624 444 579.5 406.5 c 128,-1,50
 535 369 535 369 521 309 c 1,51,-1
 802 309 l 1,45,46
312.5 107.5 m 128,-1,53
 351 130 351 130 377 173 c 1,54,-1
 383 239 l 1,55,-1
 254 239 l 2,56,57
 200 240 200 240 169.5 217.5 c 128,-1,58
 139 195 139 195 139 154 c 0,59,60
 139 122 139 122 162 103.5 c 128,-1,61
 185 85 185 85 225 85 c 0,62,52
 274 85 274 85 312.5 107.5 c 128,-1,53
EndSplineSet
Substitution2: "<3,3> Small Caps in Latin lookup 11 subtable" ae.sc
EndChar

StartChar: ccedilla
Encoding: 231 231 170
Width: 583
Flags: W
LayerCount: 2
Fore
SplineSet
445 170 m 1,1,-1
 520 103 l 1,2,3
 481 54 481 54 423.5 26 c 128,-1,4
 366 -2 366 -2 294 -5 c 1,5,-1
 268 -51 l 1,6,7
 303 -58 303 -58 319 -76.5 c 128,-1,8
 335 -95 335 -95 335 -120 c 0,9,10
 335 -171 335 -171 295 -197.5 c 128,-1,11
 255 -224 255 -224 195 -224 c 0,12,13
 143 -224 143 -224 96 -203 c 1,14,-1
 136 -128 l 1,15,16
 165 -139 165 -139 190 -139 c 0,17,18
 210 -139 210 -139 222.5 -131.5 c 128,-1,19
 235 -124 235 -124 235 -113 c 0,20,21
 235 -104 235 -104 222.5 -97.5 c 128,-1,22
 210 -91 210 -91 189 -91 c 2,23,-1
 160 -91 l 1,24,-1
 208 3 l 1,25,26
 127 23 127 23 80 85.5 c 128,-1,27
 33 148 33 148 33 239 c 0,28,29
 33 326 33 326 72 394.5 c 128,-1,30
 111 463 111 463 179.5 501 c 128,-1,31
 248 539 248 539 333 539 c 0,32,33
 406 539 406 539 461 513.5 c 128,-1,34
 516 488 516 488 549 441 c 1,35,-1
 462 366 l 1,36,37
 414 425 414 425 328 425 c 0,38,39
 282 425 282 425 244.5 402.5 c 128,-1,40
 207 380 207 380 185.5 340 c 128,-1,41
 164 300 164 300 164 248 c 0,42,43
 164 185 164 185 200 146 c 128,-1,44
 236 107 236 107 295 107 c 0,45,0
 391 107 391 107 445 170 c 1,1,-1
EndSplineSet
Substitution2: "<3,3> Small Caps in Latin lookup 11 subtable" ccedilla.sc
EndChar

StartChar: eth
Encoding: 240 240 179
Width: 597
Flags: W
LayerCount: 2
Fore
SplineSet
449 609 m 1,0,1
 506 544 506 544 536 468 c 128,-1,2
 566 392 566 392 566 312 c 0,3,4
 566 218 566 218 528 146.5 c 128,-1,5
 490 75 490 75 421.5 35 c 128,-1,6
 353 -5 353 -5 263 -5 c 0,7,8
 154 -5 154 -5 89.5 51 c 128,-1,9
 25 107 25 107 25 202 c 0,10,11
 25 273 25 273 55.5 328.5 c 128,-1,12
 86 384 86 384 141.5 414.5 c 128,-1,13
 197 445 197 445 269 445 c 0,14,15
 327 445 327 445 375.5 423 c 128,-1,16
 424 401 424 401 446 366 c 1,17,18
 438 416 438 416 411 466.5 c 128,-1,19
 384 517 384 517 342 564 c 1,20,-1
 156 485 l 1,21,-1
 132 545 l 1,22,-1
 292 613 l 1,23,24
 242 659 242 659 176 694 c 1,25,-1
 267 749 l 1,26,27
 337 714 337 714 400 659 c 1,28,-1
 553 724 l 1,29,-1
 578 664 l 1,30,-1
 449 609 l 1,0,1
379 149 m 128,-1,32
 421 188 421 188 421 248 c 0,33,34
 421 295 421 295 388.5 322.5 c 128,-1,35
 356 350 356 350 299 350 c 0,36,37
 235 350 235 350 192.5 310.5 c 128,-1,38
 150 271 150 271 150 211 c 0,39,40
 150 164 150 164 182.5 137 c 128,-1,41
 215 110 215 110 270 110 c 0,42,31
 337 110 337 110 379 149 c 128,-1,32
EndSplineSet
Substitution2: "<3,3> Small Caps in Latin lookup 11 subtable" eth.sc
EndChar

StartChar: divide
Encoding: 247 247 186
Width: 501
Flags: W
LayerCount: 2
Fore
SplineSet
339 564 m 128,-1,1
 354 548 354 548 354 523 c 0,2,3
 354 489 354 489 330.5 465 c 128,-1,4
 307 441 307 441 274 441 c 0,5,6
 250 441 250 441 235 457 c 128,-1,7
 220 473 220 473 220 498 c 0,8,9
 220 532 220 532 243.5 556 c 128,-1,10
 267 580 267 580 300 580 c 0,11,0
 324 580 324 580 339 564 c 128,-1,1
487 370 m 1,12,-1
 470 280 l 1,13,-1
 37 280 l 1,14,-1
 54 370 l 1,15,-1
 487 370 l 1,12,-1
269 208 m 128,-1,17
 284 192 284 192 284 167 c 0,18,19
 284 133 284 133 260.5 109 c 128,-1,20
 237 85 237 85 204 85 c 0,21,22
 180 85 180 85 165 101 c 128,-1,23
 150 117 150 117 150 142 c 0,24,25
 150 176 150 176 173.5 200 c 128,-1,26
 197 224 197 224 230 224 c 0,27,16
 254 224 254 224 269 208 c 128,-1,17
EndSplineSet
EndChar

StartChar: oslash
Encoding: 248 248 187
Width: 634
Flags: W
LayerCount: 2
Fore
SplineSet
577.5 405.5 m 128,-1,1
 601 356 601 356 601 294 c 0,2,3
 601 207 601 207 560.5 139 c 128,-1,4
 520 71 520 71 449.5 33 c 128,-1,5
 379 -5 379 -5 290 -5 c 0,6,7
 231 -5 231 -5 180 14 c 1,8,-1
 105 -92 l 1,9,-1
 22 -92 l 1,10,-1
 120 48 l 1,11,12
 78 81 78 81 55.5 130.5 c 128,-1,13
 33 180 33 180 33 241 c 0,14,15
 33 328 33 328 73 395.5 c 128,-1,16
 113 463 113 463 184 501 c 128,-1,17
 255 539 255 539 344 539 c 0,18,19
 404 539 404 539 451 521 c 1,20,-1
 526 627 l 1,21,-1
 609 627 l 1,22,-1
 511 488 l 1,23,0
 554 455 554 455 577.5 405.5 c 128,-1,1
188 145 m 1,25,-1
 387 428 l 1,26,27
 363 437 363 437 335 437 c 0,28,29
 285 437 285 437 244.5 412.5 c 128,-1,30
 204 388 204 388 180.5 344.5 c 128,-1,31
 157 301 157 301 157 246 c 0,32,24
 157 185 157 185 188 145 c 1,25,-1
389.5 119 m 128,-1,34
 430 143 430 143 453 186.5 c 128,-1,35
 476 230 476 230 476 285 c 0,36,37
 476 349 476 349 442 389 c 1,38,-1
 243 105 l 1,39,40
 267 95 267 95 299 95 c 0,41,33
 349 95 349 95 389.5 119 c 128,-1,34
EndSplineSet
Substitution2: "<3,3> Small Caps in Latin lookup 11 subtable" oslash.sc
EndChar

StartChar: thorn
Encoding: 254 254 193
Width: 686
Flags: W
LayerCount: 2
Fore
SplineSet
549.5 510 m 128,-1,1
 599 480 599 480 626.5 426 c 128,-1,2
 654 372 654 372 654 302 c 0,3,4
 654 216 654 216 616 145.5 c 128,-1,5
 578 75 578 75 512.5 34.5 c 128,-1,6
 447 -6 447 -6 366 -6 c 0,7,8
 298 -6 298 -6 252 22.5 c 128,-1,9
 206 51 206 51 184 106 c 1,10,-1
 123 -194 l 1,11,-1
 -6 -194 l 1,12,-1
 181 742 l 1,13,-1
 310 742 l 1,14,-1
 254 462 l 1,15,16
 290 499 290 499 336.5 519.5 c 128,-1,17
 383 540 383 540 436 540 c 0,18,0
 500 540 500 540 549.5 510 c 128,-1,1
302 409 m 128,-1,20
 262 384 262 384 239 341.5 c 128,-1,21
 216 299 216 299 216 248 c 0,22,23
 216 185 216 185 252 147 c 128,-1,24
 288 109 288 109 347 109 c 0,25,26
 395 109 395 109 435.5 134 c 128,-1,27
 476 159 476 159 499.5 201.5 c 128,-1,28
 523 244 523 244 523 294 c 0,29,30
 523 357 523 357 486.5 395.5 c 128,-1,31
 450 434 450 434 390 434 c 0,32,19
 342 434 342 434 302 409 c 128,-1,20
EndSplineSet
Substitution2: "<3,3> Small Caps in Latin lookup 11 subtable" thorn.sc
EndChar

StartChar: Aogonek
Encoding: 260 260 199
Width: 747
Flags: W
LayerCount: 2
Fore
SplineSet
600 -61.5 m 128,-1,1
 576 -86 576 -86 576 -110 c 0,2,3
 576 -131 576 -131 598 -131 c 0,4,5
 616 -131 616 -131 631 -123 c 1,6,-1
 643 -203 l 1,7,8
 592 -223 592 -223 550 -223 c 0,9,10
 509 -223 509 -223 484.5 -202.5 c 128,-1,11
 460 -182 460 -182 460 -146 c 0,12,13
 460 -68 460 -68 550 0 c 1,14,-1
 513 148 l 1,15,-1
 170 148 l 1,16,-1
 84 0 l 1,17,-1
 -54 0 l 1,18,-1
 368 700 l 1,19,-1
 506 700 l 1,20,-1
 694 0 l 1,21,-1
 682 0 l 1,22,0
 624 -37 624 -37 600 -61.5 c 128,-1,1
237 263 m 1,23,-1
 485 263 l 1,24,-1
 411 561 l 1,25,-1
 237 263 l 1,23,-1
EndSplineSet
EndChar

StartChar: aogonek
Encoding: 261 261 200
Width: 681
Flags: W
LayerCount: 2
Fore
SplineSet
654 535 m 1,0,-1
 547 0 l 1,1,-1
 539 0 l 1,2,3
 481 -37 481 -37 457 -61.5 c 128,-1,4
 433 -86 433 -86 433 -110 c 0,5,6
 433 -131 433 -131 455 -131 c 0,7,8
 473 -131 473 -131 488 -123 c 1,9,-1
 500 -203 l 1,10,11
 449 -223 449 -223 407 -223 c 0,12,13
 366 -223 366 -223 341.5 -202.5 c 128,-1,14
 317 -182 317 -182 317 -146 c 0,15,16
 317 -62 317 -62 420 9 c 1,17,-1
 433 73 l 1,18,19
 397 35 397 35 350 14.5 c 128,-1,20
 303 -6 303 -6 250 -6 c 0,21,22
 186 -6 186 -6 136.5 24 c 128,-1,23
 87 54 87 54 59.5 108.5 c 128,-1,24
 32 163 32 163 32 233 c 0,25,26
 32 319 32 319 70 389 c 128,-1,27
 108 459 108 459 174 499.5 c 128,-1,28
 240 540 240 540 321 540 c 0,29,30
 388 540 388 540 434.5 511.5 c 128,-1,31
 481 483 481 483 502 429 c 1,32,-1
 524 535 l 1,33,-1
 654 535 l 1,0,-1
385 126 m 128,-1,35
 425 151 425 151 448 193.5 c 128,-1,36
 471 236 471 236 471 286 c 0,37,38
 471 349 471 349 435 387.5 c 128,-1,39
 399 426 399 426 339 426 c 0,40,41
 291 426 291 426 251 401 c 128,-1,42
 211 376 211 376 187.5 333 c 128,-1,43
 164 290 164 290 164 240 c 0,44,45
 164 177 164 177 200.5 139 c 128,-1,46
 237 101 237 101 297 101 c 0,47,34
 345 101 345 101 385 126 c 128,-1,35
EndSplineSet
Substitution2: "<3,3> Small Caps in Latin lookup 11 subtable" aogonek.sc
EndChar

StartChar: Dcroat
Encoding: 272 272 211
Width: 775
Flags: W
LayerCount: 2
Fore
SplineSet
613.5 662.5 m 128,-1,1
 685 625 685 625 724 557.5 c 128,-1,2
 763 490 763 490 763 403 c 0,3,4
 763 290 763 290 706 198 c 128,-1,5
 649 106 649 106 551.5 53 c 128,-1,6
 454 0 454 0 337 0 c 2,7,-1
 34 0 l 1,8,-1
 96 314 l 1,9,-1
 24 314 l 1,10,-1
 38 387 l 1,11,-1
 111 387 l 1,12,-1
 173 700 l 1,13,-1
 447 700 l 2,14,0
 542 700 542 700 613.5 662.5 c 128,-1,1
600 487.5 m 128,-1,16
 575 532 575 532 530.5 557 c 128,-1,17
 486 582 486 582 428 582 c 2,18,-1
 284 582 l 1,19,-1
 245 387 l 1,20,-1
 412 387 l 1,21,-1
 398 314 l 1,22,-1
 230 314 l 1,23,-1
 191 118 l 1,24,-1
 362 118 l 2,25,26
 432 118 432 118 492.5 153 c 128,-1,27
 553 188 553 188 589 249 c 128,-1,28
 625 310 625 310 625 386 c 0,29,15
 625 443 625 443 600 487.5 c 128,-1,16
EndSplineSet
EndChar

StartChar: dcroat
Encoding: 273 273 212
Width: 675
Flags: W
LayerCount: 2
Fore
SplineSet
734 585 m 1,0,-1
 665 585 l 1,1,-1
 549 0 l 1,2,-1
 419 0 l 1,3,-1
 434 68 l 1,4,5
 398 33 398 33 351.5 13.5 c 128,-1,6
 305 -6 305 -6 252 -6 c 0,7,8
 187 -6 187 -6 137 23 c 128,-1,9
 87 52 87 52 59.5 104 c 128,-1,10
 32 156 32 156 32 224 c 0,11,12
 32 305 32 305 69.5 372 c 128,-1,13
 107 439 107 439 172.5 477 c 128,-1,14
 238 515 238 515 318 515 c 0,15,16
 456 515 456 515 500 412 c 1,17,-1
 535 585 l 1,18,-1
 339 585 l 1,19,-1
 353 658 l 1,20,-1
 549 658 l 1,21,-1
 566 742 l 1,22,-1
 696 742 l 1,23,-1
 679 658 l 1,24,-1
 748 658 l 1,25,-1
 734 585 l 1,0,-1
384.5 124 m 128,-1,27
 424 147 424 147 447 186 c 128,-1,28
 470 225 470 225 470 272 c 0,29,30
 470 330 470 330 433.5 365.5 c 128,-1,31
 397 401 397 401 337 401 c 0,32,33
 290 401 290 401 250 378 c 128,-1,34
 210 355 210 355 186.5 315.5 c 128,-1,35
 163 276 163 276 163 230 c 0,36,37
 163 172 163 172 200 136.5 c 128,-1,38
 237 101 237 101 297 101 c 0,39,26
 345 101 345 101 384.5 124 c 128,-1,27
EndSplineSet
Substitution2: "<3,3> Small Caps in Latin lookup 11 subtable" dcroat.sc
EndChar

StartChar: Eogonek
Encoding: 280 280 219
Width: 661
Flags: W
LayerCount: 2
Fore
SplineSet
283 583 m 1,0,-1
 248 410 l 1,1,-1
 589 410 l 1,2,-1
 566 293 l 1,3,-1
 225 293 l 1,4,-1
 190 117 l 1,5,-1
 580 117 l 1,6,-1
 558 0 l 1,7,8
 500 -37 500 -37 476 -61.5 c 128,-1,9
 452 -86 452 -86 452 -110 c 0,10,11
 452 -131 452 -131 474 -131 c 0,12,13
 492 -131 492 -131 507 -123 c 1,14,-1
 519 -203 l 1,15,16
 468 -223 468 -223 426 -223 c 0,17,18
 385 -223 385 -223 360.5 -202.5 c 128,-1,19
 336 -182 336 -182 336 -146 c 0,20,21
 336 -68 336 -68 426 0 c 1,22,-1
 33 0 l 1,23,-1
 173 700 l 1,24,-1
 685 700 l 1,25,-1
 663 583 l 1,26,-1
 283 583 l 1,0,-1
EndSplineSet
EndChar

StartChar: eogonek
Encoding: 281 281 220
Width: 608
Flags: W
LayerCount: 2
Fore
SplineSet
513.5 476.5 m 128,-1,1
 578 414 578 414 578 307 c 0,2,3
 578 265 578 265 568 222 c 1,4,-1
 162 222 l 1,5,6
 167 164 167 164 205 131 c 128,-1,7
 243 98 243 98 307 98 c 0,8,9
 383 98 383 98 447 146 c 1,10,-1
 508 67 l 1,11,12
 481 46 481 46 481 46 c 2,13,14
 436 10 436 10 405 -34 c 128,-1,15
 374 -78 374 -78 374 -108 c 0,16,17
 374 -131 374 -131 395 -131 c 0,18,19
 413 -131 413 -131 427 -123 c 1,20,-1
 439 -203 l 1,21,22
 387 -223 387 -223 347 -223 c 0,23,24
 305 -223 305 -223 281 -201.5 c 128,-1,25
 257 -180 257 -180 257 -140 c 0,26,27
 257 -106 257 -106 273.5 -73 c 128,-1,28
 290 -40 290 -40 326 -5 c 1,29,30
 318 -6 318 -6 303 -6 c 0,31,32
 222 -6 222 -6 161 24 c 128,-1,33
 100 54 100 54 66.5 109.5 c 128,-1,34
 33 165 33 165 33 238 c 0,35,36
 33 323 33 323 72.5 391.5 c 128,-1,37
 112 460 112 460 181.5 499.5 c 128,-1,38
 251 539 251 539 337 539 c 0,39,0
 449 539 449 539 513.5 476.5 c 128,-1,1
430 402.5 m 128,-1,41
 399 436 399 436 340 436 c 0,42,43
 282 436 282 436 236.5 401 c 128,-1,44
 191 366 191 366 172 309 c 1,45,-1
 459 309 l 1,46,40
 461 369 461 369 430 402.5 c 128,-1,41
EndSplineSet
Substitution2: "<3,3> Small Caps in Latin lookup 11 subtable" eogonek.sc
EndChar

StartChar: Hbar
Encoding: 294 294 233
Width: 855
Flags: W
LayerCount: 2
Fore
SplineSet
889 594 m 1,0,-1
 876 522 l 1,1,-1
 787 522 l 1,2,-1
 683 0 l 1,3,-1
 549 0 l 1,4,-1
 606 284 l 1,5,-1
 257 284 l 1,6,-1
 200 0 l 1,7,-1
 66 0 l 1,8,-1
 170 522 l 1,9,-1
 81 522 l 1,10,-1
 95 595 l 1,11,-1
 185 595 l 1,12,-1
 206 700 l 1,13,-1
 340 700 l 1,14,-1
 319 595 l 1,15,-1
 668 594 l 1,16,-1
 689 700 l 1,17,-1
 823 700 l 1,18,-1
 802 594 l 1,19,-1
 889 594 l 1,0,-1
629 401 m 1,20,-1
 653 522 l 1,21,-1
 304 522 l 1,22,-1
 280 401 l 1,23,-1
 629 401 l 1,20,-1
EndSplineSet
EndChar

StartChar: hbar
Encoding: 295 295 234
Width: 671
Flags: W
LayerCount: 2
Fore
SplineSet
569 470.5 m 128,-1,1
 621 425 621 425 621 349 c 0,2,3
 621 328 621 328 616 300 c 2,4,-1
 555 0 l 1,5,-1
 424 0 l 1,6,-1
 481 282 l 2,7,8
 484 296 484 296 484 309 c 0,9,10
 484 351 484 351 455.5 375 c 128,-1,11
 427 399 427 399 376 399 c 0,12,13
 318 399 318 399 275.5 363 c 128,-1,14
 233 327 233 327 220 268 c 2,15,-1
 165 0 l 1,16,-1
 34 0 l 1,17,-1
 150 585 l 1,18,-1
 80 585 l 1,19,-1
 94 658 l 1,20,-1
 164 658 l 1,21,-1
 181 742 l 1,22,-1
 312 742 l 1,23,-1
 295 658 l 1,24,-1
 490 658 l 1,25,-1
 476 585 l 1,26,-1
 281 585 l 1,27,-1
 252 439 l 1,28,29
 315 516 315 516 426 516 c 0,30,0
 517 516 517 516 569 470.5 c 128,-1,1
EndSplineSet
Substitution2: "<3,3> Small Caps in Latin lookup 11 subtable" hbar.sc
EndChar

StartChar: Iogonek
Encoding: 302 302 241
Width: 306
Flags: W
LayerCount: 2
Fore
SplineSet
307 700 m 1,0,-1
 167 0 l 1,1,-1
 158 0 l 1,2,3
 100 -37 100 -37 76 -61.5 c 128,-1,4
 52 -86 52 -86 52 -110 c 0,5,6
 52 -131 52 -131 74 -131 c 0,7,8
 92 -131 92 -131 107 -123 c 1,9,-1
 119 -203 l 1,10,11
 68 -223 68 -223 26 -223 c 0,12,13
 -15 -223 -15 -223 -39.5 -202.5 c 128,-1,14
 -64 -182 -64 -182 -64 -146 c 0,15,16
 -64 -108 -64 -108 -41 -69.5 c 128,-1,17
 -18 -31 -18 -31 34 6 c 1,18,-1
 173 700 l 1,19,-1
 307 700 l 1,0,-1
EndSplineSet
EndChar

StartChar: iogonek
Encoding: 303 303 242
Width: 291
Flags: W
LayerCount: 2
Fore
SplineSet
287 747 m 128,-1,1
 304 729 304 729 304 701 c 0,2,3
 304 663 304 663 277 636.5 c 128,-1,4
 250 610 250 610 214 610 c 0,5,6
 187 610 187 610 170 628 c 128,-1,7
 153 646 153 646 153 674 c 0,8,9
 153 712 153 712 180 738.5 c 128,-1,10
 207 765 207 765 243 765 c 0,11,0
 270 765 270 765 287 747 c 128,-1,1
134 535 m 1,12,-1
 264 535 l 1,13,-1
 157 0 l 1,14,-1
 149 0 l 1,15,16
 91 -37 91 -37 67 -61.5 c 128,-1,17
 43 -86 43 -86 43 -110 c 0,18,19
 43 -131 43 -131 65 -131 c 0,20,21
 83 -131 83 -131 98 -123 c 1,22,-1
 110 -203 l 1,23,24
 59 -223 59 -223 17 -223 c 0,25,26
 -24 -223 -24 -223 -48.5 -202.5 c 128,-1,27
 -73 -182 -73 -182 -73 -146 c 0,28,29
 -73 -62 -73 -62 30 9 c 1,30,-1
 134 535 l 1,12,-1
EndSplineSet
Substitution2: "<3,3> Small Caps in Latin lookup 11 subtable" iogonek.sc
EndChar

StartChar: dotlessi
Encoding: 305 305 244
Width: 291
Flags: W
LayerCount: 2
Fore
SplineSet
264 535 m 1,0,-1
 157 0 l 1,1,-1
 28 0 l 1,2,-1
 134 535 l 1,3,-1
 264 535 l 1,0,-1
EndSplineSet
Substitution2: "<3,3> Small Caps in Latin lookup 11 subtable" dotlessi.sc
EndChar

StartChar: kgreenlandic
Encoding: 312 312 251
Width: 618
Flags: W
LayerCount: 2
Fore
SplineSet
651 535 m 1,0,-1
 399 318 l 1,1,-1
 548 0 l 1,2,-1
 392 0 l 1,3,-1
 295 228 l 1,4,-1
 184 132 l 1,5,-1
 158 0 l 1,6,-1
 28 0 l 1,7,-1
 134 535 l 1,8,-1
 265 535 l 1,9,-1
 221 315 l 1,10,-1
 483 535 l 1,11,-1
 651 535 l 1,0,-1
EndSplineSet
Substitution2: "<3,3> Small Caps in Latin lookup 11 subtable" kgreenlandic.sc
EndChar

StartChar: Lslash
Encoding: 321 321 260
Width: 570
Flags: W
LayerCount: 2
Fore
SplineSet
219 121 m 1,0,-1
 520 121 l 1,1,-1
 497 0 l 1,2,-1
 62 0 l 1,3,-1
 120 291 l 1,4,-1
 25 244 l 1,5,-1
 41 329 l 1,6,-1
 137 377 l 1,7,-1
 202 700 l 1,8,-1
 336 700 l 1,9,-1
 286 450 l 1,10,-1
 418 515 l 1,11,-1
 402 429 l 1,12,-1
 268 363 l 1,13,-1
 219 121 l 1,0,-1
EndSplineSet
EndChar

StartChar: lslash
Encoding: 322 322 261
Width: 386
Flags: W
LayerCount: 2
Fore
SplineSet
415 515 m 1,0,-1
 399 429 l 1,1,-1
 282 371 l 1,2,-1
 208 0 l 1,3,-1
 78 0 l 1,4,-1
 138 300 l 1,5,-1
 24 244 l 1,6,-1
 40 329 l 1,7,-1
 155 386 l 1,8,-1
 226 742 l 1,9,-1
 356 742 l 1,10,-1
 299 458 l 1,11,-1
 415 515 l 1,0,-1
EndSplineSet
Substitution2: "<3,3> Small Caps in Latin lookup 11 subtable" lslash.sc
EndChar

StartChar: Eng
Encoding: 330 330 269
Width: 790
Flags: W
LayerCount: 2
Fore
SplineSet
650 0 m 2,0,1
 629 -96 629 -96 557.5 -152 c 128,-1,2
 486 -208 486 -208 384 -208 c 0,3,4
 270 -208 270 -208 207 -137 c 1,5,-1
 286 -31 l 1,6,7
 312 -55 312 -55 344.5 -67.5 c 128,-1,8
 377 -80 377 -80 407 -80 c 0,9,10
 447 -80 447 -80 476.5 -57.5 c 128,-1,11
 506 -35 506 -35 519 7 c 1,12,-1
 262 478 l 1,13,-1
 164 0 l 1,14,-1
 33 0 l 1,15,-1
 173 700 l 1,16,-1
 300 700 l 1,17,-1
 562 221 l 1,18,-1
 661 700 l 1,19,-1
 790 700 l 1,20,-1
 650 0 l 2,0,1
EndSplineSet
EndChar

StartChar: eng
Encoding: 331 331 270
Width: 666
Flags: W
LayerCount: 2
Fore
SplineSet
577.5 500 m 128,-1,1
 620 460 620 460 620 388 c 0,2,3
 620 363 620 363 614 334 c 2,4,-1
 544 -17 l 2,5,6
 533 -76 533 -76 499.5 -117.5 c 128,-1,7
 466 -159 466 -159 421 -179.5 c 128,-1,8
 376 -200 376 -200 328 -200 c 0,9,10
 262 -200 262 -200 218 -164 c 1,11,-1
 276 -64 l 1,12,13
 304 -87 304 -87 338 -87 c 0,14,15
 365 -87 365 -87 385.5 -70 c 128,-1,16
 406 -53 406 -53 412 -19 c 2,17,-1
 477 296 l 2,18,19
 480 313 480 313 480 328 c 0,20,21
 480 370 480 370 455 393.5 c 128,-1,22
 430 417 430 417 383 417 c 0,23,24
 321 417 321 417 274 379 c 128,-1,25
 227 341 227 341 215 280 c 2,26,-1
 158 0 l 1,27,-1
 28 0 l 1,28,-1
 134 535 l 1,29,-1
 265 535 l 1,30,-1
 245 439 l 1,31,32
 323 540 323 540 458 540 c 0,33,0
 535 540 535 540 577.5 500 c 128,-1,1
EndSplineSet
Substitution2: "<3,3> Small Caps in Latin lookup 11 subtable" eng.sc
EndChar

StartChar: OE
Encoding: 338 338 277
Width: 1106
Flags: W
LayerCount: 2
Fore
SplineSet
730 583 m 1,0,-1
 695 410 l 1,1,-1
 1034 410 l 1,2,-1
 1012 293 l 1,3,-1
 671 293 l 1,4,-1
 635 117 l 1,5,-1
 1025 117 l 1,6,-1
 1003 0 l 1,7,-1
 390 0 l 2,8,9
 294 0 294 0 216.5 42.5 c 128,-1,10
 139 85 139 85 94.5 160 c 128,-1,11
 50 235 50 235 50 328 c 0,12,13
 50 430 50 430 105.5 515.5 c 128,-1,14
 161 601 161 601 255 650.5 c 128,-1,15
 349 700 349 700 460 700 c 2,16,-1
 1132 700 l 1,17,-1
 1109 583 l 1,18,-1
 730 583 l 1,0,-1
502 118 m 1,19,-1
 594 580 l 1,20,-1
 450 580 l 2,21,22
 380 580 380 580 319.5 547 c 128,-1,23
 259 514 259 514 223.5 458 c 128,-1,24
 188 402 188 402 188 334 c 0,25,26
 188 273 188 273 215.5 223.5 c 128,-1,27
 243 174 243 174 292 146 c 128,-1,28
 341 118 341 118 402 118 c 2,29,-1
 502 118 l 1,19,-1
EndSplineSet
EndChar

StartChar: oe
Encoding: 339 339 278
Width: 1040
Flags: W
LayerCount: 2
Fore
SplineSet
942 473 m 128,-1,1
 1007 407 1007 407 1007 294 c 0,2,3
 1007 263 1007 263 1003 238 c 1,4,-1
 590 238 l 1,5,6
 594 174 594 174 633 137 c 128,-1,7
 672 100 672 100 734 100 c 0,8,9
 776 100 776 100 815 115.5 c 128,-1,10
 854 131 854 131 886 160 c 1,11,-1
 948 87 l 1,12,13
 903 43 903 43 843 19 c 128,-1,14
 783 -5 783 -5 713 -5 c 0,15,16
 644 -5 644 -5 594 23.5 c 128,-1,17
 544 52 544 52 517 104 c 1,18,19
 479 52 479 52 421 23.5 c 128,-1,20
 363 -5 363 -5 291 -5 c 0,21,22
 213 -5 213 -5 155 25.5 c 128,-1,23
 97 56 97 56 65 112 c 128,-1,24
 33 168 33 168 33 241 c 0,25,26
 33 328 33 328 73 395.5 c 128,-1,27
 113 463 113 463 184 501 c 128,-1,28
 255 539 255 539 344 539 c 0,29,30
 414 539 414 539 465.5 510.5 c 128,-1,31
 517 482 517 482 544 429 c 1,32,33
 581 482 581 482 637.5 510.5 c 128,-1,34
 694 539 694 539 764 539 c 0,35,0
 877 539 877 539 942 473 c 128,-1,1
850 405.5 m 128,-1,37
 816 444 816 444 756 444 c 0,38,39
 697 444 697 444 653 406 c 128,-1,40
 609 368 609 368 595 307 c 1,41,-1
 879 307 l 1,42,36
 884 367 884 367 850 405.5 c 128,-1,37
386.5 127 m 128,-1,44
 425 150 425 150 447 191 c 128,-1,45
 469 232 469 232 469 284 c 0,46,47
 469 348 469 348 432 388 c 128,-1,48
 395 428 395 428 334 428 c 0,49,50
 286 428 286 428 247.5 405 c 128,-1,51
 209 382 209 382 187 341 c 128,-1,52
 165 300 165 300 165 248 c 0,53,54
 165 183 165 183 202.5 143.5 c 128,-1,55
 240 104 240 104 301 104 c 0,56,43
 348 104 348 104 386.5 127 c 128,-1,44
EndSplineSet
Substitution2: "<3,3> Small Caps in Latin lookup 11 subtable" oe.sc
EndChar

StartChar: Scedilla
Encoding: 350 350 289
Width: 619
Flags: W
LayerCount: 2
Fore
SplineSet
245 469 m 128,-1,1
 263 451 263 451 289.5 440 c 128,-1,2
 316 429 316 429 364 414 c 0,3,4
 428 394 428 394 468 375 c 128,-1,5
 508 356 508 356 536.5 320.5 c 128,-1,6
 565 285 565 285 565 228 c 0,7,8
 565 126 565 126 494 63.5 c 128,-1,9
 423 1 423 1 309 -8 c 1,10,-1
 284 -51 l 1,11,12
 319 -58 319 -58 335 -76.5 c 128,-1,13
 351 -95 351 -95 351 -120 c 0,14,15
 351 -171 351 -171 311 -197.5 c 128,-1,16
 271 -224 271 -224 211 -224 c 0,17,18
 159 -224 159 -224 112 -203 c 1,19,-1
 152 -128 l 1,20,21
 181 -139 181 -139 206 -139 c 0,22,23
 226 -139 226 -139 238.5 -131.5 c 128,-1,24
 251 -124 251 -124 251 -113 c 0,25,26
 251 -104 251 -104 238.5 -97.5 c 128,-1,27
 226 -91 226 -91 205 -91 c 2,28,-1
 176 -91 l 1,29,-1
 220 -5 l 1,30,31
 154 4 154 4 94 32.5 c 128,-1,32
 34 61 34 61 -9 104 c 1,33,-1
 58 218 l 1,34,35
 106 169 106 169 169 141 c 128,-1,36
 232 113 232 113 289 113 c 0,37,38
 349 113 349 113 383 136.5 c 128,-1,39
 417 160 417 160 417 202 c 0,40,41
 417 229 417 229 399 246.5 c 128,-1,42
 381 264 381 264 353.5 275.5 c 128,-1,43
 326 287 326 287 279 301 c 0,44,45
 215 320 215 320 174.5 338.5 c 128,-1,46
 134 357 134 357 105.5 392 c 128,-1,47
 77 427 77 427 77 484 c 0,48,49
 77 551 77 551 113 603 c 128,-1,50
 149 655 149 655 213.5 683 c 128,-1,51
 278 711 278 711 360 711 c 0,52,53
 429 711 429 711 493 691 c 128,-1,54
 557 671 557 671 606 636 c 1,55,-1
 541 520 l 1,56,57
 491 553 491 553 436 570.5 c 128,-1,58
 381 588 381 588 338 588 c 0,59,60
 288 588 288 588 257.5 568.5 c 128,-1,61
 227 549 227 549 227 514 c 0,62,0
 227 487 227 487 245 469 c 128,-1,1
EndSplineSet
EndChar

StartChar: scedilla
Encoding: 351 351 290
Width: 492
Flags: W
LayerCount: 2
Fore
SplineSet
217 351.5 m 128,-1,1
 238 338 238 338 285 318 c 0,2,3
 333 298 333 298 363 281.5 c 128,-1,4
 393 265 393 265 415 235.5 c 128,-1,5
 437 206 437 206 437 162 c 0,6,7
 437 114 437 114 411.5 76 c 128,-1,8
 386 38 386 38 340.5 16.5 c 128,-1,9
 295 -5 295 -5 237 -6 c 1,10,-1
 211 -51 l 1,11,12
 246 -58 246 -58 262 -76.5 c 128,-1,13
 278 -95 278 -95 278 -120 c 0,14,15
 278 -171 278 -171 238 -197.5 c 128,-1,16
 198 -224 198 -224 138 -224 c 0,17,18
 86 -224 86 -224 39 -203 c 1,19,-1
 79 -128 l 1,20,21
 108 -139 108 -139 133 -139 c 0,22,23
 153 -139 153 -139 165.5 -131.5 c 128,-1,24
 178 -124 178 -124 178 -113 c 0,25,26
 178 -104 178 -104 165.5 -97.5 c 128,-1,27
 153 -91 153 -91 132 -91 c 2,28,-1
 103 -91 l 1,29,-1
 152 3 l 1,30,31
 101 15 101 15 57 39 c 128,-1,32
 13 63 13 63 -14 95 c 1,33,-1
 42 180 l 1,34,35
 76 143 76 143 128 119 c 128,-1,36
 180 95 180 95 226 95 c 0,37,38
 263 95 263 95 285 110.5 c 128,-1,39
 307 126 307 126 307 152 c 0,40,41
 307 175 307 175 285 190 c 128,-1,42
 263 205 263 205 217 223 c 0,43,44
 171 242 171 242 141.5 258 c 128,-1,45
 112 274 112 274 91 303 c 128,-1,46
 70 332 70 332 70 375 c 0,47,48
 70 424 70 424 95 461 c 128,-1,49
 120 498 120 498 165 519 c 128,-1,50
 210 540 210 540 269 540 c 0,51,52
 329 540 329 540 389.5 518.5 c 128,-1,53
 450 497 450 497 491 461 c 1,54,-1
 429 375 l 1,55,56
 390 404 390 404 346 421.5 c 128,-1,57
 302 439 302 439 268 439 c 0,58,59
 237 439 237 439 216.5 424 c 128,-1,60
 196 409 196 409 196 387 c 256,61,0
 196 365 196 365 217 351.5 c 128,-1,1
EndSplineSet
Substitution2: "<3,3> Small Caps in Latin lookup 11 subtable" scedilla.sc
EndChar

StartChar: uni0162
Encoding: 354 354 293
Width: 588
Flags: W
LayerCount: 2
Fore
SplineSet
286 0 m 1,0,-1
 257 -51 l 1,1,2
 292 -58 292 -58 308 -76.5 c 128,-1,3
 324 -95 324 -95 324 -120 c 0,4,5
 324 -171 324 -171 284 -197.5 c 128,-1,6
 244 -224 244 -224 184 -224 c 0,7,8
 132 -224 132 -224 85 -203 c 1,9,-1
 125 -128 l 1,10,11
 154 -139 154 -139 179 -139 c 0,12,13
 199 -139 199 -139 211.5 -131.5 c 128,-1,14
 224 -124 224 -124 224 -113 c 0,15,16
 224 -104 224 -104 211.5 -97.5 c 128,-1,17
 199 -91 199 -91 178 -91 c 2,18,-1
 149 -91 l 1,19,-1
 196 0 l 1,20,-1
 173 0 l 1,21,-1
 291 581 l 1,22,-1
 73 581 l 1,23,-1
 95 700 l 1,24,-1
 666 700 l 1,25,-1
 644 581 l 1,26,-1
 425 581 l 1,27,-1
 307 0 l 1,28,-1
 286 0 l 1,0,-1
EndSplineSet
EndChar

StartChar: uni0163
Encoding: 355 355 294
Width: 417
Flags: W
LayerCount: 2
Fore
SplineSet
212 171 m 2,0,1
 209 155 209 155 209 144 c 0,2,3
 209 124 209 124 218.5 116.5 c 128,-1,4
 228 109 228 109 248 109 c 0,5,6
 279 109 279 109 332 133 c 1,7,-1
 350 30 l 1,8,9
 297 1 297 1 241 -4 c 1,10,-1
 215 -51 l 1,11,12
 250 -58 250 -58 266 -76.5 c 128,-1,13
 282 -95 282 -95 282 -120 c 0,14,15
 282 -171 282 -171 242 -197.5 c 128,-1,16
 202 -224 202 -224 142 -224 c 0,17,18
 90 -224 90 -224 43 -203 c 1,19,-1
 83 -128 l 1,20,21
 112 -139 112 -139 137 -139 c 0,22,23
 157 -139 157 -139 169.5 -131.5 c 128,-1,24
 182 -124 182 -124 182 -113 c 0,25,26
 182 -104 182 -104 169.5 -97.5 c 128,-1,27
 157 -91 157 -91 136 -91 c 2,28,-1
 107 -91 l 1,29,-1
 155 3 l 1,30,31
 119 15 119 15 98 44.5 c 128,-1,32
 77 74 77 74 77 118 c 0,33,34
 77 140 77 140 81 160 c 2,35,-1
 133 418 l 1,36,-1
 59 418 l 1,37,-1
 77 513 l 1,38,-1
 152 513 l 1,39,-1
 181 660 l 1,40,-1
 311 660 l 1,41,-1
 281 513 l 1,42,-1
 434 513 l 1,43,-1
 417 418 l 1,44,-1
 262 418 l 1,45,-1
 212 171 l 2,0,1
EndSplineSet
Substitution2: "<3,3> Small Caps in Latin lookup 11 subtable" uni0163.sc
EndChar

StartChar: Tbar
Encoding: 358 358 297
Width: 588
Flags: W
LayerCount: 2
Fore
SplineSet
644 581 m 1,0,-1
 425 581 l 1,1,-1
 380 362 l 1,2,-1
 522 362 l 1,3,-1
 507 284 l 1,4,-1
 365 284 l 1,5,-1
 307 0 l 1,6,-1
 173 0 l 1,7,-1
 231 284 l 1,8,-1
 86 284 l 1,9,-1
 100 362 l 1,10,-1
 246 362 l 1,11,-1
 291 581 l 1,12,-1
 73 581 l 1,13,-1
 95 700 l 1,14,-1
 666 700 l 1,15,-1
 644 581 l 1,0,-1
EndSplineSet
EndChar

StartChar: tbar
Encoding: 359 359 298
Width: 415
Flags: W
LayerCount: 2
Fore
SplineSet
263 423 m 1,0,-1
 246 336 l 1,1,-1
 399 336 l 1,2,-1
 382 246 l 1,3,-1
 228 246 l 1,4,-1
 214 177 l 2,5,6
 211 162 211 162 211 150 c 0,7,8
 211 109 211 109 254 109 c 0,9,10
 284 109 284 109 336 131 c 1,11,-1
 348 33 l 1,12,13
 275 -6 275 -6 206 -6 c 0,14,15
 147 -6 147 -6 111 24 c 128,-1,16
 75 54 75 54 75 112 c 0,17,18
 75 134 75 134 79 154 c 2,19,-1
 98 246 l 1,20,-1
 24 246 l 1,21,-1
 41 336 l 1,22,-1
 116 336 l 1,23,-1
 133 423 l 1,24,-1
 60 423 l 1,25,-1
 77 513 l 1,26,-1
 151 513 l 1,27,-1
 181 660 l 1,28,-1
 311 660 l 1,29,-1
 281 513 l 1,30,-1
 434 513 l 1,31,-1
 417 423 l 1,32,-1
 263 423 l 1,0,-1
EndSplineSet
Substitution2: "<3,3> Small Caps in Latin lookup 11 subtable" tbar.sc
EndChar

StartChar: Uogonek
Encoding: 370 370 309
Width: 763
Flags: W
LayerCount: 2
Fore
SplineSet
778 700 m 1,0,-1
 696 292 l 2,1,2
 679 207 679 207 636 143 c 128,-1,3
 593 79 593 79 529 42 c 1,4,5
 486 6 486 6 456.5 -36.5 c 128,-1,6
 427 -79 427 -79 427 -108 c 0,7,8
 427 -131 427 -131 448 -131 c 0,9,10
 466 -131 466 -131 480 -123 c 1,11,-1
 492 -203 l 1,12,13
 440 -223 440 -223 400 -223 c 0,14,15
 358 -223 358 -223 334 -201.5 c 128,-1,16
 310 -180 310 -180 310 -140 c 0,17,18
 310 -70 310 -70 380 -4 c 1,19,20
 352 -6 352 -6 338 -6 c 0,21,22
 213 -6 213 -6 142 55 c 128,-1,23
 71 116 71 116 71 222 c 0,24,25
 71 258 71 258 78 292 c 2,26,-1
 159 700 l 1,27,-1
 293 700 l 1,28,-1
 212 292 l 2,29,30
 207 271 207 271 207 244 c 0,31,32
 207 183 207 183 245.5 148.5 c 128,-1,33
 284 114 284 114 352 114 c 0,34,35
 432 114 432 114 488 161 c 128,-1,36
 544 208 544 208 561 292 c 2,37,-1
 643 700 l 1,38,-1
 778 700 l 1,0,-1
EndSplineSet
EndChar

StartChar: uogonek
Encoding: 371 371 310
Width: 668
Flags: W
LayerCount: 2
Fore
SplineSet
639 535 m 1,0,-1
 534 0 l 1,1,-1
 526 0 l 1,2,3
 468 -37 468 -37 444 -61.5 c 128,-1,4
 420 -86 420 -86 420 -110 c 0,5,6
 420 -131 420 -131 442 -131 c 0,7,8
 460 -131 460 -131 475 -123 c 1,9,-1
 487 -203 l 1,10,11
 436 -223 436 -223 394 -223 c 0,12,13
 353 -223 353 -223 328.5 -202.5 c 128,-1,14
 304 -182 304 -182 304 -146 c 0,15,16
 304 -65 304 -65 403 6 c 1,17,-1
 417 76 l 1,18,19
 354 -7 354 -7 243 -7 c 0,20,21
 153 -7 153 -7 101.5 39.5 c 128,-1,22
 50 86 50 86 50 165 c 0,23,24
 50 192 50 192 56 220 c 2,25,-1
 119 535 l 1,26,-1
 250 535 l 1,27,-1
 191 239 l 2,28,29
 188 223 188 223 188 207 c 0,30,31
 188 162 188 162 216 136 c 128,-1,32
 244 110 244 110 294 110 c 0,33,34
 351 110 351 110 394.5 149 c 128,-1,35
 438 188 438 188 451 252 c 2,36,-1
 509 535 l 1,37,-1
 639 535 l 1,0,-1
EndSplineSet
Substitution2: "<3,3> Small Caps in Latin lookup 11 subtable" uogonek.sc
EndChar

StartChar: uni018F
Encoding: 399 399 322
Width: 789
Flags: W
LayerCount: 2
Fore
SplineSet
615.5 667 m 128,-1,1
 690 625 690 625 732 550.5 c 128,-1,2
 774 476 774 476 774 384 c 0,3,4
 774 277 774 277 721 186.5 c 128,-1,5
 668 96 668 96 578 43 c 128,-1,6
 488 -10 488 -10 383 -10 c 0,7,8
 284 -10 284 -10 209.5 33.5 c 128,-1,9
 135 77 135 77 94.5 155.5 c 128,-1,10
 54 234 54 234 54 337 c 0,11,12
 54 352 54 352 56 384 c 1,13,-1
 642 384 l 1,14,15
 641 441 641 441 613.5 488 c 128,-1,16
 586 535 586 535 540 562 c 128,-1,17
 494 589 494 589 439 589 c 0,18,19
 381 589 381 589 327.5 562.5 c 128,-1,20
 274 536 274 536 237 490 c 1,21,-1
 150 586 l 1,22,23
 275 709 275 709 447 709 c 0,24,0
 541 709 541 709 615.5 667 c 128,-1,1
533.5 155.5 m 128,-1,26
 597 200 597 200 625 277 c 1,27,-1
 192 277 l 1,28,29
 205 202 205 202 259.5 156.5 c 128,-1,30
 314 111 314 111 396 111 c 0,31,25
 470 111 470 111 533.5 155.5 c 128,-1,26
EndSplineSet
EndChar

StartChar: florin
Encoding: 402 402 323
Width: 434
Flags: W
LayerCount: 2
Fore
SplineSet
332.5 620 m 128,-1,1
 307 597 307 597 299 559 c 2,2,-1
 281 465 l 1,3,-1
 414 465 l 1,4,-1
 397 371 l 1,5,-1
 263 371 l 1,6,-1
 185 -30 l 2,7,8
 169 -110 169 -110 118 -155 c 128,-1,9
 67 -200 67 -200 -10 -200 c 0,10,11
 -40 -200 -40 -200 -71.5 -189 c 128,-1,12
 -103 -178 -103 -178 -123 -161 c 1,13,-1
 -84 -67 l 1,14,15
 -71 -78 -71 -78 -54 -84.5 c 128,-1,16
 -37 -91 -37 -91 -22 -91 c 0,17,18
 10 -91 10 -91 30 -68 c 128,-1,19
 50 -45 50 -45 58 -6 c 2,20,-1
 131 371 l 1,21,-1
 62 371 l 1,22,-1
 79 465 l 1,23,-1
 149 465 l 1,24,-1
 172 582 l 2,25,26
 188 661 188 661 243 706.5 c 128,-1,27
 298 752 298 752 376 752 c 0,28,29
 412 752 412 752 448 741 c 128,-1,30
 484 730 484 730 510 713 c 1,31,-1
 460 619 l 1,32,33
 446 630 446 630 427 636.5 c 128,-1,34
 408 643 408 643 392 643 c 0,35,0
 358 643 358 643 332.5 620 c 128,-1,1
EndSplineSet
EndChar

StartChar: Ohorn
Encoding: 416 416 324
Width: 851
Flags: W
LayerCount: 2
Fore
SplineSet
844 766 m 0,1,2
 844 706 844 706 810.5 662 c 128,-1,3
 777 618 777 618 720 599 c 1,4,5
 759 556 759 556 779.5 500.5 c 128,-1,6
 800 445 800 445 800 381 c 0,7,8
 800 274 800 274 744 184.5 c 128,-1,9
 688 95 688 95 593.5 42.5 c 128,-1,10
 499 -10 499 -10 389 -10 c 0,11,12
 292 -10 292 -10 214.5 33.5 c 128,-1,13
 137 77 137 77 93.5 152 c 128,-1,14
 50 227 50 227 50 320 c 0,15,16
 50 427 50 427 105.5 516.5 c 128,-1,17
 161 606 161 606 255.5 657.5 c 128,-1,18
 350 709 350 709 461 709 c 0,19,20
 546 709 546 709 621 674 c 0,21,22
 636 668 636 668 654 668 c 0,23,24
 689 668 689 668 710.5 694.5 c 128,-1,25
 732 721 732 721 732 757 c 0,26,27
 732 780 732 780 721 804 c 1,28,-1
 831 841 l 1,29,0
 844 803 844 803 844 766 c 0,1,2
529.5 146 m 128,-1,31
 589 181 589 181 625 241 c 128,-1,32
 661 301 661 301 661 371 c 0,33,34
 661 432 661 432 633.5 482 c 128,-1,35
 606 532 606 532 558 560.5 c 128,-1,36
 510 589 510 589 451 589 c 0,37,38
 382 589 382 589 321 554 c 128,-1,39
 260 519 260 519 223.5 459.5 c 128,-1,40
 187 400 187 400 187 330 c 0,41,42
 187 269 187 269 215.5 219 c 128,-1,43
 244 169 244 169 293 140 c 128,-1,44
 342 111 342 111 402 111 c 0,45,30
 470 111 470 111 529.5 146 c 128,-1,31
EndSplineSet
EndChar

StartChar: ohorn
Encoding: 417 417 325
Width: 642
Flags: W
LayerCount: 2
Fore
SplineSet
700 600 m 0,1,2
 700 538 700 538 663 492 c 128,-1,3
 626 446 626 446 565 430 c 1,4,5
 601 371 601 371 601 294 c 0,6,7
 601 207 601 207 560.5 139 c 128,-1,8
 520 71 520 71 449.5 33 c 128,-1,9
 379 -5 379 -5 290 -5 c 0,10,11
 213 -5 213 -5 154.5 26 c 128,-1,12
 96 57 96 57 64.5 112.5 c 128,-1,13
 33 168 33 168 33 241 c 0,14,15
 33 328 33 328 73 395.5 c 128,-1,16
 113 463 113 463 184 501 c 128,-1,17
 255 539 255 539 344 539 c 0,18,19
 425 539 425 539 485 505 c 0,20,21
 495 502 495 502 510 502 c 0,22,23
 545 502 545 502 566.5 528.5 c 128,-1,24
 588 555 588 555 588 591 c 0,25,26
 588 614 588 614 577 638 c 1,27,-1
 687 675 l 1,28,0
 700 637 700 637 700 600 c 0,1,2
386 127 m 128,-1,30
 424 150 424 150 446 191 c 128,-1,31
 468 232 468 232 468 284 c 0,32,33
 468 348 468 348 431.5 388 c 128,-1,34
 395 428 395 428 334 428 c 0,35,36
 286 428 286 428 247.5 405 c 128,-1,37
 209 382 209 382 187 341 c 128,-1,38
 165 300 165 300 165 248 c 0,39,40
 165 183 165 183 202 143.5 c 128,-1,41
 239 104 239 104 300 104 c 0,42,29
 348 104 348 104 386 127 c 128,-1,30
EndSplineSet
Substitution2: "<3,3> Small Caps in Latin lookup 11 subtable" ohorn.sc
EndChar

StartChar: Uhorn
Encoding: 431 431 326
Width: 818
Flags: W
LayerCount: 2
Fore
SplineSet
908 787 m 0,1,2
 908 722 908 722 870 680 c 128,-1,3
 832 638 832 638 763 626 c 1,4,-1
 696 292 l 2,5,6
 668 153 668 153 574 73.5 c 128,-1,7
 480 -6 480 -6 338 -6 c 0,8,9
 213 -6 213 -6 142 55 c 128,-1,10
 71 116 71 116 71 222 c 0,11,12
 71 258 71 258 78 292 c 2,13,-1
 159 700 l 1,14,-1
 293 700 l 1,15,-1
 212 292 l 2,16,17
 207 271 207 271 207 244 c 0,18,19
 207 183 207 183 245.5 148.5 c 128,-1,20
 284 114 284 114 352 114 c 0,21,22
 432 114 432 114 488 161 c 128,-1,23
 544 208 544 208 561 292 c 2,24,-1
 643 700 l 1,25,-1
 728 700 l 1,26,-1
 728 701 l 1,27,28
 767 701 767 701 786 719.5 c 128,-1,29
 805 738 805 738 805 768 c 0,30,31
 805 786 805 786 799 805 c 1,32,-1
 902 841 l 1,33,0
 908 813 908 813 908 787 c 0,1,2
EndSplineSet
EndChar

StartChar: uhorn
Encoding: 432 432 327
Width: 677
Flags: W
LayerCount: 2
Fore
SplineSet
770 621 m 0,1,2
 770 556 770 556 732 514 c 128,-1,3
 694 472 694 472 624 460 c 1,4,-1
 534 0 l 1,5,-1
 402 0 l 1,6,-1
 417 76 l 1,7,8
 354 -7 354 -7 243 -7 c 0,9,10
 153 -7 153 -7 101.5 39.5 c 128,-1,11
 50 86 50 86 50 165 c 0,12,13
 50 192 50 192 56 220 c 2,14,-1
 119 535 l 1,15,-1
 250 535 l 1,16,-1
 191 239 l 2,17,18
 188 223 188 223 188 207 c 0,19,20
 188 162 188 162 216 136 c 128,-1,21
 244 110 244 110 294 110 c 0,22,23
 351 110 351 110 394.5 149 c 128,-1,24
 438 188 438 188 451 252 c 2,25,-1
 509 535 l 1,26,-1
 590 535 l 2,27,28
 629 535 629 535 648 553.5 c 128,-1,29
 667 572 667 572 667 602 c 0,30,31
 667 620 667 620 661 639 c 1,32,-1
 764 675 l 1,33,0
 770 647 770 647 770 621 c 0,1,2
EndSplineSet
Substitution2: "<3,3> Small Caps in Latin lookup 11 subtable" uhorn.sc
EndChar

StartChar: uni01EA
Encoding: 490 490 339
Width: 815
Flags: W
LayerCount: 2
Fore
SplineSet
744.5 184.5 m 128,-1,1
 689 95 689 95 596 43 c 1,2,3
 552 7 552 7 522 -36 c 128,-1,4
 492 -79 492 -79 492 -108 c 0,5,6
 492 -131 492 -131 513 -131 c 0,7,8
 531 -131 531 -131 545 -123 c 1,9,-1
 557 -203 l 1,10,11
 505 -223 505 -223 465 -223 c 0,12,13
 423 -223 423 -223 399 -201.5 c 128,-1,14
 375 -180 375 -180 375 -140 c 0,15,16
 375 -71 375 -71 442 -7 c 1,17,18
 417 -10 417 -10 389 -10 c 0,19,20
 292 -10 292 -10 214.5 33.5 c 128,-1,21
 137 77 137 77 93.5 152 c 128,-1,22
 50 227 50 227 50 320 c 0,23,24
 50 427 50 427 105.5 516.5 c 128,-1,25
 161 606 161 606 255.5 657.5 c 128,-1,26
 350 709 350 709 461 709 c 0,27,28
 558 709 558 709 635.5 666.5 c 128,-1,29
 713 624 713 624 756.5 549 c 128,-1,30
 800 474 800 474 800 381 c 0,31,0
 800 274 800 274 744.5 184.5 c 128,-1,1
529.5 146 m 128,-1,33
 589 181 589 181 625 241 c 128,-1,34
 661 301 661 301 661 371 c 0,35,36
 661 432 661 432 633.5 482 c 128,-1,37
 606 532 606 532 558 560.5 c 128,-1,38
 510 589 510 589 451 589 c 0,39,40
 382 589 382 589 321 554 c 128,-1,41
 260 519 260 519 223.5 459.5 c 128,-1,42
 187 400 187 400 187 330 c 0,43,44
 187 269 187 269 215.5 219 c 128,-1,45
 244 169 244 169 293 140 c 128,-1,46
 342 111 342 111 402 111 c 0,47,32
 470 111 470 111 529.5 146 c 128,-1,33
EndSplineSet
EndChar

StartChar: uni01EB
Encoding: 491 491 340
Width: 634
Flags: W
LayerCount: 2
Fore
SplineSet
564 145 m 128,-1,1
 527 79 527 79 462 40 c 1,2,3
 419 4 419 4 390.5 -38 c 128,-1,4
 362 -80 362 -80 362 -108 c 0,5,6
 362 -131 362 -131 383 -131 c 0,7,8
 401 -131 401 -131 415 -123 c 1,9,-1
 427 -203 l 1,10,11
 375 -223 375 -223 335 -223 c 0,12,13
 293 -223 293 -223 269 -201.5 c 128,-1,14
 245 -180 245 -180 245 -140 c 0,15,16
 245 -70 245 -70 315 -4 c 1,17,18
 307 -5 307 -5 290 -5 c 0,19,20
 213 -5 213 -5 154.5 26 c 128,-1,21
 96 57 96 57 64.5 112.5 c 128,-1,22
 33 168 33 168 33 241 c 0,23,24
 33 328 33 328 73 395.5 c 128,-1,25
 113 463 113 463 184 501 c 128,-1,26
 255 539 255 539 344 539 c 0,27,28
 421 539 421 539 479.5 508.5 c 128,-1,29
 538 478 538 478 569.5 422 c 128,-1,30
 601 366 601 366 601 294 c 0,31,0
 601 211 601 211 564 145 c 128,-1,1
202 143.5 m 128,-1,33
 239 104 239 104 300 104 c 0,34,35
 348 104 348 104 386 127 c 128,-1,36
 424 150 424 150 446 191 c 128,-1,37
 468 232 468 232 468 284 c 0,38,39
 468 348 468 348 431.5 388 c 128,-1,40
 395 428 395 428 334 428 c 0,41,42
 286 428 286 428 247.5 405 c 128,-1,43
 209 382 209 382 187 341 c 128,-1,44
 165 300 165 300 165 248 c 0,45,32
 165 183 165 183 202 143.5 c 128,-1,33
EndSplineSet
Substitution2: "<3,3> Small Caps in Latin lookup 11 subtable" uni01EB.sc
EndChar

StartChar: uni0237
Encoding: 567 567 383
Width: 290
Flags: W
LayerCount: 2
Fore
SplineSet
-70 -90 m 0,1,2
 -34 -91 -34 -91 -9 -66 c 128,-1,3
 16 -41 16 -41 25 3 c 2,4,-1
 131 535 l 1,5,-1
 262 535 l 1,6,-1
 150 -28 l 2,7,8
 134 -111 134 -111 83 -155 c 128,-1,9
 32 -199 32 -199 -44 -199 c 0,10,11
 -96 -199 -96 -199 -144 -179 c 1,12,-1
 -106 -84 l 1,13,0
 -95 -88 -95 -88 -70 -90 c 0,1,2
EndSplineSet
EndChar

StartChar: uni0259
Encoding: 601 601 384
Width: 608
Flags: W
LayerCount: 2
Fore
SplineSet
448 509 m 128,-1,1
 509 479 509 479 542 423.5 c 128,-1,2
 575 368 575 368 575 295 c 0,3,4
 575 210 575 210 535.5 141.5 c 128,-1,5
 496 73 496 73 427 33.5 c 128,-1,6
 358 -6 358 -6 272 -6 c 0,7,8
 159 -6 159 -6 94.5 57 c 128,-1,9
 30 120 30 120 30 227 c 0,10,11
 30 268 30 268 40 311 c 1,12,-1
 446 311 l 1,13,14
 441 369 441 369 403 402 c 128,-1,15
 365 435 365 435 301 435 c 0,16,17
 263 435 263 435 227.5 422 c 128,-1,18
 192 409 192 409 162 386 c 1,19,-1
 101 466 l 1,20,21
 183 539 183 539 306 539 c 0,22,0
 387 539 387 539 448 509 c 128,-1,1
371.5 132 m 128,-1,24
 417 167 417 167 436 224 c 1,25,-1
 149 224 l 1,26,27
 147 164 147 164 178.5 130.5 c 128,-1,28
 210 97 210 97 268 97 c 256,29,23
 326 97 326 97 371.5 132 c 128,-1,24
EndSplineSet
Substitution2: "<3,3> Small Caps in Latin lookup 11 subtable" uni0259.sc
EndChar

StartChar: uni02BB
Encoding: 699 699 385
Width: 318
Flags: W
LayerCount: 2
Fore
SplineSet
255 497 m 1,0,-1
 144 523 l 1,1,-1
 208 700 l 1,2,-1
 293 700 l 1,3,-1
 255 497 l 1,0,-1
EndSplineSet
EndChar

StartChar: uni02BC
Encoding: 700 700 386
Width: 153
Flags: W
LayerCount: 2
Fore
SplineSet
115 700 m 1,0,-1
 211 700 l 1,1,-1
 143 439 l 1,2,-1
 64 439 l 1,3,-1
 115 700 l 1,0,-1
EndSplineSet
EndChar

StartChar: uni02BE
Encoding: 702 702 387
Width: 300
Flags: W
LayerCount: 2
Fore
SplineSet
168 628 m 1,0,1
 195 628 195 628 216.5 647.5 c 128,-1,2
 238 667 238 667 239 692 c 0,3,4
 241 715 241 715 224.5 731.5 c 128,-1,5
 208 748 208 748 183 748 c 1,6,-1
 190 806 l 1,7,8
 237 806 237 806 267.5 773 c 128,-1,9
 298 740 298 740 294 693 c 0,10,11
 293 660 293 660 274 632 c 128,-1,12
 255 604 255 604 224.5 587 c 128,-1,13
 194 570 194 570 161 570 c 1,14,-1
 168 628 l 1,0,1
EndSplineSet
EndChar

StartChar: uni02BF
Encoding: 703 703 388
Width: 288
Flags: W
LayerCount: 2
Fore
SplineSet
261 628 m 1,0,1
 238 628 238 628 223 643 c 128,-1,2
 208 658 208 658 208 679 c 0,3,4
 208 707 208 707 232 727.5 c 128,-1,5
 256 748 256 748 285 748 c 1,6,-1
 296 806 l 1,7,8
 260 806 260 806 226.5 787 c 128,-1,9
 193 768 193 768 172.5 736.5 c 128,-1,10
 152 705 152 705 152 670 c 0,11,12
 152 628 152 628 180 599 c 128,-1,13
 208 570 208 570 251 570 c 1,14,-1
 261 628 l 1,0,1
EndSplineSet
EndChar

StartChar: caron
Encoding: 711 711 390
Width: 426
Flags: W
LayerCount: 2
Fore
SplineSet
353 757 m 1,0,-1
 469 757 l 1,1,-1
 334 613 l 1,2,-1
 208 613 l 1,3,-1
 128 757 l 1,4,-1
 244 757 l 1,5,-1
 287 694 l 1,6,-1
 353 757 l 1,0,-1
EndSplineSet
EndChar

StartChar: uni02C8
Encoding: 712 712 391
Width: 310
Flags: W
LayerCount: 2
Fore
SplineSet
160 519 m 1,0,-1
 195 700 l 1,1,-1
 287 700 l 1,2,-1
 252 519 l 1,3,-1
 160 519 l 1,0,-1
EndSplineSet
EndChar

StartChar: uni02C9
Encoding: 713 713 392
Width: 461
Flags: W
LayerCount: 2
Fore
SplineSet
191 726 m 1,0,-1
 452 726 l 1,1,-1
 437 643 l 1,2,-1
 175 643 l 1,3,-1
 191 726 l 1,0,-1
EndSplineSet
EndChar

StartChar: uni02CA
Encoding: 714 714 393
Width: 337
Flags: W
LayerCount: 2
Fore
SplineSet
258 760 m 1,0,-1
 374 709 l 1,1,-1
 226 606 l 1,2,-1
 127 616 l 1,3,-1
 258 760 l 1,0,-1
EndSplineSet
EndChar

StartChar: uni02CB
Encoding: 715 715 394
Width: 301
Flags: W
LayerCount: 2
Fore
SplineSet
264 760 m 1,0,-1
 337 616 l 1,1,-1
 233 606 l 1,2,-1
 128 709 l 1,3,-1
 264 760 l 1,0,-1
EndSplineSet
EndChar

StartChar: uni02CC
Encoding: 716 716 395
Width: 309
Flags: W
LayerCount: 2
Fore
SplineSet
14 -212 m 1,0,-1
 49 -31 l 1,1,-1
 141 -31 l 1,2,-1
 106 -212 l 1,3,-1
 14 -212 l 1,0,-1
EndSplineSet
EndChar

StartChar: gravecomb
Encoding: 768 768 402
Width: 0
Flags: W
LayerCount: 2
Fore
SplineSet
-47 760 m 1,0,-1
 54 616 l 1,1,-1
 -48 606 l 1,2,-1
 -173 709 l 1,3,-1
 -47 760 l 1,0,-1
EndSplineSet
Substitution2: "<3,3> Small Caps in Latin lookup 11 subtable" gravecomb.sc
EndChar

StartChar: acutecomb
Encoding: 769 769 403
Width: 0
Flags: W
LayerCount: 2
Fore
SplineSet
-106 760 m 1,0,-1
 19 709 l 1,1,-1
 -109 606 l 1,2,-1
 -210 616 l 1,3,-1
 -106 760 l 1,0,-1
EndSplineSet
Substitution2: "<3,3> Small Caps in Latin lookup 11 subtable" acutecomb.sc
EndChar

StartChar: uni0302
Encoding: 770 770 404
Width: 0
Flags: W
LayerCount: 2
Fore
SplineSet
40 613 m 1,0,-1
 -76 613 l 1,1,-1
 -119 676 l 1,2,-1
 -185 613 l 1,3,-1
 -301 613 l 1,4,-1
 -166 757 l 1,5,-1
 -40 757 l 1,6,-1
 40 613 l 1,0,-1
EndSplineSet
Substitution2: "<3,3> Small Caps in Latin lookup 11 subtable" uni0302.sc
EndChar

StartChar: tildecomb
Encoding: 771 771 405
Width: 0
Flags: W
LayerCount: 2
Fore
SplineSet
-110 602 m 0,1,2
 -132 602 -132 602 -148.5 609 c 128,-1,3
 -165 616 -165 616 -193 632 c 0,4,5
 -220 650 -220 650 -233 650 c 0,6,7
 -249 650 -249 650 -257 638.5 c 128,-1,8
 -265 627 -265 627 -270 605 c 1,9,-1
 -353 605 l 1,10,11
 -328 746 -328 746 -239 746 c 0,12,13
 -217 746 -217 746 -198 738 c 128,-1,14
 -179 730 -179 730 -157 716 c 0,15,16
 -128 698 -128 698 -115 698 c 0,17,18
 -87 698 -87 698 -80 742 c 1,19,-1
 3 742 l 1,20,0
 -22 602 -22 602 -110 602 c 0,1,2
EndSplineSet
Substitution2: "<3,3> Small Caps in Latin lookup 11 subtable" tildecomb.sc
EndChar

StartChar: uni0304
Encoding: 772 772 406
Width: 0
Flags: W
LayerCount: 2
Fore
SplineSet
-289 726 m 1,0,-1
 10 726 l 1,1,-1
 -6 643 l 1,2,-1
 -304 643 l 1,3,-1
 -289 726 l 1,0,-1
EndSplineSet
Substitution2: "<3,3> Small Caps in Latin lookup 11 subtable" uni0304.sc
EndChar

StartChar: uni0306
Encoding: 774 774 407
Width: 0
Flags: W
LayerCount: 2
Fore
SplineSet
-190 740 m 0,1,2
 -190 717 -190 717 -176.5 703 c 128,-1,3
 -163 689 -163 689 -141 689 c 0,4,5
 -116 689 -116 689 -95.5 707 c 128,-1,6
 -75 725 -75 725 -67 753 c 1,7,-1
 19 753 l 1,8,9
 4 686 4 686 -44.5 645.5 c 128,-1,10
 -93 605 -93 605 -156 605 c 0,11,12
 -212 605 -212 605 -244.5 637 c 128,-1,13
 -277 669 -277 669 -277 724 c 0,14,15
 -277 743 -277 743 -275 753 c 1,16,-1
 -189 753 l 1,17,0
 -190 749 -190 749 -190 740 c 0,1,2
EndSplineSet
Substitution2: "<3,3> Small Caps in Latin lookup 11 subtable" uni0306.sc
EndChar

StartChar: uni0307
Encoding: 775 775 408
Width: 0
Flags: W
LayerCount: 2
Fore
SplineSet
-12 747 m 128,-1,1
 5 729 5 729 5 701 c 0,2,3
 5 663 5 663 -22 636.5 c 128,-1,4
 -49 610 -49 610 -85 610 c 0,5,6
 -112 610 -112 610 -129 628 c 128,-1,7
 -146 646 -146 646 -146 674 c 0,8,9
 -146 712 -146 712 -119 738.5 c 128,-1,10
 -92 765 -92 765 -56 765 c 0,11,0
 -29 765 -29 765 -12 747 c 128,-1,1
EndSplineSet
Substitution2: "<3,3> Small Caps in Latin lookup 11 subtable" uni0307.sc
EndChar

StartChar: uni0308
Encoding: 776 776 409
Width: 0
Flags: W
LayerCount: 2
Fore
SplineSet
-193 735.5 m 128,-1,1
 -179 720 -179 720 -179 696 c 0,2,3
 -179 664 -179 664 -202 640.5 c 128,-1,4
 -225 617 -225 617 -256 617 c 0,5,6
 -280 617 -280 617 -295 633 c 128,-1,7
 -310 649 -310 649 -310 673 c 0,8,9
 -310 706 -310 706 -287 728.5 c 128,-1,10
 -264 751 -264 751 -231 751 c 0,11,0
 -207 751 -207 751 -193 735.5 c 128,-1,1
-11.5 735.5 m 128,-1,13
 3 720 3 720 3 696 c 0,14,15
 3 664 3 664 -20 640.5 c 128,-1,16
 -43 617 -43 617 -75 617 c 0,17,18
 -99 617 -99 617 -113.5 633 c 128,-1,19
 -128 649 -128 649 -128 673 c 0,20,21
 -128 706 -128 706 -105 728.5 c 128,-1,22
 -82 751 -82 751 -50 751 c 0,23,12
 -26 751 -26 751 -11.5 735.5 c 128,-1,13
EndSplineSet
Substitution2: "<3,3> Small Caps in Latin lookup 11 subtable" uni0308.sc
EndChar

StartChar: hookabovecomb
Encoding: 777 777 410
Width: 0
Flags: W
LayerCount: 2
Fore
SplineSet
-10.5 777.5 m 128,-1,1
 14 759 14 759 14 725 c 0,2,3
 14 690 14 690 -15.5 652 c 128,-1,4
 -45 614 -45 614 -92 578 c 1,5,-1
 -153 608 l 1,6,7
 -126 629 -126 629 -110 652.5 c 128,-1,8
 -94 676 -94 676 -94 691 c 0,9,10
 -94 701 -94 701 -100.5 707 c 128,-1,11
 -107 713 -107 713 -118 713 c 0,12,13
 -136 713 -136 713 -156 701 c 1,14,-1
 -183 763 l 1,15,16
 -131 796 -131 796 -74 796 c 0,17,0
 -35 796 -35 796 -10.5 777.5 c 128,-1,1
EndSplineSet
Substitution2: "<3,3> Small Caps in Latin lookup 11 subtable" hookabovecomb.sc
EndChar

StartChar: uni030A
Encoding: 778 778 411
Width: 0
Flags: W
LayerCount: 2
Fore
SplineSet
-13 774.5 m 128,-1,1
 15 746 15 746 15 703 c 0,2,3
 15 670 15 670 -2.5 641 c 128,-1,4
 -20 612 -20 612 -49 595 c 128,-1,5
 -78 578 -78 578 -111 578 c 0,6,7
 -154 578 -154 578 -182.5 606 c 128,-1,8
 -211 634 -211 634 -211 676 c 0,9,10
 -211 709 -211 709 -193.5 738.5 c 128,-1,11
 -176 768 -176 768 -146.5 785.5 c 128,-1,12
 -117 803 -117 803 -85 803 c 0,13,0
 -41 803 -41 803 -13 774.5 c 128,-1,1
-130 721.5 m 128,-1,15
 -146 706 -146 706 -146 684 c 0,16,17
 -146 667 -146 667 -134.5 655 c 128,-1,18
 -123 643 -123 643 -104 643 c 0,19,20
 -83 643 -83 643 -66 659 c 128,-1,21
 -49 675 -49 675 -49 696 c 0,22,23
 -49 713 -49 713 -61 725 c 128,-1,24
 -73 737 -73 737 -92 737 c 0,25,14
 -114 737 -114 737 -130 721.5 c 128,-1,15
EndSplineSet
EndChar

StartChar: uni030B
Encoding: 779 779 412
Width: 0
Flags: W
LayerCount: 2
Fore
SplineSet
-263 766 m 1,0,-1
 -165 720 l 1,1,-1
 -259 606 l 1,2,-1
 -351 615 l 1,3,-1
 -263 766 l 1,0,-1
-90 766 m 1,4,-1
 8 720 l 1,5,-1
 -86 606 l 1,6,-1
 -178 615 l 1,7,-1
 -90 766 l 1,4,-1
EndSplineSet
Substitution2: "<3,3> Small Caps in Latin lookup 11 subtable" uni030B.sc
EndChar

StartChar: uni030C
Encoding: 780 780 413
Width: 0
Flags: W
LayerCount: 2
Fore
SplineSet
-73 757 m 1,0,-1
 43 757 l 1,1,-1
 -92 613 l 1,2,-1
 -218 613 l 1,3,-1
 -298 757 l 1,4,-1
 -182 757 l 1,5,-1
 -139 694 l 1,6,-1
 -73 757 l 1,0,-1
EndSplineSet
Substitution2: "<3,3> Small Caps in Latin lookup 11 subtable" uni030C.sc
EndChar

StartChar: uni030F
Encoding: 783 783 414
Width: 0
Flags: W
LayerCount: 2
Fore
SplineSet
-196 766 m 1,0,-1
 -146 615 l 1,1,-1
 -242 606 l 1,2,-1
 -312 720 l 1,3,-1
 -196 766 l 1,0,-1
-23 766 m 1,4,-1
 27 615 l 1,5,-1
 -69 606 l 1,6,-1
 -139 720 l 1,7,-1
 -23 766 l 1,4,-1
EndSplineSet
Substitution2: "<3,3> Small Caps in Latin lookup 11 subtable" uni030F.sc
EndChar

StartChar: uni0311
Encoding: 785 785 415
Width: 0
Flags: W
LayerCount: 2
Fore
SplineSet
-71 618 m 0,1,2
 -71 641 -71 641 -84.5 655 c 128,-1,3
 -98 669 -98 669 -120 669 c 0,4,5
 -145 669 -145 669 -165.5 651 c 128,-1,6
 -186 633 -186 633 -194 605 c 1,7,-1
 -280 605 l 1,8,9
 -265 672 -265 672 -216.5 712.5 c 128,-1,10
 -168 753 -168 753 -105 753 c 0,11,12
 -49 753 -49 753 -16.5 721 c 128,-1,13
 16 689 16 689 16 634 c 0,14,15
 16 615 16 615 14 605 c 1,16,-1
 -72 605 l 1,17,0
 -71 609 -71 609 -71 618 c 0,1,2
EndSplineSet
Substitution2: "<3,3> Small Caps in Latin lookup 11 subtable" uni0311.sc
EndChar

StartChar: uni0312
Encoding: 786 786 416
Width: 0
Flags: W
LayerCount: 2
Fore
SplineSet
-52 612 m 1,0,-1
 -168 612 l 1,1,-1
 -78 777 l 1,2,-1
 9 777 l 1,3,-1
 -52 612 l 1,0,-1
EndSplineSet
EndChar

StartChar: uni031B
Encoding: 795 795 417
Width: 0
Flags: W
LayerCount: 2
Fore
SplineSet
-27 621 m 0,1,2
 -27 545 -27 545 -79.5 500.5 c 128,-1,3
 -132 456 -132 456 -224 456 c 1,4,-1
 -207 535 l 1,5,6
 -168 535 -168 535 -149 553.5 c 128,-1,7
 -130 572 -130 572 -130 602 c 0,8,9
 -130 620 -130 620 -136 639 c 1,10,-1
 -33 675 l 1,11,0
 -27 647 -27 647 -27 621 c 0,1,2
EndSplineSet
EndChar

StartChar: dotbelowcomb
Encoding: 803 803 418
Width: 0
Flags: W
LayerCount: 2
Fore
SplineSet
-178 -88 m 128,-1,1
 -161 -106 -161 -106 -161 -134 c 0,2,3
 -161 -172 -161 -172 -188 -198.5 c 128,-1,4
 -215 -225 -215 -225 -251 -225 c 0,5,6
 -278 -225 -278 -225 -295 -207 c 128,-1,7
 -312 -189 -312 -189 -312 -161 c 0,8,9
 -312 -123 -312 -123 -285 -96.5 c 128,-1,10
 -258 -70 -258 -70 -222 -70 c 0,11,0
 -195 -70 -195 -70 -178 -88 c 128,-1,1
EndSplineSet
Substitution2: "<3,3> Small Caps in Latin lookup 11 subtable" dotbelowcomb.sc
EndChar

StartChar: uni0324
Encoding: 804 804 419
Width: 0
Flags: W
LayerCount: 2
Fore
SplineSet
-355 -83.5 m 128,-1,1
 -341 -99 -341 -99 -341 -123 c 0,2,3
 -341 -155 -341 -155 -364 -178.5 c 128,-1,4
 -387 -202 -387 -202 -418 -202 c 0,5,6
 -442 -202 -442 -202 -457 -186 c 128,-1,7
 -472 -170 -472 -170 -472 -146 c 0,8,9
 -472 -113 -472 -113 -449 -90.5 c 128,-1,10
 -426 -68 -426 -68 -393 -68 c 0,11,0
 -369 -68 -369 -68 -355 -83.5 c 128,-1,1
-173.5 -83.5 m 128,-1,13
 -159 -99 -159 -99 -159 -123 c 0,14,15
 -159 -155 -159 -155 -182 -178.5 c 128,-1,16
 -205 -202 -205 -202 -237 -202 c 0,17,18
 -261 -202 -261 -202 -275.5 -186 c 128,-1,19
 -290 -170 -290 -170 -290 -146 c 0,20,21
 -290 -113 -290 -113 -267 -90.5 c 128,-1,22
 -244 -68 -244 -68 -212 -68 c 0,23,12
 -188 -68 -188 -68 -173.5 -83.5 c 128,-1,13
EndSplineSet
Substitution2: "<3,3> Small Caps in Latin lookup 11 subtable" uni0324.sc
EndChar

StartChar: uni0326
Encoding: 806 806 420
Width: 0
Flags: W
LayerCount: 2
Fore
SplineSet
-256 -59 m 1,0,-1
 -140 -59 l 1,1,-1
 -230 -224 l 1,2,-1
 -317 -224 l 1,3,-1
 -256 -59 l 1,0,-1
EndSplineSet
EndChar

StartChar: uni0327
Encoding: 807 807 421
Width: 0
Flags: W
LayerCount: 2
Fore
SplineSet
-180 0 m 1,0,-1
 -209 -51 l 1,1,2
 -174 -58 -174 -58 -158 -76.5 c 128,-1,3
 -142 -95 -142 -95 -142 -120 c 0,4,5
 -142 -171 -142 -171 -182 -197.5 c 128,-1,6
 -222 -224 -222 -224 -282 -224 c 0,7,8
 -334 -224 -334 -224 -381 -203 c 1,9,-1
 -341 -128 l 1,10,11
 -312 -139 -312 -139 -287 -139 c 0,12,13
 -267 -139 -267 -139 -254.5 -131.5 c 128,-1,14
 -242 -124 -242 -124 -242 -113 c 0,15,16
 -242 -104 -242 -104 -254.5 -97.5 c 128,-1,17
 -267 -91 -267 -91 -288 -91 c 2,18,-1
 -317 -91 l 1,19,-1
 -266 8 l 1,20,-1
 -180 0 l 1,0,-1
EndSplineSet
Substitution2: "<3,3> Small Caps in Latin lookup 11 subtable" uni0327.sc
EndChar

StartChar: uni0328
Encoding: 808 808 422
Width: 0
Flags: W
LayerCount: 2
Fore
SplineSet
-135 0 m 1,0,1
 -193 -37 -193 -37 -217 -61.5 c 128,-1,2
 -241 -86 -241 -86 -241 -110 c 0,3,4
 -241 -131 -241 -131 -219 -131 c 0,5,6
 -201 -131 -201 -131 -186 -123 c 1,7,-1
 -174 -203 l 1,8,9
 -225 -223 -225 -223 -267 -223 c 0,10,11
 -308 -223 -308 -223 -332.5 -202.5 c 128,-1,12
 -357 -182 -357 -182 -357 -146 c 0,13,14
 -357 -100 -357 -100 -322 -53 c 128,-1,15
 -287 -6 -287 -6 -207 38 c 1,16,-1
 -135 0 l 1,0,1
EndSplineSet
EndChar

StartChar: uni032E
Encoding: 814 814 423
Width: 0
Flags: W
LayerCount: 2
Fore
SplineSet
-350 -66 m 0,1,2
 -350 -89 -350 -89 -336.5 -103 c 128,-1,3
 -323 -117 -323 -117 -301 -117 c 0,4,5
 -276 -117 -276 -117 -255.5 -99 c 128,-1,6
 -235 -81 -235 -81 -227 -53 c 1,7,-1
 -141 -53 l 1,8,9
 -156 -120 -156 -120 -204.5 -160.5 c 128,-1,10
 -253 -201 -253 -201 -316 -201 c 0,11,12
 -372 -201 -372 -201 -404.5 -169 c 128,-1,13
 -437 -137 -437 -137 -437 -82 c 0,14,15
 -437 -63 -437 -63 -435 -53 c 1,16,-1
 -349 -53 l 1,17,0
 -350 -57 -350 -57 -350 -66 c 0,1,2
EndSplineSet
EndChar

StartChar: uni0331
Encoding: 817 817 424
Width: 0
Flags: W
LayerCount: 2
Fore
SplineSet
-430 -80 m 1,0,-1
 -169 -80 l 1,1,-1
 -185 -162 l 1,2,-1
 -446 -162 l 1,3,-1
 -430 -80 l 1,0,-1
EndSplineSet
EndChar

StartChar: uni0335
Encoding: 821 821 425
Width: 0
Flags: W
LayerCount: 2
Fore
SplineSet
-415 478 m 1,0,-1
 -57 478 l 1,1,-1
 -72 400 l 1,2,-1
 -429 400 l 1,3,-1
 -415 478 l 1,0,-1
EndSplineSet
EndChar

StartChar: uni0336
Encoding: 822 822 426
Width: 0
Flags: W
LayerCount: 2
Fore
SplineSet
-479 478 m 1,0,-1
 -57 478 l 1,1,-1
 -72 400 l 1,2,-1
 -493 400 l 1,3,-1
 -479 478 l 1,0,-1
EndSplineSet
EndChar

StartChar: uni0337
Encoding: 823 823 427
Width: 0
Flags: W
LayerCount: 2
Fore
SplineSet
-1 561 m 1,0,-1
 -252 91 l 1,1,-1
 -363 91 l 1,2,-1
 -112 561 l 1,3,-1
 -1 561 l 1,0,-1
EndSplineSet
EndChar

StartChar: uni0338
Encoding: 824 824 428
Width: 0
Flags: W
LayerCount: 2
Fore
SplineSet
-454 0 m 1,0,-1
 -55 742 l 1,1,-1
 56 742 l 1,2,-1
 -343 0 l 1,3,-1
 -454 0 l 1,0,-1
EndSplineSet
EndChar

StartChar: uni0394
Encoding: 916 916 429
Width: 747
Flags: W
LayerCount: 2
Fore
SplineSet
506 700 m 1,0,-1
 694 0 l 1,1,-1
 -54 0 l 1,2,-1
 368 700 l 1,3,-1
 506 700 l 1,0,-1
151 114 m 1,4,-1
 522 114 l 1,5,-1
 411 557 l 1,6,-1
 151 114 l 1,4,-1
EndSplineSet
EndChar

StartChar: uni03A9
Encoding: 937 937 430
Width: 875
Flags: W
LayerCount: 2
Fore
SplineSet
628.5 667 m 128,-1,1
 704 628 704 628 746 559.5 c 128,-1,2
 788 491 788 491 788 405 c 0,3,4
 788 324 788 324 743 244 c 128,-1,5
 698 164 698 164 627 113 c 1,6,-1
 835 113 l 1,7,-1
 813 0 l 1,8,-1
 481 0 l 1,9,-1
 493 123 l 1,10,11
 577 167 577 167 622 236.5 c 128,-1,12
 667 306 667 306 667 380 c 0,13,14
 667 437 667 437 641.5 484.5 c 128,-1,15
 616 532 616 532 567 560.5 c 128,-1,16
 518 589 518 589 449 589 c 0,17,18
 370 589 370 589 310 554.5 c 128,-1,19
 250 520 250 520 217 462.5 c 128,-1,20
 184 405 184 405 184 340 c 0,21,22
 184 276 184 276 216 218 c 128,-1,23
 248 160 248 160 310 123 c 1,24,-1
 299 0 l 1,25,-1
 -45 0 l 1,26,-1
 -23 113 l 1,27,-1
 175 113 l 1,28,29
 125 154 125 154 95.5 220.5 c 128,-1,30
 66 287 66 287 66 355 c 0,31,32
 66 452 66 452 118 532.5 c 128,-1,33
 170 613 170 613 260 659.5 c 128,-1,34
 350 706 350 706 458 706 c 0,35,0
 553 706 553 706 628.5 667 c 128,-1,1
EndSplineSet
EndChar

StartChar: uni03BC
Encoding: 956 956 431
Width: 668
Flags: W
LayerCount: 2
Fore
SplineSet
639 535 m 1,0,-1
 534 0 l 1,1,-1
 402 0 l 1,2,-1
 417 76 l 1,3,4
 354 -7 354 -7 243 -7 c 0,5,6
 187 -7 187 -7 146 11 c 1,7,-1
 105 -194 l 1,8,-1
 -25 -194 l 1,9,-1
 52 196 l 2,10,11
 54 212 54 212 56 220 c 2,12,-1
 119 535 l 1,13,-1
 250 535 l 1,14,-1
 190 231 l 2,15,16
 188 215 188 215 188 207 c 0,17,18
 188 162 188 162 216.5 136 c 128,-1,19
 245 110 245 110 294 110 c 0,20,21
 351 110 351 110 394.5 149 c 128,-1,22
 438 188 438 188 451 252 c 2,23,-1
 509 535 l 1,24,-1
 639 535 l 1,0,-1
EndSplineSet
EndChar

StartChar: pi
Encoding: 960 960 432
Width: 727
Flags: W
LayerCount: 2
Fore
SplineSet
751 436 m 1,0,-1
 610 436 l 1,1,-1
 521 0 l 1,2,-1
 413 0 l 1,3,-1
 501 436 l 1,4,-1
 370 436 l 1,5,-1
 233 0 l 1,6,-1
 124 0 l 1,7,-1
 260 436 l 1,8,-1
 219 436 l 2,9,10
 170 436 170 436 138 404 c 128,-1,11
 106 372 106 372 106 327 c 0,12,13
 106 302 106 302 117 280 c 1,14,-1
 26 255 l 1,15,16
 8 299 8 299 8 347 c 0,17,18
 8 401 8 401 33.5 443.5 c 128,-1,19
 59 486 59 486 105.5 510.5 c 128,-1,20
 152 535 152 535 213 535 c 2,21,-1
 769 535 l 1,22,-1
 751 436 l 1,0,-1
EndSplineSet
EndChar

StartChar: uni1E08
Encoding: 7688 7688 433
Width: 723
Flags: W
LayerCount: 2
Fore
SplineSet
661 859 m 1,0,-1
 533 756 l 1,1,-1
 432 766 l 1,2,-1
 536 910 l 1,3,-1
 661 859 l 1,0,-1
544.5 28 m 128,-1,5
 475 -4 475 -4 407 -9 c 1,6,-1
 383 -51 l 1,7,8
 418 -58 418 -58 434 -76.5 c 128,-1,9
 450 -95 450 -95 450 -120 c 0,10,11
 450 -171 450 -171 410 -197.5 c 128,-1,12
 370 -224 370 -224 310 -224 c 0,13,14
 258 -224 258 -224 211 -203 c 1,15,-1
 251 -128 l 1,16,17
 280 -139 280 -139 305 -139 c 0,18,19
 325 -139 325 -139 337.5 -131.5 c 128,-1,20
 350 -124 350 -124 350 -113 c 0,21,22
 350 -104 350 -104 337.5 -97.5 c 128,-1,23
 325 -91 325 -91 304 -91 c 2,24,-1
 275 -91 l 1,25,-1
 319 -5 l 1,26,27
 240 8 240 8 179 53.5 c 128,-1,28
 118 99 118 99 84 168.5 c 128,-1,29
 50 238 50 238 50 320 c 0,30,31
 50 427 50 427 105.5 516 c 128,-1,32
 161 605 161 605 254.5 657 c 128,-1,33
 348 709 348 709 458 709 c 0,34,35
 533 709 533 709 601.5 679 c 128,-1,36
 670 649 670 649 717 596 c 1,37,-1
 629 498 l 1,38,39
 595 541 595 541 547.5 565 c 128,-1,40
 500 589 500 589 449 589 c 0,41,42
 379 589 379 589 319 554.5 c 128,-1,43
 259 520 259 520 223.5 461 c 128,-1,44
 188 402 188 402 188 332 c 0,45,46
 188 272 188 272 215.5 222.5 c 128,-1,47
 243 173 243 173 291.5 144.5 c 128,-1,48
 340 116 340 116 400 116 c 0,49,50
 450 116 450 116 502.5 138 c 128,-1,51
 555 160 555 160 598 199 c 1,52,-1
 669 111 l 1,53,4
 614 60 614 60 544.5 28 c 128,-1,5
EndSplineSet
EndChar

StartChar: uni1E09
Encoding: 7689 7689 434
Width: 583
Flags: W
LayerCount: 2
Fore
SplineSet
521 709 m 1,0,-1
 393 606 l 1,1,-1
 292 616 l 1,2,-1
 396 760 l 1,3,-1
 521 709 l 1,0,-1
445 170 m 1,5,-1
 520 103 l 1,6,7
 481 54 481 54 423.5 26 c 128,-1,8
 366 -2 366 -2 294 -5 c 1,9,-1
 268 -51 l 1,10,11
 303 -58 303 -58 319 -76.5 c 128,-1,12
 335 -95 335 -95 335 -120 c 0,13,14
 335 -171 335 -171 295 -197.5 c 128,-1,15
 255 -224 255 -224 195 -224 c 0,16,17
 143 -224 143 -224 96 -203 c 1,18,-1
 136 -128 l 1,19,20
 165 -139 165 -139 190 -139 c 0,21,22
 210 -139 210 -139 222.5 -131.5 c 128,-1,23
 235 -124 235 -124 235 -113 c 0,24,25
 235 -104 235 -104 222.5 -97.5 c 128,-1,26
 210 -91 210 -91 189 -91 c 2,27,-1
 160 -91 l 1,28,-1
 208 3 l 1,29,30
 127 23 127 23 80 85.5 c 128,-1,31
 33 148 33 148 33 239 c 0,32,33
 33 326 33 326 72 394.5 c 128,-1,34
 111 463 111 463 179.5 501 c 128,-1,35
 248 539 248 539 333 539 c 0,36,37
 406 539 406 539 461 513.5 c 128,-1,38
 516 488 516 488 549 441 c 1,39,-1
 462 366 l 1,40,41
 414 425 414 425 328 425 c 0,42,43
 282 425 282 425 244.5 402.5 c 128,-1,44
 207 380 207 380 185.5 340 c 128,-1,45
 164 300 164 300 164 248 c 0,46,47
 164 185 164 185 200 146 c 128,-1,48
 236 107 236 107 295 107 c 0,49,4
 391 107 391 107 445 170 c 1,5,-1
EndSplineSet
Substitution2: "<3,3> Small Caps in Latin lookup 11 subtable" uni1E09.sc
EndChar

StartChar: uni1E1C
Encoding: 7708 7708 443
Width: 661
Flags: W
LayerCount: 2
Fore
SplineSet
357.5 788 m 128,-1,1
 325 820 325 820 325 875 c 0,2,3
 325 894 325 894 327 904 c 1,4,-1
 413 904 l 1,5,6
 412 900 412 900 412 891 c 0,7,8
 412 868 412 868 425.5 854 c 128,-1,9
 439 840 439 840 461 840 c 0,10,11
 486 840 486 840 506.5 858 c 128,-1,12
 527 876 527 876 535 904 c 1,13,-1
 621 904 l 1,14,15
 606 837 606 837 557.5 796.5 c 128,-1,16
 509 756 509 756 446 756 c 0,17,0
 390 756 390 756 357.5 788 c 128,-1,1
283 583 m 1,18,-1
 248 410 l 1,19,-1
 589 410 l 1,20,-1
 566 293 l 1,21,-1
 225 293 l 1,22,-1
 190 117 l 1,23,-1
 580 117 l 1,24,-1
 558 0 l 1,25,-1
 360 0 l 1,26,-1
 331 -51 l 1,27,28
 366 -58 366 -58 382 -76.5 c 128,-1,29
 398 -95 398 -95 398 -120 c 0,30,31
 398 -171 398 -171 358 -197.5 c 128,-1,32
 318 -224 318 -224 258 -224 c 0,33,34
 206 -224 206 -224 159 -203 c 1,35,-1
 199 -128 l 1,36,37
 228 -139 228 -139 253 -139 c 0,38,39
 273 -139 273 -139 285.5 -131.5 c 128,-1,40
 298 -124 298 -124 298 -113 c 0,41,42
 298 -104 298 -104 285.5 -97.5 c 128,-1,43
 273 -91 273 -91 252 -91 c 2,44,-1
 223 -91 l 1,45,-1
 270 0 l 1,46,-1
 33 0 l 1,47,-1
 173 700 l 1,48,-1
 685 700 l 1,49,-1
 663 583 l 1,50,-1
 283 583 l 1,18,-1
EndSplineSet
EndChar

StartChar: uni1E1D
Encoding: 7709 7709 444
Width: 608
Flags: W
LayerCount: 2
Fore
SplineSet
299.5 637 m 128,-1,1
 267 669 267 669 267 724 c 0,2,3
 267 743 267 743 269 753 c 1,4,-1
 355 753 l 1,5,6
 354 749 354 749 354 740 c 0,7,8
 354 717 354 717 367.5 703 c 128,-1,9
 381 689 381 689 403 689 c 0,10,11
 428 689 428 689 448.5 707 c 128,-1,12
 469 725 469 725 477 753 c 1,13,-1
 563 753 l 1,14,15
 548 686 548 686 499.5 645.5 c 128,-1,16
 451 605 451 605 388 605 c 0,17,0
 332 605 332 605 299.5 637 c 128,-1,1
513.5 476.5 m 128,-1,19
 578 414 578 414 578 307 c 0,20,21
 578 265 578 265 568 222 c 1,22,-1
 162 222 l 1,23,24
 167 164 167 164 205 131 c 128,-1,25
 243 98 243 98 307 98 c 0,26,27
 383 98 383 98 447 146 c 1,28,-1
 508 67 l 1,29,30
 433 1 433 1 325 -5 c 1,31,-1
 299 -51 l 1,32,33
 334 -58 334 -58 350 -76.5 c 128,-1,34
 366 -95 366 -95 366 -120 c 0,35,36
 366 -171 366 -171 326 -197.5 c 128,-1,37
 286 -224 286 -224 226 -224 c 0,38,39
 174 -224 174 -224 127 -203 c 1,40,-1
 167 -128 l 1,41,42
 196 -139 196 -139 221 -139 c 0,43,44
 241 -139 241 -139 253.5 -131.5 c 128,-1,45
 266 -124 266 -124 266 -113 c 0,46,47
 266 -104 266 -104 253.5 -97.5 c 128,-1,48
 241 -91 241 -91 220 -91 c 2,49,-1
 191 -91 l 1,50,-1
 238 0 l 1,51,52
 142 17 142 17 87.5 80 c 128,-1,53
 33 143 33 143 33 238 c 0,54,55
 33 323 33 323 72.5 391.5 c 128,-1,56
 112 460 112 460 181.5 499.5 c 128,-1,57
 251 539 251 539 337 539 c 0,58,18
 449 539 449 539 513.5 476.5 c 128,-1,19
430 402.5 m 128,-1,60
 399 436 399 436 340 436 c 0,61,62
 282 436 282 436 236.5 401 c 128,-1,63
 191 366 191 366 172 309 c 1,64,-1
 459 309 l 1,65,59
 461 369 461 369 430 402.5 c 128,-1,60
EndSplineSet
Substitution2: "<3,3> Small Caps in Latin lookup 11 subtable" uni1E1D.sc
EndChar

StartChar: uni1E9E
Encoding: 7838 7838 506
Width: 703
Flags: W
LayerCount: 2
Fore
SplineSet
658 523 m 1,0,-1
 528 400 l 1,1,2
 588 383 588 383 619.5 343.5 c 128,-1,3
 651 304 651 304 651 245 c 0,4,5
 651 172 651 172 613.5 116.5 c 128,-1,6
 576 61 576 61 509.5 30.5 c 128,-1,7
 443 0 443 0 359 0 c 2,8,-1
 278 0 l 1,9,-1
 299 115 l 1,10,-1
 374 115 l 2,11,12
 436 115 436 115 474 147.5 c 128,-1,13
 512 180 512 180 512 231 c 0,14,15
 512 267 512 267 486.5 286.5 c 128,-1,16
 461 306 461 306 412 306 c 2,17,-1
 372 306 l 1,18,-1
 391 410 l 1,19,-1
 552 563 l 1,20,21
 510 589 510 589 442 589 c 0,22,23
 362 589 362 589 308 543.5 c 128,-1,24
 254 498 254 498 238 416 c 2,25,-1
 156 0 l 1,26,-1
 22 0 l 1,27,-1
 103 411 l 2,28,29
 129 551 129 551 223 629.5 c 128,-1,30
 317 708 317 708 458 708 c 0,31,32
 531 708 531 708 586 687 c 128,-1,33
 641 666 641 666 678 632 c 1,34,-1
 658 523 l 1,0,-1
EndSplineSet
EndChar

StartChar: figuredash
Encoding: 8210 8210 603
Width: 618
Flags: W
LayerCount: 2
Fore
SplineSet
16 348 m 1,0,-1
 633 348 l 1,1,-1
 617 260 l 1,2,-1
 0 260 l 1,3,-1
 16 348 l 1,0,-1
EndSplineSet
EndChar

StartChar: endash
Encoding: 8211 8211 604
Width: 407
Flags: W
LayerCount: 2
Fore
SplineSet
422 349 m 1,0,-1
 406 260 l 1,1,-1
 0 260 l 1,2,-1
 16 349 l 1,3,-1
 422 349 l 1,0,-1
EndSplineSet
EndChar

StartChar: emdash
Encoding: 8212 8212 605
Width: 680
Flags: W
LayerCount: 2
Fore
SplineSet
695 349 m 1,0,-1
 679 260 l 1,1,-1
 0 260 l 1,2,-1
 16 349 l 1,3,-1
 695 349 l 1,0,-1
EndSplineSet
EndChar

StartChar: quoteleft
Encoding: 8216 8216 607
Width: 212
Flags: W
LayerCount: 2
Fore
SplineSet
230 572 m 0,1,2
 230 539 230 539 209 517 c 128,-1,3
 188 495 188 495 157 495 c 0,4,5
 131 495 131 495 113.5 511.5 c 128,-1,6
 96 528 96 528 96 557 c 0,7,8
 96 574 96 574 102 589 c 128,-1,9
 108 604 108 604 119 621 c 2,10,-1
 192 742 l 1,11,-1
 258 742 l 1,12,-1
 205 623 l 1,13,0
 230 606 230 606 230 572 c 0,1,2
EndSplineSet
Substitution2: "<3,3> Small Caps in Latin lookup 11 subtable" quoteleft.sc
EndChar

StartChar: quoteright
Encoding: 8217 8217 608
Width: 213
Flags: W
LayerCount: 2
Fore
SplineSet
234.5 725.5 m 128,-1,1
 252 709 252 709 252 680 c 0,2,3
 252 663 252 663 246 648 c 128,-1,4
 240 633 240 633 229 616 c 2,5,-1
 156 495 l 1,6,-1
 90 495 l 1,7,-1
 143 614 l 1,8,9
 118 631 118 631 118 665 c 0,10,11
 118 698 118 698 139 720 c 128,-1,12
 160 742 160 742 191 742 c 0,13,0
 217 742 217 742 234.5 725.5 c 128,-1,1
EndSplineSet
Substitution2: "<3,3> Small Caps in Latin lookup 11 subtable" quoteright.sc
EndChar

StartChar: quotesinglbase
Encoding: 8218 8218 609
Width: 212
Flags: W
LayerCount: 2
Fore
SplineSet
110.5 116.5 m 128,-1,1
 128 100 128 100 128 71 c 0,2,3
 128 54 128 54 122 39 c 128,-1,4
 116 24 116 24 105 7 c 2,5,-1
 32 -114 l 1,6,-1
 -34 -114 l 1,7,-1
 19 5 l 1,8,9
 -6 22 -6 22 -6 56 c 0,10,11
 -6 89 -6 89 15 111 c 128,-1,12
 36 133 36 133 67 133 c 0,13,0
 93 133 93 133 110.5 116.5 c 128,-1,1
EndSplineSet
EndChar

StartChar: dagger
Encoding: 8224 8224 613
Width: 546
Flags: W
LayerCount: 2
Fore
SplineSet
421 699 m 1,0,-1
 379 489 l 1,1,-1
 575 489 l 1,2,-1
 553 372 l 1,3,-1
 356 372 l 1,4,-1
 243 -189 l 1,5,-1
 118 -189 l 1,6,-1
 231 372 l 1,7,-1
 38 372 l 1,8,-1
 60 489 l 1,9,-1
 253 489 l 1,10,-1
 295 699 l 1,11,-1
 421 699 l 1,0,-1
EndSplineSet
EndChar

StartChar: daggerdbl
Encoding: 8225 8225 614
Width: 546
Flags: W
LayerCount: 2
Fore
SplineSet
553 372 m 1,0,-1
 356 372 l 1,1,-1
 312 156 l 1,2,-1
 508 156 l 1,3,-1
 486 40 l 1,4,-1
 289 40 l 1,5,-1
 243 -189 l 1,6,-1
 118 -189 l 1,7,-1
 164 40 l 1,8,-1
 -29 40 l 1,9,-1
 -7 156 l 1,10,-1
 187 156 l 1,11,-1
 231 372 l 1,12,-1
 38 372 l 1,13,-1
 60 489 l 1,14,-1
 253 489 l 1,15,-1
 295 699 l 1,16,-1
 421 699 l 1,17,-1
 379 489 l 1,18,-1
 575 489 l 1,19,-1
 553 372 l 1,0,-1
EndSplineSet
EndChar

StartChar: bullet
Encoding: 8226 8226 615
Width: 301
Flags: W
LayerCount: 2
Fore
SplineSet
224 348 m 128,-1,1
 253 318 253 318 253 271 c 256,2,3
 253 224 253 224 224 193 c 128,-1,4
 195 162 195 162 150 162 c 0,5,6
 106 162 106 162 76.5 193 c 128,-1,7
 47 224 47 224 47 271 c 0,8,9
 47 317 47 317 76.5 347.5 c 128,-1,10
 106 378 106 378 150 378 c 0,11,0
 195 378 195 378 224 348 c 128,-1,1
EndSplineSet
EndChar

StartChar: ellipsis
Encoding: 8230 8230 616
Width: 632
Flags: W
LayerCount: 2
Fore
SplineSet
118.5 113 m 128,-1,1
 135 96 135 96 135 68 c 0,2,3
 135 35 135 35 114.5 13 c 128,-1,4
 94 -9 94 -9 63 -9 c 0,5,6
 37 -9 37 -9 20.5 9 c 128,-1,7
 4 27 4 27 4 55 c 0,8,9
 4 87 4 87 25 108.5 c 128,-1,10
 46 130 46 130 76 130 c 0,11,0
 102 130 102 130 118.5 113 c 128,-1,1
322.5 113 m 128,-1,13
 339 96 339 96 339 68 c 0,14,15
 339 35 339 35 318.5 13 c 128,-1,16
 298 -9 298 -9 267 -9 c 0,17,18
 241 -9 241 -9 224.5 9 c 128,-1,19
 208 27 208 27 208 55 c 0,20,21
 208 87 208 87 229 108.5 c 128,-1,22
 250 130 250 130 280 130 c 0,23,12
 306 130 306 130 322.5 113 c 128,-1,13
526.5 113 m 128,-1,25
 543 96 543 96 543 68 c 0,26,27
 543 35 543 35 522.5 13 c 128,-1,28
 502 -9 502 -9 471 -9 c 0,29,30
 445 -9 445 -9 428.5 9 c 128,-1,31
 412 27 412 27 412 55 c 0,32,33
 412 87 412 87 433 108.5 c 128,-1,34
 454 130 454 130 484 130 c 0,35,24
 510 130 510 130 526.5 113 c 128,-1,25
EndSplineSet
EndChar

StartChar: minute
Encoding: 8242 8242 618
Width: 208
Flags: W
LayerCount: 2
Fore
SplineSet
141 700 m 1,0,-1
 256 700 l 1,1,-1
 162 459 l 1,2,-1
 77 459 l 1,3,-1
 141 700 l 1,0,-1
EndSplineSet
EndChar

StartChar: guilsinglleft
Encoding: 8249 8249 620
Width: 278
Flags: W
LayerCount: 2
Fore
SplineSet
276 439 m 1,0,-1
 129 258 l 1,1,-1
 207 85 l 1,2,-1
 99 85 l 1,3,-1
 16 262 l 1,4,-1
 168 439 l 1,5,-1
 276 439 l 1,0,-1
EndSplineSet
Substitution2: "<3,3> Small Caps in Latin lookup 11 subtable" guilsinglleft.sc
Substitution2: "'rtla' Right to Left Alternates lookup 0 subtable" guilsinglright
EndChar

StartChar: guilsinglright
Encoding: 8250 8250 621
Width: 288
Flags: W
LayerCount: 2
Fore
SplineSet
30 85 m 1,0,-1
 177 266 l 1,1,-1
 99 439 l 1,2,-1
 207 439 l 1,3,-1
 290 262 l 1,4,-1
 138 85 l 1,5,-1
 30 85 l 1,0,-1
EndSplineSet
Substitution2: "<3,3> Small Caps in Latin lookup 11 subtable" guilsinglright.sc
Substitution2: "'rtla' Right to Left Alternates lookup 0 subtable" guilsinglleft
EndChar

StartChar: fraction
Encoding: 8260 8260 622
Width: 186
Flags: W
LayerCount: 2
Fore
SplineSet
-100 0 m 1,0,-1
 -194 0 l 1,1,-1
 317 700 l 1,2,-1
 410 700 l 1,3,-1
 -100 0 l 1,0,-1
EndSplineSet
EndChar

StartChar: colonmonetary
Encoding: 8353 8353 640
Width: 723
Flags: W
LayerCount: 2
Fore
SplineSet
668 114 m 1,0,1
 623 72 623 72 566 42.5 c 128,-1,2
 509 13 509 13 449 1 c 1,3,-1
 401 -145 l 1,4,-1
 308 -145 l 1,5,-1
 354 -5 l 1,6,7
 329 -4 329 -4 297 3 c 1,8,-1
 248 -145 l 1,9,-1
 155 -145 l 1,10,-1
 214 34 l 1,11,12
 137 76 137 76 93 151.5 c 128,-1,13
 49 227 49 227 49 321 c 0,14,15
 49 409 49 409 87.5 485 c 128,-1,16
 126 561 126 561 194 614.5 c 128,-1,17
 262 668 262 668 347 690 c 1,18,-1
 397 838 l 1,19,-1
 490 838 l 1,20,-1
 445 704 l 1,21,-1
 456 704 l 2,22,23
 480 704 480 704 504 701 c 1,24,-1
 550 838 l 1,25,-1
 643 838 l 1,26,-1
 589 678 l 1,27,28
 664 649 664 649 715 592 c 1,29,-1
 628 494 l 1,30,31
 594 536 594 536 546 560.5 c 128,-1,32
 498 585 498 585 447 585 c 0,33,34
 377 585 377 585 317.5 551 c 128,-1,35
 258 517 258 517 222.5 459 c 128,-1,36
 187 401 187 401 187 332 c 0,37,38
 187 273 187 273 214.5 224.5 c 128,-1,39
 242 176 242 176 290.5 148 c 128,-1,40
 339 120 339 120 399 120 c 0,41,42
 449 120 449 120 501.5 142 c 128,-1,43
 554 164 554 164 597 202 c 1,44,-1
 668 114 l 1,0,1
EndSplineSet
EndChar

StartChar: franc
Encoding: 8355 8355 641
Width: 574
Flags: W
LayerCount: 2
Fore
SplineSet
624 583 m 1,0,-1
 275 583 l 1,1,-1
 238 394 l 1,2,-1
 554 394 l 1,3,-1
 532 279 l 1,4,-1
 214 279 l 1,5,-1
 194 177 l 1,6,-1
 433 177 l 1,7,-1
 421 115 l 1,8,-1
 182 115 l 1,9,-1
 159 0 l 1,10,-1
 24 0 l 1,11,-1
 47 115 l 1,12,-1
 -31 115 l 1,13,-1
 -19 177 l 1,14,-1
 59 177 l 1,15,-1
 164 700 l 1,16,-1
 647 700 l 1,17,-1
 624 583 l 1,0,-1
EndSplineSet
EndChar

StartChar: lira
Encoding: 8356 8356 642
Width: 550
Flags: W
LayerCount: 2
Fore
SplineSet
528.5 683 m 128,-1,1
 576 660 576 660 608 617 c 1,2,-1
 536 513 l 1,3,4
 485 586 485 586 415 586 c 0,5,6
 367 586 367 586 335 558.5 c 128,-1,7
 303 531 303 531 292 477 c 2,8,-1
 282 429 l 1,9,-1
 457 429 l 1,10,-1
 444 367 l 1,11,-1
 270 367 l 1,12,-1
 258 310 l 1,13,-1
 434 310 l 1,14,-1
 421 248 l 1,15,-1
 245 248 l 1,16,-1
 217 109 l 1,17,-1
 491 109 l 1,18,-1
 471 0 l 1,19,-1
 -19 0 l 1,20,-1
 2 109 l 1,21,-1
 84 109 l 1,22,-1
 112 248 l 1,23,-1
 31 248 l 1,24,-1
 44 310 l 1,25,-1
 125 310 l 1,26,-1
 136 367 l 1,27,-1
 54 367 l 1,28,-1
 67 429 l 1,29,-1
 149 429 l 1,30,-1
 159 480 l 2,31,32
 180 588 180 588 249 647 c 128,-1,33
 318 706 318 706 423 706 c 0,34,0
 481 706 481 706 528.5 683 c 128,-1,1
EndSplineSet
EndChar

StartChar: uni20A6
Encoding: 8358 8358 643
Width: 843
Flags: W
LayerCount: 2
Fore
SplineSet
839 373 m 1,0,-1
 752 373 l 1,1,-1
 740 316 l 1,2,-1
 828 316 l 1,3,-1
 816 254 l 1,4,-1
 728 254 l 1,5,-1
 677 0 l 1,6,-1
 550 0 l 1,7,-1
 288 482 l 1,8,-1
 191 0 l 1,9,-1
 60 0 l 1,10,-1
 111 254 l 1,11,-1
 22 254 l 1,12,-1
 35 316 l 1,13,-1
 123 316 l 1,14,-1
 135 373 l 1,15,-1
 46 373 l 1,16,-1
 58 435 l 1,17,-1
 147 435 l 1,18,-1
 200 700 l 1,19,-1
 327 700 l 1,20,-1
 590 216 l 1,21,-1
 688 700 l 1,22,-1
 817 700 l 1,23,-1
 764 435 l 1,24,-1
 852 435 l 1,25,-1
 839 373 l 1,0,-1
EndSplineSet
EndChar

StartChar: uni20A9
Encoding: 8361 8361 645
Width: 988
Flags: W
LayerCount: 2
Fore
SplineSet
1057 700 m 1,0,-1
 936 435 l 1,1,-1
 1024 435 l 1,2,-1
 1011 373 l 1,3,-1
 908 373 l 1,4,-1
 881 316 l 1,5,-1
 970 316 l 1,6,-1
 958 254 l 1,7,-1
 853 254 l 1,8,-1
 737 0 l 1,9,-1
 608 0 l 1,10,-1
 548 525 l 1,11,-1
 325 0 l 1,12,-1
 196 0 l 1,13,-1
 157 254 l 1,14,-1
 49 254 l 1,15,-1
 61 316 l 1,16,-1
 148 316 l 1,17,-1
 139 373 l 1,18,-1
 29 373 l 1,19,-1
 41 435 l 1,20,-1
 130 435 l 1,21,-1
 89 700 l 1,22,-1
 225 700 l 1,23,-1
 293 176 l 1,24,-1
 511 699 l 1,25,-1
 643 700 l 1,26,-1
 701 174 l 1,27,-1
 919 700 l 1,28,-1
 1057 700 l 1,0,-1
EndSplineSet
EndChar

StartChar: dong
Encoding: 8363 8363 646
Width: 688
Flags: W
LayerCount: 2
Fore
SplineSet
727 585 m 1,0,-1
 664 585 l 1,1,-1
 547 0 l 1,2,-1
 418 0 l 1,3,-1
 433 73 l 1,4,5
 397 35 397 35 350 14.5 c 128,-1,6
 303 -6 303 -6 250 -6 c 0,7,8
 186 -6 186 -6 136.5 24 c 128,-1,9
 87 54 87 54 59.5 108.5 c 128,-1,10
 32 163 32 163 32 233 c 0,11,12
 32 319 32 319 70 389 c 128,-1,13
 108 459 108 459 174 499.5 c 128,-1,14
 240 540 240 540 321 540 c 0,15,16
 388 540 388 540 434.5 511.5 c 128,-1,17
 481 483 481 483 502 429 c 1,18,-1
 534 585 l 1,19,-1
 398 585 l 1,20,-1
 411 650 l 1,21,-1
 547 650 l 1,22,-1
 566 742 l 1,23,-1
 695 742 l 1,24,-1
 677 650 l 1,25,-1
 740 650 l 1,26,-1
 727 585 l 1,0,-1
385 126 m 128,-1,28
 425 151 425 151 448 193.5 c 128,-1,29
 471 236 471 236 471 286 c 0,30,31
 471 349 471 349 435 387.5 c 128,-1,32
 399 426 399 426 339 426 c 0,33,34
 291 426 291 426 251 401 c 128,-1,35
 211 376 211 376 187.5 333 c 128,-1,36
 164 290 164 290 164 240 c 0,37,38
 164 177 164 177 200.5 139 c 128,-1,39
 237 101 237 101 297 101 c 0,40,27
 345 101 345 101 385 126 c 128,-1,28
48 -130 m 1,41,-1
 61 -66 l 1,42,-1
 513 -66 l 1,43,-1
 501 -130 l 1,44,-1
 48 -130 l 1,41,-1
EndSplineSet
EndChar

StartChar: Euro
Encoding: 8364 8364 647
Width: 793
Flags: W
LayerCount: 2
Fore
SplineSet
572.5 142 m 128,-1,1
 625 164 625 164 668 202 c 1,2,-1
 739 114 l 1,3,4
 679 59 679 59 602.5 26.5 c 128,-1,5
 526 -6 526 -6 452 -6 c 0,6,7
 368 -6 368 -6 299 27 c 128,-1,8
 230 60 230 60 185 119 c 128,-1,9
 140 178 140 178 126 254 c 1,10,-1
 21 254 l 1,11,-1
 34 316 l 1,12,-1
 120 316 l 1,13,-1
 120 321 l 2,14,15
 120 350 120 350 124 373 c 1,16,-1
 44 373 l 1,17,-1
 57 435 l 1,18,-1
 138 435 l 1,19,20
 164 513 164 513 221 574.5 c 128,-1,21
 278 636 278 636 357.5 670 c 128,-1,22
 437 704 437 704 526 704 c 0,23,24
 601 704 601 704 670 674 c 128,-1,25
 739 644 739 644 786 592 c 1,26,-1
 698 494 l 1,27,28
 664 536 664 536 616 560.5 c 128,-1,29
 568 585 568 585 517 585 c 0,30,31
 440 585 440 585 376 543.5 c 128,-1,32
 312 502 312 502 281 435 c 1,33,-1
 560 435 l 1,34,-1
 548 373 l 1,35,-1
 261 373 l 1,36,37
 258 354 258 354 258 332 c 0,38,39
 258 321 258 321 259 316 c 1,40,-1
 537 316 l 1,41,-1
 525 254 l 1,42,-1
 272 254 l 1,43,44
 294 194 294 194 347.5 157 c 128,-1,45
 401 120 401 120 470 120 c 0,46,0
 520 120 520 120 572.5 142 c 128,-1,1
EndSplineSet
EndChar

StartChar: uni20AD
Encoding: 8365 8365 648
Width: 678
Flags: W
LayerCount: 2
Fore
SplineSet
616 386 m 1,0,-1
 604 324 l 1,1,-1
 371 324 l 1,2,-1
 610 0 l 1,3,-1
 449 0 l 1,4,-1
 221 315 l 1,5,-1
 160 0 l 1,6,-1
 26 0 l 1,7,-1
 89 324 l 1,8,-1
 9 324 l 1,9,-1
 22 386 l 1,10,-1
 101 386 l 1,11,-1
 162 700 l 1,12,-1
 296 700 l 1,13,-1
 237 396 l 1,14,-1
 542 700 l 1,15,-1
 698 700 l 1,16,-1
 379 386 l 1,17,-1
 616 386 l 1,0,-1
EndSplineSet
EndChar

StartChar: uni20B1
Encoding: 8369 8369 649
Width: 771
Flags: W
LayerCount: 2
Fore
SplineSet
721 481 m 1,0,1
 720 451 720 451 712 424 c 1,2,-1
 800 424 l 1,3,-1
 788 362 l 1,4,-1
 689 362 l 1,5,6
 650 288 650 288 572.5 247 c 128,-1,7
 495 206 495 206 388 206 c 2,8,-1
 235 206 l 1,9,-1
 194 0 l 1,10,-1
 60 0 l 1,11,-1
 132 362 l 1,12,-1
 44 362 l 1,13,-1
 56 424 l 1,14,-1
 145 424 l 1,15,-1
 156 481 l 1,16,-1
 67 481 l 1,17,-1
 79 543 l 1,18,-1
 169 543 l 1,19,-1
 200 700 l 1,20,-1
 486 700 l 2,21,22
 588 700 588 700 648 659.5 c 128,-1,23
 708 619 708 619 719 543 c 1,24,-1
 823 543 l 1,25,-1
 811 481 l 1,26,-1
 721 481 l 1,0,1
542 365 m 128,-1,28
 591 406 591 406 591 482 c 0,29,30
 591 532 591 532 556.5 557.5 c 128,-1,31
 522 583 522 583 458 583 c 2,32,-1
 310 583 l 1,33,-1
 258 324 l 1,34,-1
 404 324 l 2,35,27
 493 324 493 324 542 365 c 128,-1,28
EndSplineSet
EndChar

StartChar: uni20B2
Encoding: 8370 8370 650
Width: 759
Flags: W
LayerCount: 2
Fore
SplineSet
594 348 m 1,0,-1
 710 348 l 1,1,-1
 659 85 l 1,2,3
 598 43 598 43 527 18.5 c 128,-1,4
 456 -6 456 -6 386 -6 c 2,5,-1
 385 -6 l 1,6,-1
 359 -145 l 1,7,-1
 262 -145 l 1,8,-1
 291 6 l 1,9,10
 219 24 219 24 164 69.5 c 128,-1,11
 109 115 109 115 79 179.5 c 128,-1,12
 49 244 49 244 49 320 c 0,13,14
 49 422 49 422 100.5 507 c 128,-1,15
 152 592 152 592 241 644.5 c 128,-1,16
 330 697 330 697 436 703 c 1,17,-1
 461 837 l 1,18,-1
 558 837 l 1,19,-1
 532 698 l 1,20,21
 589 688 589 688 640 663.5 c 128,-1,22
 691 639 691 639 728 604 c 1,23,-1
 643 506 l 1,24,25
 606 543 606 543 555.5 564 c 128,-1,26
 505 585 505 585 453 585 c 0,27,28
 382 585 382 585 320.5 550.5 c 128,-1,29
 259 516 259 516 222.5 457.5 c 128,-1,30
 186 399 186 399 186 329 c 0,31,32
 186 269 186 269 214.5 220 c 128,-1,33
 243 171 243 171 293 142.5 c 128,-1,34
 343 114 343 114 406 114 c 0,35,36
 478 114 478 114 556 157 c 1,37,-1
 594 348 l 1,0,-1
EndSplineSet
EndChar

StartChar: uni20B5
Encoding: 8373 8373 651
Width: 723
Flags: W
LayerCount: 2
Fore
SplineSet
668 114 m 1,0,1
 609 59 609 59 533.5 27 c 128,-1,2
 458 -5 458 -5 385 -6 c 1,3,-1
 359 -145 l 1,4,-1
 262 -145 l 1,5,-1
 290 5 l 1,6,7
 218 23 218 23 163.5 68.5 c 128,-1,8
 109 114 109 114 79 179 c 128,-1,9
 49 244 49 244 49 321 c 0,10,11
 49 423 49 423 101 509 c 128,-1,12
 153 595 153 595 242 647 c 128,-1,13
 331 699 331 699 436 704 c 1,14,-1
 461 837 l 1,15,-1
 558 837 l 1,16,-1
 532 696 l 1,17,18
 586 684 586 684 633.5 657 c 128,-1,19
 681 630 681 630 715 592 c 1,20,-1
 628 494 l 1,21,22
 594 536 594 536 546 560.5 c 128,-1,23
 498 585 498 585 447 585 c 0,24,25
 377 585 377 585 317.5 551 c 128,-1,26
 258 517 258 517 222.5 459 c 128,-1,27
 187 401 187 401 187 332 c 0,28,29
 187 273 187 273 214.5 224.5 c 128,-1,30
 242 176 242 176 290.5 148 c 128,-1,31
 339 120 339 120 399 120 c 0,32,33
 449 120 449 120 501.5 142 c 128,-1,34
 554 164 554 164 597 202 c 1,35,-1
 668 114 l 1,0,1
EndSplineSet
EndChar

StartChar: uni20B9
Encoding: 8377 8377 652
Width: 630
Flags: W
LayerCount: 2
Fore
SplineSet
638 588 m 1,0,-1
 527 588 l 1,1,2
 543 553 543 553 543 506 c 0,3,4
 543 493 543 493 542 486 c 1,5,-1
 618 486 l 1,6,-1
 606 423 l 1,7,-1
 533 423 l 1,8,9
 518 363 518 363 480.5 317.5 c 128,-1,10
 443 272 443 272 387 244 c 1,11,-1
 526 0 l 1,12,-1
 374 0 l 1,13,-1
 262 209 l 1,14,15
 233 206 233 206 203 206 c 2,16,-1
 25 206 l 1,17,-1
 47 319 l 1,18,-1
 224 319 l 2,19,20
 293 319 293 319 339.5 346 c 128,-1,21
 386 373 386 373 403 423 c 1,22,-1
 68 423 l 1,23,-1
 80 486 l 1,24,-1
 412 486 l 1,25,26
 411 535 411 535 376 561 c 128,-1,27
 341 587 341 587 278 587 c 2,28,-1
 100 587 l 1,29,-1
 121 700 l 1,30,-1
 660 700 l 1,31,-1
 638 588 l 1,0,-1
EndSplineSet
EndChar

StartChar: uni20BA
Encoding: 8378 8378 653
Width: 724
Flags: W
LayerCount: 2
Fore
SplineSet
698 356 m 1,0,1
 676 246 676 246 615.5 166 c 128,-1,2
 555 86 555 86 462 43 c 128,-1,3
 369 0 369 0 253 0 c 2,4,-1
 65 0 l 1,5,-1
 127 312 l 1,6,-1
 39 288 l 1,7,-1
 54 364 l 1,8,-1
 143 388 l 1,9,-1
 157 461 l 1,10,-1
 69 437 l 1,11,-1
 83 513 l 1,12,-1
 172 537 l 1,13,-1
 205 700 l 1,14,-1
 339 700 l 1,15,-1
 314 576 l 1,16,-1
 572 646 l 1,17,-1
 557 570 l 1,18,-1
 299 500 l 1,19,-1
 284 427 l 1,20,-1
 542 497 l 1,21,-1
 527 421 l 1,22,-1
 269 351 l 1,23,-1
 221 113 l 1,24,-1
 282 113 l 2,25,26
 393 113 393 113 470 177 c 128,-1,27
 547 241 547 241 570 355 c 1,28,-1
 698 356 l 1,0,1
EndSplineSet
EndChar

StartChar: uni20BC
Encoding: 8380 8380 654
Width: 833
Flags: W
LayerCount: 2
Fore
SplineSet
714.5 536.5 m 128,-1,1
 776 477 776 477 776 380 c 0,2,3
 776 346 776 346 769 312 c 2,4,-1
 708 0 l 1,5,-1
 573 0 l 1,6,-1
 635 312 l 2,7,8
 640 337 640 337 640 356 c 0,9,10
 640 409 640 409 608 442.5 c 128,-1,11
 576 476 576 476 515 486 c 1,12,-1
 418 0 l 1,13,-1
 320 0 l 1,14,-1
 417 487 l 1,15,16
 339 476 339 476 285 430 c 128,-1,17
 231 384 231 384 216 312 c 2,18,-1
 155 0 l 1,19,-1
 20 0 l 1,20,-1
 82 312 l 2,21,22
 107 439 107 439 204 518 c 128,-1,23
 301 597 301 597 442 608 c 1,24,-1
 460 700 l 1,25,-1
 558 700 l 1,26,-1
 539 607 l 1,27,0
 653 596 653 596 714.5 536.5 c 128,-1,1
EndSplineSet
EndChar

StartChar: uni20BD
Encoding: 8381 8381 655
Width: 678
Flags: W
LayerCount: 2
Fore
SplineSet
203 224 m 1,0,-1
 190 159 l 1,1,-1
 429 159 l 1,2,-1
 417 97 l 1,3,-1
 178 97 l 1,4,-1
 159 0 l 1,5,-1
 24 0 l 1,6,-1
 43 97 l 1,7,-1
 -35 97 l 1,8,-1
 -23 159 l 1,9,-1
 56 159 l 1,10,-1
 164 700 l 1,11,-1
 451 700 l 2,12,13
 564 700 564 700 625.5 651 c 128,-1,14
 687 602 687 602 687 514 c 0,15,16
 687 425 687 425 646.5 359.5 c 128,-1,17
 606 294 606 294 531 259 c 128,-1,18
 456 224 456 224 353 224 c 2,19,-1
 203 224 l 1,0,-1
521 558.5 m 128,-1,21
 486 583 486 583 422 583 c 2,22,-1
 275 583 l 1,23,-1
 226 338 l 1,24,-1
 369 338 l 2,25,26
 458 338 458 338 507 376.5 c 128,-1,27
 556 415 556 415 556 490 c 0,28,20
 556 534 556 534 521 558.5 c 128,-1,21
EndSplineSet
EndChar

StartChar: uni2113
Encoding: 8467 8467 656
Width: 469
Flags: W
LayerCount: 2
Fore
SplineSet
419 677.5 m 128,-1,1
 447 648 447 648 447 594 c 0,2,3
 447 494 447 494 372.5 401 c 128,-1,4
 298 308 298 308 182 219 c 1,5,6
 173 182 173 182 173 156 c 0,7,8
 173 123 173 123 187.5 107.5 c 128,-1,9
 202 92 202 92 231 92 c 0,10,11
 267 92 267 92 300 114 c 128,-1,12
 333 136 333 136 367 175 c 1,13,-1
 407 122 l 1,14,15
 314 -5 314 -5 195 -5 c 0,16,17
 127 -5 127 -5 98.5 36.5 c 128,-1,18
 70 78 70 78 74 155 c 1,19,-1
 21 122 l 1,20,-1
 4 183 l 1,21,-1
 90 241 l 1,22,-1
 150 497 l 2,23,24
 176 602 176 602 227 654.5 c 128,-1,25
 278 707 278 707 342 707 c 0,26,0
 391 707 391 707 419 677.5 c 128,-1,1
287 600.5 m 128,-1,28
 265 571 265 571 249 508 c 2,29,-1
 205 326 l 1,30,31
 273 382 273 382 319 450 c 128,-1,32
 365 518 365 518 369 576 c 0,33,34
 370 602 370 602 361 616 c 128,-1,35
 352 630 352 630 334 630 c 0,36,27
 309 630 309 630 287 600.5 c 128,-1,28
EndSplineSet
EndChar

StartChar: uni2116
Encoding: 8470 8470 657
Width: 1246
Flags: W
LayerCount: 2
Fore
SplineSet
1184 669 m 128,-1,1
 1228 629 1228 629 1228 562 c 0,2,3
 1228 510 1228 510 1203 470 c 128,-1,4
 1178 430 1178 430 1134.5 407.5 c 128,-1,5
 1091 385 1091 385 1035 385 c 0,6,7
 961 385 961 385 917 425.5 c 128,-1,8
 873 466 873 466 873 532 c 0,9,10
 873 584 873 584 898 624.5 c 128,-1,11
 923 665 923 665 966.5 687 c 128,-1,12
 1010 709 1010 709 1066 709 c 0,13,0
 1140 709 1140 709 1184 669 c 128,-1,1
610 216 m 1,14,-1
 708 700 l 1,15,-1
 837 700 l 1,16,-1
 697 0 l 1,17,-1
 570 0 l 1,18,-1
 308 482 l 1,19,-1
 211 0 l 1,20,-1
 80 0 l 1,21,-1
 220 700 l 1,22,-1
 347 700 l 1,23,-1
 610 216 l 1,14,-1
1108.5 485.5 m 128,-1,25
 1135 513 1135 513 1135 556 c 0,26,27
 1135 592 1135 592 1114.5 613.5 c 128,-1,28
 1094 635 1094 635 1059 635 c 0,29,30
 1018 635 1018 635 991.5 607.5 c 128,-1,31
 965 580 965 580 965 536 c 0,32,33
 965 501 965 501 986 479.5 c 128,-1,34
 1007 458 1007 458 1041 458 c 0,35,24
 1082 458 1082 458 1108.5 485.5 c 128,-1,25
863 215 m 1,36,-1
 880 304 l 1,37,-1
 1141 304 l 1,38,-1
 1125 215 l 1,39,-1
 863 215 l 1,36,-1
EndSplineSet
EndChar

StartChar: trademark
Encoding: 8482 8482 658
Width: 916
Flags: W
LayerCount: 2
Fore
SplineSet
434 700 m 1,0,-1
 417 618 l 1,1,-1
 297 618 l 1,2,-1
 219 280 l 1,3,-1
 123 280 l 1,4,-1
 201 618 l 1,5,-1
 82 618 l 1,6,-1
 99 700 l 1,7,-1
 434 700 l 1,0,-1
947 700 m 1,8,-1
 852 280 l 1,9,-1
 765 280 l 1,10,-1
 831 559 l 1,11,-1
 664 322 l 1,12,-1
 600 322 l 1,13,-1
 545 559 l 1,14,-1
 479 280 l 1,15,-1
 392 280 l 1,16,-1
 487 700 l 1,17,-1
 595 700 l 1,18,-1
 656 446 l 1,19,-1
 837 700 l 1,20,-1
 947 700 l 1,8,-1
EndSplineSet
EndChar

StartChar: estimated
Encoding: 8494 8494 660
Width: 816
Flags: W
LayerCount: 2
Fore
SplineSet
208 308 m 2,1,-1
 208 144 l 2,2,3
 208 135 208 135 216 125 c 0,4,5
 255 83 255 83 308.5 59.5 c 128,-1,6
 362 36 362 36 422 36 c 0,7,8
 485 36 485 36 541.5 62.5 c 128,-1,9
 598 89 598 89 637 135 c 1,10,-1
 686 135 l 1,11,12
 640 81 640 81 570 49.5 c 128,-1,13
 500 18 500 18 421 18 c 0,14,15
 330 18 330 18 253 58.5 c 128,-1,16
 176 99 176 99 131 168 c 128,-1,17
 86 237 86 237 86 319 c 256,18,19
 86 401 86 401 131 470.5 c 128,-1,20
 176 540 176 540 253 580.5 c 128,-1,21
 330 621 330 621 421 621 c 256,22,23
 512 621 512 621 589 580.5 c 128,-1,24
 666 540 666 540 711 470.5 c 128,-1,25
 756 401 756 401 756 319 c 2,26,-1
 756 312 l 1,27,-1
 213 312 l 2,28,0
 208 312 208 312 208 308 c 2,1,-1
625 518 m 0,30,31
 585 558 585 558 532.5 580.5 c 128,-1,32
 480 603 480 603 422 603 c 0,33,34
 363 603 363 603 310 579.5 c 128,-1,35
 257 556 257 556 217 515 c 0,36,37
 208 506 208 506 208 495 c 2,38,-1
 208 333 l 2,39,40
 208 328 208 328 213 328 c 2,41,-1
 629 328 l 2,42,43
 634 328 634 328 634 333 c 2,44,-1
 634 498 l 2,45,29
 634 509 634 509 625 518 c 0,30,31
EndSplineSet
EndChar

StartChar: arrowleft
Encoding: 8592 8592 667
Width: 600
Flags: W
LayerCount: 2
Fore
SplineSet
540 324 m 1,0,-1
 522 228 l 1,1,-1
 242 228 l 1,2,-1
 312 61 l 1,3,-1
 197 61 l 1,4,-1
 97 276 l 1,5,-1
 279 491 l 1,6,-1
 394 491 l 1,7,-1
 260 324 l 1,8,-1
 540 324 l 1,0,-1
EndSplineSet
EndChar

StartChar: arrowup
Encoding: 8593 8593 668
Width: 600
Flags: W
LayerCount: 2
Fore
SplineSet
529 358 m 1,0,-1
 508 246 l 1,1,-1
 368 345 l 1,2,-1
 312 59 l 1,3,-1
 210 59 l 1,4,-1
 266 347 l 1,5,-1
 86 246 l 1,6,-1
 107 358 l 1,7,-1
 344 501 l 1,8,-1
 529 358 l 1,0,-1
EndSplineSet
EndChar

StartChar: arrowright
Encoding: 8594 8594 669
Width: 600
Flags: W
LayerCount: 2
Fore
SplineSet
410 492 m 1,0,-1
 510 277 l 1,1,-1
 328 62 l 1,2,-1
 213 62 l 1,3,-1
 347 229 l 1,4,-1
 67 229 l 1,5,-1
 85 325 l 1,6,-1
 365 325 l 1,7,-1
 295 492 l 1,8,-1
 410 492 l 1,0,-1
EndSplineSet
EndChar

StartChar: arrowdown
Encoding: 8595 8595 670
Width: 600
Flags: W
LayerCount: 2
Fore
SplineSet
338 205 m 1,0,-1
 518 306 l 1,1,-1
 497 194 l 1,2,-1
 260 51 l 1,3,-1
 75 194 l 1,4,-1
 96 306 l 1,5,-1
 236 207 l 1,6,-1
 292 493 l 1,7,-1
 394 493 l 1,8,-1
 338 205 l 1,0,-1
EndSplineSet
EndChar

StartChar: arrowboth
Encoding: 8596 8596 671
Width: 753
Flags: W
LayerCount: 2
Fore
SplineSet
603 491 m 1,0,-1
 703 276 l 1,1,-1
 521 61 l 1,2,-1
 405 61 l 1,3,-1
 539 228 l 1,4,-1
 195 228 l 1,5,-1
 265 61 l 1,6,-1
 150 61 l 1,7,-1
 50 276 l 1,8,-1
 232 491 l 1,9,-1
 348 491 l 1,10,-1
 214 324 l 1,11,-1
 558 324 l 1,12,-1
 488 491 l 1,13,-1
 603 491 l 1,0,-1
EndSplineSet
EndChar

StartChar: arrowupdn
Encoding: 8597 8597 672
Width: 664
Flags: W
LayerCount: 2
Fore
SplineSet
555 419 m 1,0,-1
 414 519 l 1,1,-1
 353 201 l 1,2,-1
 532 301 l 1,3,-1
 511 189 l 1,4,-1
 273 45 l 1,5,-1
 89 189 l 1,6,-1
 110 301 l 1,7,-1
 250 202 l 1,8,-1
 312 520 l 1,9,-1
 133 419 l 1,10,-1
 153 531 l 1,11,-1
 391 674 l 1,12,-1
 576 531 l 1,13,-1
 555 419 l 1,0,-1
EndSplineSet
EndChar

StartChar: uni2196
Encoding: 8598 8598 673
Width: 624
Flags: W
LayerCount: 2
Fore
SplineSet
524 412 m 1,0,-1
 334 368 l 1,1,-1
 495 166 l 1,2,-1
 408 90 l 1,3,-1
 245 294 l 1,4,-1
 167 109 l 1,5,-1
 107 188 l 1,6,-1
 203 440 l 1,7,-1
 463 491 l 1,8,-1
 524 412 l 1,0,-1
EndSplineSet
EndChar

StartChar: uni2197
Encoding: 8599 8599 674
Width: 604
Flags: W
LayerCount: 2
Fore
SplineSet
512 181 m 1,0,-1
 422 103 l 1,1,-1
 414 286 l 1,2,-1
 174 83 l 1,3,-1
 116 160 l 1,4,-1
 355 361 l 1,5,-1
 181 405 l 1,6,-1
 271 484 l 1,7,-1
 511 435 l 1,8,-1
 512 181 l 1,0,-1
EndSplineSet
EndChar

StartChar: uni2198
Encoding: 8600 8600 675
Width: 624
Flags: W
LayerCount: 2
Fore
SplineSet
471 455 m 1,0,-1
 532 377 l 1,1,-1
 435 124 l 1,2,-1
 175 73 l 1,3,-1
 115 152 l 1,4,-1
 304 196 l 1,5,-1
 143 398 l 1,6,-1
 230 474 l 1,7,-1
 393 270 l 1,8,-1
 471 455 l 1,0,-1
EndSplineSet
EndChar

StartChar: uni2199
Encoding: 8601 8601 676
Width: 604
Flags: W
LayerCount: 2
Fore
SplineSet
502 404 m 1,0,-1
 263 203 l 1,1,-1
 437 159 l 1,2,-1
 347 80 l 1,3,-1
 107 129 l 1,4,-1
 106 383 l 1,5,-1
 196 461 l 1,6,-1
 204 278 l 1,7,-1
 444 481 l 1,8,-1
 502 404 l 1,0,-1
EndSplineSet
EndChar

StartChar: partialdiff
Encoding: 8706 8706 677
Width: 635
Flags: W
LayerCount: 2
Fore
SplineSet
106.5 51 m 128,-1,1
 45 108 45 108 45 205 c 0,2,3
 45 279 45 279 77 336 c 128,-1,4
 109 393 109 393 166.5 424.5 c 128,-1,5
 224 456 224 456 299 456 c 0,6,7
 365 456 365 456 409.5 427 c 128,-1,8
 454 398 454 398 468 346 c 1,9,10
 475 391 475 391 475 419 c 0,11,12
 475 505 475 505 434 550 c 128,-1,13
 393 595 393 595 316 595 c 0,14,15
 225 595 225 595 150 540 c 1,16,-1
 108 641 l 1,17,18
 159 671 159 671 219.5 688.5 c 128,-1,19
 280 706 280 706 335 706 c 0,20,21
 416 706 416 706 476.5 668 c 128,-1,22
 537 630 537 630 569.5 559 c 128,-1,23
 602 488 602 488 602 392 c 0,24,25
 602 272 602 272 562 182 c 128,-1,26
 522 92 522 92 447.5 43 c 128,-1,27
 373 -6 373 -6 273 -6 c 0,28,0
 168 -6 168 -6 106.5 51 c 128,-1,1
397 147 m 128,-1,30
 439 185 439 185 439 243 c 0,31,32
 439 292 439 292 404 321 c 128,-1,33
 369 350 369 350 312 350 c 0,34,35
 247 350 247 350 209 314 c 128,-1,36
 171 278 171 278 171 217 c 0,37,38
 171 167 171 167 203 138 c 128,-1,39
 235 109 235 109 291 109 c 0,40,29
 355 109 355 109 397 147 c 128,-1,30
EndSplineSet
EndChar

StartChar: emptyset
Encoding: 8709 8709 678
Width: 544
Flags: W
LayerCount: 2
Fore
SplineSet
482 454 m 1,0,1
 507 410 507 410 507 358 c 0,2,3
 507 293 507 293 471 234.5 c 128,-1,4
 435 176 435 176 376 140.5 c 128,-1,5
 317 105 317 105 252 105 c 0,6,7
 172 105 172 105 122 157 c 1,8,-1
 39 88 l 1,9,-1
 6 133 l 1,10,-1
 90 201 l 1,11,12
 68 243 68 243 68 293 c 0,13,14
 68 358 68 358 104 416.5 c 128,-1,15
 140 475 140 475 198.5 510 c 128,-1,16
 257 545 257 545 322 545 c 0,17,18
 360 545 360 545 393.5 531.5 c 128,-1,19
 427 518 427 518 451 494 c 1,20,-1
 533 560 l 1,21,-1
 561 519 l 1,22,-1
 482 454 l 1,0,1
165 262 m 1,24,-1
 375 432 l 1,25,26
 347 452 347 452 308 452 c 256,27,28
 269 452 269 452 234 431.5 c 128,-1,29
 199 411 199 411 177.5 377.5 c 128,-1,30
 156 344 156 344 156 307 c 0,31,23
 156 282 156 282 165 262 c 1,24,-1
408 393 m 1,33,-1
 198 219 l 1,34,35
 226 197 226 197 266 197 c 0,36,37
 305 197 305 197 340.5 217.5 c 128,-1,38
 376 238 376 238 397.5 272.5 c 128,-1,39
 419 307 419 307 419 346 c 0,40,32
 419 371 419 371 408 393 c 1,33,-1
EndSplineSet
EndChar

StartChar: uni2206
Encoding: 8710 8710 679
Width: 691
Flags: W
LayerCount: 2
Fore
SplineSet
487 700 m 1,0,-1
 653 87 l 1,1,-1
 638 0 l 1,2,-1
 -52 0 l 1,3,-1
 -37 87 l 1,4,-1
 350 700 l 1,5,-1
 487 700 l 1,0,-1
392 562 m 1,6,-1
 116 113 l 1,7,-1
 506 113 l 1,8,-1
 392 562 l 1,6,-1
EndSplineSet
EndChar

StartChar: product
Encoding: 8719 8719 680
Width: 749
Flags: W
LayerCount: 2
Fore
SplineSet
758 742 m 1,0,-1
 570 -194 l 1,1,-1
 439 -194 l 1,2,-1
 605 632 l 1,3,-1
 291 632 l 1,4,-1
 125 -194 l 1,5,-1
 -6 -194 l 1,6,-1
 182 742 l 1,7,-1
 758 742 l 1,0,-1
EndSplineSet
EndChar

StartChar: summation
Encoding: 8721 8721 681
Width: 615
Flags: W
LayerCount: 2
Fore
SplineSet
696 743 m 1,0,-1
 673 624 l 1,1,-1
 267 624 l 1,2,-1
 470 305 l 1,3,-1
 138 -18 l 1,4,-1
 552 -18 l 1,5,-1
 529 -138 l 1,6,-1
 -49 -138 l 1,7,-1
 -31 -36 l 1,8,-1
 326 305 l 1,9,-1
 117 640 l 1,10,-1
 136 743 l 1,11,-1
 696 743 l 1,0,-1
EndSplineSet
EndChar

StartChar: minus
Encoding: 8722 8722 682
Width: 502
Flags: W
LayerCount: 2
Fore
SplineSet
488 370 m 1,0,-1
 471 280 l 1,1,-1
 38 280 l 1,2,-1
 55 370 l 1,3,-1
 488 370 l 1,0,-1
EndSplineSet
EndChar

StartChar: uni2219
Encoding: 8729 8729 684
Width: 294
Flags: W
LayerCount: 2
Fore
SplineSet
228.5 355 m 128,-1,1
 252 332 252 332 252 294 c 0,2,3
 252 259 252 259 235 228.5 c 128,-1,4
 218 198 218 198 189 180 c 128,-1,5
 160 162 160 162 127 162 c 0,6,7
 88 162 88 162 65 185.5 c 128,-1,8
 42 209 42 209 42 247 c 0,9,10
 42 282 42 282 59 312 c 128,-1,11
 76 342 76 342 104.5 360 c 128,-1,12
 133 378 133 378 166 378 c 0,13,0
 205 378 205 378 228.5 355 c 128,-1,1
EndSplineSet
EndChar

StartChar: radical
Encoding: 8730 8730 685
Width: 695
Flags: W
LayerCount: 2
Fore
SplineSet
35 402 m 1,0,-1
 248 402 l 1,1,-1
 290 -15 l 1,2,-1
 666 748 l 1,3,-1
 794 748 l 1,4,-1
 336 -155 l 1,5,-1
 197 -155 l 1,6,-1
 140 292 l 1,7,-1
 15 292 l 1,8,-1
 35 402 l 1,0,-1
EndSplineSet
EndChar

StartChar: infinity
Encoding: 8734 8734 686
Width: 872
Flags: W
LayerCount: 2
Fore
SplineSet
760 483.5 m 128,-1,1
 801 460 801 460 823.5 417.5 c 128,-1,2
 846 375 846 375 846 321 c 0,3,4
 846 258 846 258 818 206.5 c 128,-1,5
 790 155 790 155 741 125 c 128,-1,6
 692 95 692 95 633 95 c 0,7,8
 559 95 559 95 515.5 129.5 c 128,-1,9
 472 164 472 164 439 226 c 1,10,11
 393 164 393 164 343.5 129.5 c 128,-1,12
 294 95 294 95 220 95 c 0,13,14
 168 95 168 95 127 118.5 c 128,-1,15
 86 142 86 142 63 184.5 c 128,-1,16
 40 227 40 227 40 281 c 0,17,18
 40 343 40 343 68.5 394.5 c 128,-1,19
 97 446 97 446 146.5 476 c 128,-1,20
 196 506 196 506 256 506 c 0,21,22
 328 506 328 506 371 471.5 c 128,-1,23
 414 437 414 437 447 375 c 1,24,25
 493 438 493 438 543 472.5 c 128,-1,26
 593 507 593 507 667 507 c 0,27,0
 719 507 719 507 760 483.5 c 128,-1,1
317 220 m 128,-1,29
 357 250 357 250 397 307 c 1,30,31
 370 357 370 357 336.5 384 c 128,-1,32
 303 411 303 411 250 411 c 0,33,34
 218 411 218 411 190 393.5 c 128,-1,35
 162 376 162 376 145.5 346.5 c 128,-1,36
 129 317 129 317 129 283 c 0,37,38
 129 241 129 241 154.5 215.5 c 128,-1,39
 180 190 180 190 221 190 c 0,40,28
 277 190 277 190 317 220 c 128,-1,29
721 227 m 128,-1,42
 757 264 757 264 757 319 c 0,43,44
 757 360 757 360 731.5 385.5 c 128,-1,45
 706 411 706 411 664 411 c 0,46,47
 608 411 608 411 568.5 381 c 128,-1,48
 529 351 529 351 488 295 c 1,49,50
 515 245 515 245 548 217.5 c 128,-1,51
 581 190 581 190 633 190 c 256,52,41
 685 190 685 190 721 227 c 128,-1,42
EndSplineSet
EndChar

StartChar: integral
Encoding: 8747 8747 687
Width: 264
Flags: W
LayerCount: 2
Fore
SplineSet
314 746 m 0,1,2
 270 746 270 746 248 718 c 128,-1,3
 226 690 226 690 219 624 c 0,4,5
 214 570 214 570 204 378 c 0,6,7
 194 167 194 167 186 90 c 0,8,9
 177 9 177 9 156.5 -39.5 c 128,-1,10
 136 -88 136 -88 100 -110 c 128,-1,11
 64 -132 64 -132 6 -132 c 0,12,13
 -23 -132 -23 -132 -44.5 -126 c 128,-1,14
 -66 -120 -66 -120 -86 -107 c 1,15,-1
 -64 -20 l 1,16,17
 -47 -28 -47 -28 -34.5 -31.5 c 128,-1,18
 -22 -35 -22 -35 -9 -35 c 0,19,20
 35 -35 35 -35 58.5 -5.5 c 128,-1,21
 82 24 82 24 89 92 c 0,22,23
 96 152 96 152 106 369 c 0,24,25
 107 397 107 397 111.5 488 c 128,-1,26
 116 579 116 579 121 625 c 0,27,28
 129 706 129 706 149.5 754 c 128,-1,29
 170 802 170 802 206 823.5 c 128,-1,30
 242 845 242 845 299 845 c 0,31,32
 321 845 321 845 339.5 840 c 128,-1,33
 358 835 358 835 382 824 c 1,34,-1
 362 736 l 1,35,0
 341 746 341 746 314 746 c 0,1,2
EndSplineSet
EndChar

StartChar: approxequal
Encoding: 8776 8776 688
Width: 502
Flags: W
LayerCount: 2
Fore
SplineSet
254 508.5 m 128,-1,1
 273 500 273 500 296 484 c 0,2,3
 313 473 313 473 324 467.5 c 128,-1,4
 335 462 335 462 347 462 c 0,5,6
 365 462 365 462 379 474.5 c 128,-1,7
 393 487 393 487 398 511 c 1,8,-1
 487 511 l 1,9,10
 472 436 472 436 440 398.5 c 128,-1,11
 408 361 408 361 357 361 c 0,12,13
 331 361 331 361 312 369.5 c 128,-1,14
 293 378 293 378 270 394 c 0,15,16
 254 405 254 405 243.5 410.5 c 128,-1,17
 233 416 233 416 221 416 c 0,18,19
 183 416 183 416 174 367 c 1,20,-1
 84 367 l 1,21,22
 98 443 98 443 129 480 c 128,-1,23
 160 517 160 517 210 517 c 0,24,0
 235 517 235 517 254 508.5 c 128,-1,1
208.5 285.5 m 128,-1,26
 227 277 227 277 252 261 c 0,27,28
 269 250 269 250 280 244.5 c 128,-1,29
 291 239 291 239 302 239 c 0,30,31
 321 239 321 239 335 251.5 c 128,-1,32
 349 264 349 264 353 287 c 1,33,-1
 442 287 l 1,34,35
 413 137 413 137 313 137 c 0,36,37
 287 137 287 137 268.5 145.5 c 128,-1,38
 250 154 250 154 225 170 c 0,39,40
 209 181 209 181 198.5 186.5 c 128,-1,41
 188 192 188 192 176 192 c 0,42,43
 140 192 140 192 129 143 c 1,44,-1
 40 143 l 1,45,46
 54 219 54 219 85 256.5 c 128,-1,47
 116 294 116 294 166 294 c 0,48,25
 190 294 190 294 208.5 285.5 c 128,-1,26
EndSplineSet
EndChar

StartChar: notequal
Encoding: 8800 8800 689
Width: 503
Flags: W
LayerCount: 2
Fore
SplineSet
492 386 m 1,0,-1
 333 386 l 1,1,-1
 283 264 l 1,2,-1
 466 264 l 1,3,-1
 451 175 l 1,4,-1
 246 175 l 1,5,-1
 185 28 l 1,6,-1
 86 28 l 1,7,-1
 147 175 l 1,8,-1
 18 175 l 1,9,-1
 34 264 l 1,10,-1
 183 264 l 1,11,-1
 234 386 l 1,12,-1
 59 386 l 1,13,-1
 76 475 l 1,14,-1
 270 475 l 1,15,-1
 329 617 l 1,16,-1
 429 617 l 1,17,-1
 370 475 l 1,18,-1
 509 475 l 1,19,-1
 492 386 l 1,0,-1
EndSplineSet
EndChar

StartChar: lessequal
Encoding: 8804 8804 690
Width: 507
Flags: W
LayerCount: 2
Fore
SplineSet
543 630 m 1,0,-1
 525 528 l 1,1,-1
 149 390 l 1,2,-1
 466 250 l 1,3,-1
 449 159 l 1,4,-1
 54 339 l 1,5,-1
 74 450 l 1,6,-1
 543 630 l 1,0,-1
436 104 m 1,7,-1
 419 14 l 1,8,-1
 -14 14 l 1,9,-1
 3 104 l 1,10,-1
 436 104 l 1,7,-1
EndSplineSet
EndChar

StartChar: greaterequal
Encoding: 8805 8805 691
Width: 512
Flags: W
LayerCount: 2
Fore
SplineSet
20 165 m 1,0,-1
 38 267 l 1,1,-1
 414 404 l 1,2,-1
 97 544 l 1,3,-1
 114 636 l 1,4,-1
 509 456 l 1,5,-1
 489 345 l 1,6,-1
 20 165 l 1,0,-1
440 104 m 1,7,-1
 423 14 l 1,8,-1
 -10 14 l 1,9,-1
 7 104 l 1,10,-1
 440 104 l 1,7,-1
EndSplineSet
EndChar

StartChar: filledbox
Encoding: 9632 9632 692
Width: 600
Flags: W
LayerCount: 2
Fore
SplineSet
139 459 m 1,0,-1
 527 459 l 1,1,-1
 461 71 l 1,2,-1
 73 71 l 1,3,-1
 139 459 l 1,0,-1
EndSplineSet
EndChar

StartChar: uni25A1
Encoding: 9633 9633 693
Width: 600
Flags: W
LayerCount: 2
Fore
SplineSet
144 459 m 1,0,-1
 532 459 l 1,1,-1
 456 71 l 1,2,-1
 68 71 l 1,3,-1
 144 459 l 1,0,-1
207 377 m 1,4,-1
 163 153 l 1,5,-1
 393 153 l 1,6,-1
 437 377 l 1,7,-1
 207 377 l 1,4,-1
EndSplineSet
EndChar

StartChar: triagup
Encoding: 9650 9650 694
Width: 600
Flags: W
LayerCount: 2
Fore
SplineSet
341 478 m 1,0,-1
 472 52 l 1,1,-1
 46 52 l 1,2,-1
 341 478 l 1,0,-1
EndSplineSet
EndChar

StartChar: uni25B3
Encoding: 9651 9651 695
Width: 600
Flags: W
LayerCount: 2
Fore
SplineSet
341 478 m 1,0,-1
 472 52 l 1,1,-1
 46 52 l 1,2,-1
 341 478 l 1,0,-1
310 312 m 1,3,-1
 178 126 l 1,4,-1
 368 126 l 1,5,-1
 310 312 l 1,3,-1
EndSplineSet
EndChar

StartChar: uni25B6
Encoding: 9654 9654 696
Width: 600
Flags: W
LayerCount: 2
Fore
SplineSet
541 266 m 1,0,-1
 74 53 l 1,1,-1
 156 479 l 1,2,-1
 541 266 l 1,0,-1
EndSplineSet
EndChar

StartChar: uni25B7
Encoding: 9655 9655 697
Width: 600
Flags: W
LayerCount: 2
Fore
SplineSet
541 266 m 1,0,-1
 74 53 l 1,1,-1
 156 479 l 1,2,-1
 541 266 l 1,0,-1
378 266 m 1,3,-1
 206 359 l 1,4,-1
 169 173 l 1,5,-1
 378 266 l 1,3,-1
EndSplineSet
EndChar

StartChar: triagdn
Encoding: 9660 9660 698
Width: 600
Flags: W
LayerCount: 2
Fore
SplineSet
259 52 m 1,0,-1
 128 478 l 1,1,-1
 554 478 l 1,2,-1
 259 52 l 1,0,-1
EndSplineSet
EndChar

StartChar: uni25BD
Encoding: 9661 9661 699
Width: 600
Flags: W
LayerCount: 2
Fore
SplineSet
259 52 m 1,0,-1
 128 478 l 1,1,-1
 554 478 l 1,2,-1
 259 52 l 1,0,-1
290 218 m 1,3,-1
 422 404 l 1,4,-1
 232 404 l 1,5,-1
 290 218 l 1,3,-1
EndSplineSet
EndChar

StartChar: uni25C0
Encoding: 9664 9664 700
Width: 600
Flags: W
LayerCount: 2
Fore
SplineSet
58 265 m 1,0,-1
 525 478 l 1,1,-1
 443 52 l 1,2,-1
 58 265 l 1,0,-1
EndSplineSet
EndChar

StartChar: uni25C1
Encoding: 9665 9665 701
Width: 600
Flags: W
LayerCount: 2
Fore
SplineSet
58 265 m 1,0,-1
 525 478 l 1,1,-1
 443 52 l 1,2,-1
 58 265 l 1,0,-1
221 265 m 1,3,-1
 393 172 l 1,4,-1
 430 358 l 1,5,-1
 221 265 l 1,3,-1
EndSplineSet
EndChar

StartChar: uni25C6
Encoding: 9670 9670 702
Width: 600
Flags: W
LayerCount: 2
Fore
SplineSet
353 540 m 1,0,-1
 574 265 l 1,1,-1
 246 -9 l 1,2,-1
 25 265 l 1,3,-1
 353 540 l 1,0,-1
EndSplineSet
EndChar

StartChar: uni25C7
Encoding: 9671 9671 703
Width: 600
Flags: W
LayerCount: 2
Fore
SplineSet
353 540 m 1,0,-1
 574 265 l 1,1,-1
 246 -9 l 1,2,-1
 25 265 l 1,3,-1
 353 540 l 1,0,-1
331 423 m 1,4,-1
 138 265 l 1,5,-1
 268 108 l 1,6,-1
 461 265 l 1,7,-1
 331 423 l 1,4,-1
EndSplineSet
EndChar

StartChar: lozenge
Encoding: 9674 9674 704
Width: 528
Flags: W
LayerCount: 2
Fore
SplineSet
342 675 m 1,0,-1
 509 330 l 1,1,-1
 209 -17 l 1,2,-1
 45 330 l 1,3,-1
 342 675 l 1,0,-1
316 505 m 1,4,-1
 156 330 l 1,5,-1
 237 155 l 1,6,-1
 398 330 l 1,7,-1
 316 505 l 1,4,-1
EndSplineSet
EndChar

StartChar: uniA78B
Encoding: 42891 42891 705
Width: 276
Flags: W
LayerCount: 2
Fore
SplineSet
148 700 m 1,0,-1
 282 700 l 1,1,-1
 187 301 l 1,2,-1
 69 301 l 1,3,-1
 148 700 l 1,0,-1
EndSplineSet
EndChar

StartChar: uniA78C
Encoding: 42892 42892 706
Width: 271
Flags: W
LayerCount: 2
Fore
SplineSet
142 672 m 1,0,-1
 271 672 l 1,1,-1
 183 301 l 1,2,-1
 69 301 l 1,3,-1
 142 672 l 1,0,-1
EndSplineSet
Substitution2: "<3,3> Small Caps in Latin lookup 11 subtable" uniA78C.sc
EndChar

StartChar: fl
Encoding: 64258 64258 708
Width: 652
Flags: W
LayerCount: 2
Fore
SplineSet
266 418 m 1,0,-1
 182 0 l 1,1,-1
 52 0 l 1,2,-1
 136 418 l 1,3,-1
 66 418 l 1,4,-1
 84 513 l 1,5,-1
 155 513 l 1,6,-1
 166 570 l 2,7,8
 183 651 183 651 242 699.5 c 128,-1,9
 301 748 301 748 383 748 c 0,10,11
 438 748 438 748 471 729 c 1,12,-1
 448 618 l 1,13,14
 415 636 415 636 387 636 c 0,15,16
 353 636 353 636 327.5 615.5 c 128,-1,17
 302 595 302 595 295 562 c 2,18,-1
 285 513 l 1,19,-1
 418 513 l 1,20,-1
 401 418 l 1,21,-1
 266 418 l 1,0,-1
530 742 m 1,22,-1
 660 742 l 1,23,-1
 512 0 l 1,24,-1
 382 0 l 1,25,-1
 530 742 l 1,22,-1
EndSplineSet
Ligature2: "<1,2> Common Ligatures in Latin lookup 13 subtable" f l
EndChar

StartChar: Adieresis.alt
Encoding: 65540 -1 711
Width: 747
Flags: W
LayerCount: 2
Fore
SplineSet
176.5 595.5 m 128,-1,1
 162 610 162 610 162 633 c 0,2,3
 162 663 162 663 184.5 684 c 128,-1,4
 207 705 207 705 237 705 c 0,5,6
 260 705 260 705 273.5 690.5 c 128,-1,7
 287 676 287 676 287 654 c 0,8,9
 287 625 287 625 265 603 c 128,-1,10
 243 581 243 581 213 581 c 0,11,0
 191 581 191 581 176.5 595.5 c 128,-1,1
579 595.5 m 128,-1,13
 565 610 565 610 565 633 c 0,14,15
 565 663 565 663 587 684 c 128,-1,16
 609 705 609 705 640 705 c 0,17,18
 662 705 662 705 676 690.5 c 128,-1,19
 690 676 690 676 690 654 c 0,20,21
 690 625 690 625 667.5 603 c 128,-1,22
 645 581 645 581 615 581 c 0,23,12
 593 581 593 581 579 595.5 c 128,-1,13
550 0 m 1,24,-1
 513 148 l 1,25,-1
 170 148 l 1,26,-1
 84 0 l 1,27,-1
 -54 0 l 1,28,-1
 368 700 l 1,29,-1
 506 700 l 1,30,-1
 694 0 l 1,31,-1
 550 0 l 1,24,-1
237 263 m 1,32,-1
 485 263 l 1,33,-1
 411 561 l 1,34,-1
 237 263 l 1,32,-1
EndSplineSet
EndChar

StartChar: Udieresis.alt
Encoding: 65541 -1 712
Width: 763
Flags: W
LayerCount: 2
Fore
SplineSet
501 690.5 m 128,-1,1
 515 676 515 676 515 653 c 0,2,3
 515 624 515 624 492.5 602.5 c 128,-1,4
 470 581 470 581 440 581 c 0,5,6
 418 581 418 581 404 595.5 c 128,-1,7
 390 610 390 610 390 633 c 0,8,9
 390 663 390 663 412 684 c 128,-1,10
 434 705 434 705 465 705 c 0,11,0
 487 705 487 705 501 690.5 c 128,-1,1
696 292 m 2,12,13
 668 153 668 153 574 73.5 c 128,-1,14
 480 -6 480 -6 338 -6 c 0,15,16
 213 -6 213 -6 142 55 c 128,-1,17
 71 116 71 116 71 222 c 0,18,19
 71 258 71 258 78 292 c 2,20,-1
 159 700 l 1,21,-1
 293 700 l 1,22,-1
 212 292 l 2,23,24
 207 271 207 271 207 244 c 0,25,26
 207 183 207 183 245.5 148.5 c 128,-1,27
 284 114 284 114 352 114 c 0,28,29
 432 114 432 114 488 161 c 128,-1,30
 544 208 544 208 561 292 c 2,31,-1
 643 700 l 1,32,-1
 778 700 l 1,33,-1
 696 292 l 2,12,13
467.5 525.5 m 128,-1,35
 481 511 481 511 481 488 c 0,36,37
 481 459 481 459 459 437.5 c 128,-1,38
 437 416 437 416 407 416 c 0,39,40
 385 416 385 416 370.5 430.5 c 128,-1,41
 356 445 356 445 356 468 c 0,42,43
 356 498 356 498 378.5 519 c 128,-1,44
 401 540 401 540 431 540 c 0,45,34
 454 540 454 540 467.5 525.5 c 128,-1,35
EndSplineSet
EndChar

StartChar: Udieresis.ss01.alt
Encoding: 65542 -1 713
Width: 768
Flags: W
LayerCount: 2
Fore
SplineSet
501 690.5 m 128,-1,1
 515 676 515 676 515 653 c 0,2,3
 515 624 515 624 492.5 602.5 c 128,-1,4
 470 581 470 581 440 581 c 0,5,6
 418 581 418 581 404 595.5 c 128,-1,7
 390 610 390 610 390 633 c 0,8,9
 390 663 390 663 412 684 c 128,-1,10
 434 705 434 705 465 705 c 0,11,0
 487 705 487 705 501 690.5 c 128,-1,1
116.5 50 m 128,-1,13
 63 103 63 103 63 192 c 0,14,15
 63 220 63 220 69 253 c 2,16,-1
 159 700 l 1,17,-1
 294 700 l 1,18,-1
 211 286 l 2,19,20
 207 267 207 267 207 247 c 0,21,22
 207 191 207 191 241 158.5 c 128,-1,23
 275 126 275 126 334 126 c 0,24,25
 385 126 385 126 431.5 150.5 c 128,-1,26
 478 175 478 175 510.5 217 c 128,-1,27
 543 259 543 259 556 310 c 2,28,-1
 634 700 l 1,29,-1
 769 700 l 1,30,-1
 629 0 l 1,31,-1
 494 0 l 1,32,-1
 517 111 l 1,33,34
 468 57 468 57 402 27 c 128,-1,35
 336 -3 336 -3 261 -3 c 0,36,12
 170 -3 170 -3 116.5 50 c 128,-1,13
467.5 525.5 m 128,-1,38
 481 511 481 511 481 488 c 0,39,40
 481 459 481 459 459 437.5 c 128,-1,41
 437 416 437 416 407 416 c 0,42,43
 385 416 385 416 370.5 430.5 c 128,-1,44
 356 445 356 445 356 468 c 0,45,46
 356 498 356 498 378.5 519 c 128,-1,47
 401 540 401 540 431 540 c 0,48,37
 454 540 454 540 467.5 525.5 c 128,-1,38
EndSplineSet
EndChar

StartChar: A.ss01
Encoding: 65543 -1 714
Width: 762
Flags: W
LayerCount: 2
Fore
SplineSet
655 646.5 m 128,-1,1
 723 586 723 586 723 480 c 0,2,3
 723 444 723 444 716 409 c 2,4,-1
 637 0 l 1,5,-1
 503 0 l 1,6,-1
 538 181 l 1,7,-1
 192 181 l 1,8,-1
 157 0 l 1,9,-1
 22 0 l 1,10,-1
 101 409 l 2,11,12
 118 500 118 500 168.5 567 c 128,-1,13
 219 634 219 634 295 670.5 c 128,-1,14
 371 707 371 707 465 707 c 0,15,0
 587 707 587 707 655 646.5 c 128,-1,1
587 455 m 0,17,18
 587 517 587 517 550 551.5 c 128,-1,19
 513 586 513 586 444 586 c 0,20,21
 363 586 363 586 307.5 538.5 c 128,-1,22
 252 491 252 491 236 409 c 2,23,-1
 214 295 l 1,24,-1
 560 295 l 1,25,-1
 582 409 l 2,26,16
 587 436 587 436 587 455 c 0,17,18
EndSplineSet
EndChar

StartChar: Aogonek.ss01
Encoding: 65564 -1 735
Width: 762
Flags: W
LayerCount: 2
Fore
SplineSet
655 646.5 m 128,-1,1
 723 586 723 586 723 480 c 0,2,3
 723 444 723 444 716 409 c 2,4,-1
 637 0 l 1,5,-1
 628 0 l 1,6,7
 570 -37 570 -37 546 -61.5 c 128,-1,8
 522 -86 522 -86 522 -110 c 0,9,10
 522 -131 522 -131 544 -131 c 0,11,12
 562 -131 562 -131 577 -123 c 1,13,-1
 589 -203 l 1,14,15
 538 -223 538 -223 496 -223 c 0,16,17
 455 -223 455 -223 430.5 -202.5 c 128,-1,18
 406 -182 406 -182 406 -146 c 0,19,20
 406 -108 406 -108 429 -69.5 c 128,-1,21
 452 -31 452 -31 504 6 c 1,22,-1
 538 181 l 1,23,-1
 192 181 l 1,24,-1
 157 0 l 1,25,-1
 22 0 l 1,26,-1
 101 409 l 2,27,28
 118 500 118 500 168.5 567 c 128,-1,29
 219 634 219 634 295 670.5 c 128,-1,30
 371 707 371 707 465 707 c 0,31,0
 587 707 587 707 655 646.5 c 128,-1,1
560 295 m 1,32,-1
 582 409 l 2,33,34
 587 436 587 436 587 455 c 0,35,36
 587 517 587 517 550 551.5 c 128,-1,37
 513 586 513 586 444 586 c 0,38,39
 363 586 363 586 307.5 538.5 c 128,-1,40
 252 491 252 491 236 409 c 2,41,-1
 214 295 l 1,42,-1
 560 295 l 1,32,-1
EndSplineSet
EndChar

StartChar: E.ss01
Encoding: 65570 -1 741
Width: 636
Flags: W
LayerCount: 2
Fore
SplineSet
552.5 698 m 128,-1,1
 613 685 613 685 649 664 c 1,2,-1
 586 559 l 1,3,4
 553 575 553 575 508 585 c 128,-1,5
 463 595 463 595 420 595 c 0,6,7
 372 595 372 595 333.5 581 c 128,-1,8
 295 567 295 567 273 543.5 c 128,-1,9
 251 520 251 520 251 491 c 0,10,11
 251 458 251 458 283 439 c 128,-1,12
 315 420 315 420 366 420 c 2,13,-1
 524 420 l 1,14,-1
 503 306 l 1,15,-1
 346 306 l 2,16,17
 270 306 270 306 218.5 276 c 128,-1,18
 167 246 167 246 167 197 c 0,19,20
 167 157 167 157 206.5 132 c 128,-1,21
 246 107 246 107 311 107 c 0,22,23
 361 107 361 107 422 122 c 128,-1,24
 483 137 483 137 526 159 c 1,25,-1
 558 54 l 1,26,27
 504 25 504 25 427 7.5 c 128,-1,28
 350 -10 350 -10 277 -10 c 0,29,30
 206 -10 206 -10 148 11.5 c 128,-1,31
 90 33 90 33 57 72.5 c 128,-1,32
 24 112 24 112 24 164 c 0,33,34
 24 237 24 237 81.5 294.5 c 128,-1,35
 139 352 139 352 227 371 c 1,36,37
 180 385 180 385 153.5 420.5 c 128,-1,38
 127 456 127 456 127 503 c 0,39,40
 127 514 127 514 128 519 c 0,41,42
 135 576 135 576 175.5 619.5 c 128,-1,43
 216 663 216 663 282 687 c 128,-1,44
 348 711 348 711 431 711 c 0,45,0
 492 711 492 711 552.5 698 c 128,-1,1
EndSplineSet
EndChar

StartChar: uni1E1C.ss01
Encoding: 65574 -1 745
Width: 636
Flags: W
LayerCount: 2
Fore
SplineSet
326.5 788 m 128,-1,1
 294 820 294 820 294 875 c 0,2,3
 294 894 294 894 296 904 c 1,4,-1
 382 904 l 1,5,6
 381 900 381 900 381 891 c 0,7,8
 381 868 381 868 394.5 854 c 128,-1,9
 408 840 408 840 430 840 c 0,10,11
 455 840 455 840 475.5 858 c 128,-1,12
 496 876 496 876 504 904 c 1,13,-1
 590 904 l 1,14,15
 575 837 575 837 526.5 796.5 c 128,-1,16
 478 756 478 756 415 756 c 0,17,0
 359 756 359 756 326.5 788 c 128,-1,1
333.5 581 m 128,-1,19
 295 567 295 567 273 543.5 c 128,-1,20
 251 520 251 520 251 491 c 0,21,22
 251 458 251 458 283 439 c 128,-1,23
 315 420 315 420 366 420 c 2,24,-1
 524 420 l 1,25,-1
 503 306 l 1,26,-1
 346 306 l 2,27,28
 270 306 270 306 218.5 276 c 128,-1,29
 167 246 167 246 167 197 c 0,30,31
 167 157 167 157 206.5 132 c 128,-1,32
 246 107 246 107 311 107 c 0,33,34
 361 107 361 107 422 122 c 128,-1,35
 483 137 483 137 526 159 c 1,36,-1
 558 54 l 1,37,38
 512 30 512 30 450 13.5 c 128,-1,39
 388 -3 388 -3 324 -8 c 1,40,-1
 300 -51 l 1,41,42
 335 -58 335 -58 351 -76.5 c 128,-1,43
 367 -95 367 -95 367 -120 c 0,44,45
 367 -171 367 -171 327 -197.5 c 128,-1,46
 287 -224 287 -224 227 -224 c 0,47,48
 175 -224 175 -224 128 -203 c 1,49,-1
 168 -128 l 1,50,51
 197 -139 197 -139 222 -139 c 0,52,53
 242 -139 242 -139 254.5 -131.5 c 128,-1,54
 267 -124 267 -124 267 -113 c 0,55,56
 267 -104 267 -104 254.5 -97.5 c 128,-1,57
 242 -91 242 -91 221 -91 c 2,58,-1
 192 -91 l 1,59,-1
 235 -8 l 1,60,61
 141 1 141 1 82.5 47.5 c 128,-1,62
 24 94 24 94 24 164 c 0,63,64
 24 237 24 237 81.5 294.5 c 128,-1,65
 139 352 139 352 227 371 c 1,66,67
 180 385 180 385 153.5 420.5 c 128,-1,68
 127 456 127 456 127 503 c 0,69,70
 127 514 127 514 128 519 c 0,71,72
 135 576 135 576 175.5 619.5 c 128,-1,73
 216 663 216 663 282 687 c 128,-1,74
 348 711 348 711 431 711 c 0,75,76
 492 711 492 711 552.5 698 c 128,-1,77
 613 685 613 685 649 664 c 1,78,-1
 586 559 l 1,79,80
 553 575 553 575 508 585 c 128,-1,81
 463 595 463 595 420 595 c 0,82,18
 372 595 372 595 333.5 581 c 128,-1,19
EndSplineSet
EndChar

StartChar: Eogonek.ss01
Encoding: 65591 -1 762
Width: 636
Flags: W
LayerCount: 2
Fore
SplineSet
333.5 581 m 128,-1,1
 295 567 295 567 273 543.5 c 128,-1,2
 251 520 251 520 251 491 c 0,3,4
 251 458 251 458 283 439 c 128,-1,5
 315 420 315 420 366 420 c 2,6,-1
 524 420 l 1,7,-1
 503 306 l 1,8,-1
 346 306 l 2,9,10
 270 306 270 306 218.5 276 c 128,-1,11
 167 246 167 246 167 197 c 0,12,13
 167 157 167 157 206.5 132 c 128,-1,14
 246 107 246 107 311 107 c 0,15,16
 361 107 361 107 422 122 c 128,-1,17
 483 137 483 137 526 159 c 1,18,-1
 558 54 l 1,19,-1
 555 52 l 1,20,21
 507 15 507 15 473.5 -31 c 128,-1,22
 440 -77 440 -77 440 -108 c 0,23,24
 440 -131 440 -131 461 -131 c 0,25,26
 479 -131 479 -131 493 -123 c 1,27,-1
 505 -203 l 1,28,29
 453 -223 453 -223 413 -223 c 0,30,31
 371 -223 371 -223 347 -201.5 c 128,-1,32
 323 -180 323 -180 323 -140 c 0,33,34
 323 -104 323 -104 341 -69.5 c 128,-1,35
 359 -35 359 -35 399 2 c 1,36,37
 339 -10 339 -10 277 -10 c 0,38,39
 206 -10 206 -10 148 11.5 c 128,-1,40
 90 33 90 33 57 72.5 c 128,-1,41
 24 112 24 112 24 164 c 0,42,43
 24 237 24 237 81.5 294.5 c 128,-1,44
 139 352 139 352 227 371 c 1,45,46
 180 385 180 385 153.5 420.5 c 128,-1,47
 127 456 127 456 127 503 c 0,48,49
 127 514 127 514 128 519 c 0,50,51
 135 576 135 576 175.5 619.5 c 128,-1,52
 216 663 216 663 282 687 c 128,-1,53
 348 711 348 711 431 711 c 0,54,55
 492 711 492 711 552.5 698 c 128,-1,56
 613 685 613 685 649 664 c 1,57,-1
 586 559 l 1,58,59
 553 575 553 575 508 585 c 128,-1,60
 463 595 463 595 420 595 c 0,61,0
 372 595 372 595 333.5 581 c 128,-1,1
EndSplineSet
EndChar

StartChar: F.ss01
Encoding: 65593 -1 764
Width: 536
Flags: W
LayerCount: 2
Fore
SplineSet
299.5 553 m 128,-1,1
 258 519 258 519 247 467 c 2,2,-1
 230 382 l 1,3,-1
 499 382 l 1,4,-1
 477 265 l 1,5,-1
 207 265 l 1,6,-1
 154 0 l 1,7,-1
 19 0 l 1,8,-1
 116 480 l 2,9,10
 136 586 136 586 210.5 646.5 c 128,-1,11
 285 707 285 707 392 707 c 0,12,13
 454 707 454 707 513 694 c 128,-1,14
 572 681 572 681 613 660 c 1,15,-1
 565 546 l 1,16,17
 529 564 529 564 482 575.5 c 128,-1,18
 435 587 435 587 397 587 c 0,19,0
 341 587 341 587 299.5 553 c 128,-1,1
EndSplineSet
EndChar

StartChar: G.ss01
Encoding: 65594 -1 765
Width: 763
Flags: W
LayerCount: 2
Fore
SplineSet
600 358 m 1,0,-1
 717 358 l 1,1,-1
 647 0 l 1,2,-1
 546 0 l 1,3,-1
 556 53 l 1,4,5
 514 23 514 23 466.5 6.5 c 128,-1,6
 419 -10 419 -10 372 -10 c 0,7,8
 280 -10 280 -10 206.5 33 c 128,-1,9
 133 76 133 76 91.5 151 c 128,-1,10
 50 226 50 226 50 319 c 0,11,12
 50 426 50 426 106 515.5 c 128,-1,13
 162 605 162 605 257.5 657 c 128,-1,14
 353 709 353 709 465 709 c 0,15,16
 540 709 540 709 611 682 c 128,-1,17
 682 655 682 655 731 608 c 1,18,-1
 644 509 l 1,19,20
 608 547 608 547 558 568 c 128,-1,21
 508 589 508 589 454 589 c 0,22,23
 383 589 383 589 321.5 554 c 128,-1,24
 260 519 260 519 223.5 459.5 c 128,-1,25
 187 400 187 400 187 329 c 0,26,27
 187 268 187 268 214.5 218 c 128,-1,28
 242 168 242 168 290 139.5 c 128,-1,29
 338 111 338 111 399 111 c 0,30,31
 443 111 443 111 487.5 129.5 c 128,-1,32
 532 148 532 148 565 180 c 1,33,-1
 600 358 l 1,0,-1
EndSplineSet
EndChar

StartChar: I.ss01
Encoding: 65601 -1 772
Width: 490
Flags: W
LayerCount: 2
Fore
SplineSet
505 583 m 1,0,-1
 376 583 l 1,1,-1
 282 117 l 1,2,-1
 409 117 l 1,3,-1
 387 0 l 1,4,-1
 -4 0 l 1,5,-1
 18 117 l 1,6,-1
 148 117 l 1,7,-1
 242 583 l 1,8,-1
 114 583 l 1,9,-1
 136 700 l 1,10,-1
 527 700 l 1,11,-1
 505 583 l 1,0,-1
EndSplineSet
EndChar

StartChar: Iogonek.ss01
Encoding: 65616 -1 787
Width: 490
Flags: W
LayerCount: 2
Fore
SplineSet
376 583 m 1,0,-1
 282 117 l 1,1,-1
 409 117 l 1,2,-1
 387 0 l 1,3,-1
 249 0 l 1,4,5
 191 -37 191 -37 167 -61.5 c 128,-1,6
 143 -86 143 -86 143 -110 c 0,7,8
 143 -131 143 -131 165 -131 c 0,9,10
 183 -131 183 -131 198 -123 c 1,11,-1
 210 -203 l 1,12,13
 159 -223 159 -223 117 -223 c 0,14,15
 76 -223 76 -223 51.5 -202.5 c 128,-1,16
 27 -182 27 -182 27 -146 c 0,17,18
 27 -68 27 -68 117 0 c 1,19,-1
 -4 0 l 1,20,-1
 18 117 l 1,21,-1
 148 117 l 1,22,-1
 242 583 l 1,23,-1
 114 583 l 1,24,-1
 136 700 l 1,25,-1
 527 700 l 1,26,-1
 505 583 l 1,27,-1
 376 583 l 1,0,-1
EndSplineSet
EndChar

StartChar: J.ss01
Encoding: 65618 -1 789
Width: 508
Flags: W
LayerCount: 2
Fore
SplineSet
523 700 m 1,0,-1
 405 114 l 2,1,2
 384 7 384 7 315.5 -49.5 c 128,-1,3
 247 -106 247 -106 144 -106 c 0,4,5
 78 -106 78 -106 27.5 -77.5 c 128,-1,6
 -23 -49 -23 -49 -56 2 c 1,7,-1
 21 95 l 1,8,9
 48 58 48 58 82.5 39.5 c 128,-1,10
 117 21 117 21 150 21 c 0,11,12
 197 21 197 21 229.5 50 c 128,-1,13
 262 79 262 79 273 129 c 2,14,-1
 364 581 l 1,15,-1
 124 581 l 1,16,-1
 146 700 l 1,17,-1
 523 700 l 1,0,-1
EndSplineSet
EndChar

StartChar: M.ss01
Encoding: 65622 -1 793
Width: 1190
Flags: W
LayerCount: 2
Fore
SplineSet
1111 652 m 128,-1,1
 1161 600 1161 600 1161 513 c 0,2,3
 1161 479 1161 479 1154 447 c 2,4,-1
 1065 0 l 1,5,-1
 929 0 l 1,6,-1
 1013 414 l 2,7,8
 1018 439 1018 439 1018 457 c 0,9,10
 1018 511 1018 511 987 542.5 c 128,-1,11
 956 574 956 574 902 574 c 0,12,13
 853 574 853 574 809 548 c 128,-1,14
 765 522 765 522 734 478 c 128,-1,15
 703 434 703 434 692 380 c 2,16,-1
 616 0 l 1,17,-1
 480 0 l 1,18,-1
 564 414 l 2,19,20
 569 439 569 439 569 456 c 0,21,22
 569 510 569 510 537.5 542 c 128,-1,23
 506 574 506 574 452 574 c 0,24,25
 405 574 405 574 361 549.5 c 128,-1,26
 317 525 317 525 286 483 c 128,-1,27
 255 441 255 441 245 390 c 2,28,-1
 167 0 l 1,29,-1
 33 0 l 1,30,-1
 173 700 l 1,31,-1
 307 700 l 1,32,-1
 285 592 l 1,33,34
 332 645 332 645 394 674.5 c 128,-1,35
 456 704 456 704 526 704 c 0,36,37
 600 704 600 704 648 665 c 128,-1,38
 696 626 696 626 708 558 c 1,39,40
 755 626 755 626 824.5 665 c 128,-1,41
 894 704 894 704 975 704 c 0,42,0
 1061 704 1061 704 1111 652 c 128,-1,1
EndSplineSet
EndChar

StartChar: N.ss01
Encoding: 65624 -1 795
Width: 768
Flags: W
LayerCount: 2
Fore
SplineSet
685.5 651.5 m 128,-1,1
 739 599 739 599 739 510 c 0,2,3
 739 486 739 486 732 447 c 2,4,-1
 643 0 l 1,5,-1
 507 0 l 1,6,-1
 591 414 l 2,7,8
 595 433 595 433 595 453 c 0,9,10
 595 508 595 508 561 541 c 128,-1,11
 527 574 527 574 467 574 c 0,12,13
 416 574 416 574 370 550 c 128,-1,14
 324 526 324 526 291 484 c 128,-1,15
 258 442 258 442 245 390 c 2,16,-1
 167 0 l 1,17,-1
 33 0 l 1,18,-1
 173 700 l 1,19,-1
 307 700 l 1,20,-1
 284 589 l 1,21,22
 334 643 334 643 400 673.5 c 128,-1,23
 466 704 466 704 541 704 c 0,24,0
 632 704 632 704 685.5 651.5 c 128,-1,1
EndSplineSet
EndChar

StartChar: Eng.ss01
Encoding: 65631 -1 802
Width: 769
Flags: W
LayerCount: 2
Fore
SplineSet
684.5 647 m 128,-1,1
 738 594 738 594 738 505 c 0,2,3
 738 477 738 477 732 444 c 2,4,-1
 643 0 l 2,5,6
 623 -96 623 -96 551 -152 c 128,-1,7
 479 -208 479 -208 377 -208 c 0,8,9
 262 -208 262 -208 199 -137 c 1,10,-1
 278 -31 l 1,11,12
 303 -55 303 -55 335 -67.5 c 128,-1,13
 367 -80 367 -80 397 -80 c 0,14,15
 440 -80 440 -80 469.5 -55.5 c 128,-1,16
 499 -31 499 -31 509 14 c 2,17,-1
 590 411 l 2,18,19
 594 430 594 430 594 450 c 0,20,21
 594 506 594 506 560 538.5 c 128,-1,22
 526 571 526 571 467 571 c 0,23,24
 416 571 416 571 369.5 546.5 c 128,-1,25
 323 522 323 522 290.5 480 c 128,-1,26
 258 438 258 438 245 387 c 2,27,-1
 167 0 l 1,28,-1
 33 0 l 1,29,-1
 173 700 l 1,30,-1
 307 700 l 1,31,-1
 284 586 l 1,32,33
 333 640 333 640 399 670 c 128,-1,34
 465 700 465 700 540 700 c 0,35,0
 631 700 631 700 684.5 647 c 128,-1,1
EndSplineSet
EndChar

